<svg width="369" height="313" viewBox="0 0 369 313" fill="none" xmlns="http://www.w3.org/2000/svg">
<path d="M152.438 190.06C150.204 190.06 148.25 188.39 148.25 186.164L142.108 11.1309C142.108 8.9047 138.478 8.62642 131.499 8.34815H129.544C127.311 8.34815 125.356 6.40025 125.356 4.17408C125.356 1.9479 127.311 0 129.544 0H131.22C138.199 0 149.646 0.278297 150.204 10.8526L156.347 185.886C156.626 188.112 154.951 190.06 152.438 190.06Z" fill="#CC3E3E"/>
<path d="M96.0417 255.175L197.388 256.01C200.459 256.01 202.972 253.784 203.251 250.723L218.886 59.8282L77.6152 58.7151L90.4579 250.166C90.7371 252.949 92.9706 255.175 96.0417 255.175Z" fill="#DA4D4D"/>
<path d="M82.3604 128.284L85.4314 174.199H209.392L213.301 128.284H82.3604Z" fill="#F8F8EE"/>
<path d="M77.6152 58.7151L218.886 59.8282V60.9413L92.4123 60.1064L105.255 251.557C105.255 253.227 106.093 254.618 107.489 255.453H96.321C93.5291 255.453 91.0164 253.227 90.7372 250.166L77.6152 58.7151Z" fill="#CC3E3E"/>
<path opacity="0.46" d="M217.489 72.9079L78.4521 71.7948L79.0106 78.7516L216.93 79.0299L217.489 72.9079Z" fill="#390028"/>
<path d="M76.7783 58.4365L77.895 72.9067H218.607L219.724 59.5496L76.7783 58.4365Z" fill="#F8F8EE"/>
<path d="M293.708 98.7861H227.819C223.073 98.7861 219.164 102.682 219.164 107.413V116.596C219.164 121.326 223.073 125.222 227.819 125.222H293.708C298.454 125.222 302.363 121.326 302.363 116.596V107.413C302.363 102.682 298.454 98.7861 293.708 98.7861Z" fill="#FF7000"/>
<path d="M186.216 141.64L210.785 268.81H309.06L333.908 140.805L186.216 141.64Z" fill="#FF7000"/>
<g opacity="0.11">
<path opacity="0.11" d="M333.913 140.805L186.221 141.64L210.79 268.81H232.566L207.998 141.64L333.913 140.805Z" fill="#390028"/>
</g>
<path d="M218.886 117.709H302.364L333.912 141.641H185.662L218.607 118.266" fill="#FCA25C"/>
<path d="M282.821 166.406C264.116 153.327 238.43 157.779 225.308 176.423C212.186 195.068 216.653 220.669 235.359 233.747C254.065 246.826 279.75 242.374 292.872 223.73C305.994 205.085 301.527 179.484 282.821 166.406ZM240.664 226.234C226.146 215.938 222.795 196.181 232.846 181.711C243.176 167.24 262.999 163.901 277.517 173.919C292.035 184.215 295.385 203.972 285.334 218.442C275.004 232.913 255.181 236.252 240.664 226.234Z" fill="#F9B361"/>
<path d="M259.089 242.653C250.434 242.653 241.779 239.87 234.52 234.861C225.307 228.182 218.886 218.443 216.931 207.312C214.977 196.181 217.49 184.772 224.19 175.589C230.891 166.406 240.662 160.006 251.83 158.058C262.998 156.11 274.445 158.615 283.658 165.293C302.922 178.928 307.668 205.364 293.988 224.565C287.287 233.748 277.516 240.148 266.348 242.096C263.835 242.374 261.323 242.653 259.089 242.653ZM259.089 160.284C256.856 160.284 254.343 160.562 252.109 160.841C241.5 162.789 232.287 168.354 226.145 177.259C220.003 185.885 217.49 196.46 219.444 207.034C221.398 217.608 226.982 226.791 235.916 232.913C244.571 239.035 255.18 241.54 265.79 239.592C276.399 237.644 285.612 232.078 291.754 223.174C304.318 205.086 300.13 180.32 281.983 167.798C275.282 162.789 267.186 160.284 259.089 160.284ZM259.089 233.47C252.389 233.47 245.688 231.522 239.825 227.348C232.566 222.339 227.541 214.547 226.145 205.642C224.749 196.738 226.703 188.111 231.729 180.598C242.338 165.571 263.277 161.954 278.353 172.528C293.429 183.102 297.059 203.973 286.45 219C280.028 228.461 269.698 233.47 259.089 233.47ZM241.5 225.122C255.46 234.861 274.445 231.522 284.216 217.608C293.988 203.695 290.638 184.772 276.678 175.033C262.719 165.293 243.734 168.632 233.962 182.546C229.216 189.224 227.541 197.294 228.937 205.364C230.333 213.434 234.8 220.391 241.5 225.122Z" fill="#FFDEC4"/>
<path d="M277.518 173.918C263 163.622 242.898 167.24 232.847 181.71C222.517 196.18 226.147 216.216 240.665 226.234C255.183 236.53 275.284 232.912 285.335 218.442C295.386 203.972 292.036 184.215 277.518 173.918ZM262.721 212.32C262.162 213.155 260.766 213.433 259.929 212.877L246.807 203.694C245.969 203.137 245.69 201.746 246.248 200.911L255.462 187.832C256.02 186.997 257.416 186.719 258.254 187.276L271.376 196.459C272.213 197.015 272.492 198.406 271.934 199.241L262.721 212.32Z" fill="#F9B361"/>
<path d="M259.088 233.47C252.388 233.47 245.687 231.522 239.824 227.348C232.565 222.339 227.54 214.548 226.144 205.643C224.748 196.738 226.702 188.112 231.728 180.598C242.337 165.572 263.276 161.954 278.352 172.528C293.429 183.103 297.058 203.973 286.449 219C280.028 228.461 269.698 233.47 259.088 233.47ZM259.088 169.468C249.317 169.468 239.824 173.92 233.961 182.546C229.215 189.225 227.54 197.295 228.936 205.365C230.332 213.434 234.799 220.391 241.499 225.122C255.459 234.861 274.444 231.522 284.215 217.609C293.987 203.695 290.637 184.772 276.677 175.033C271.373 171.415 265.23 169.468 259.088 169.468ZM261.043 214.548C260.484 214.548 259.647 214.269 259.088 213.991L245.966 204.808C244.57 203.695 244.012 201.747 245.129 200.077L254.342 186.999C255.459 185.607 257.413 185.051 259.088 186.164L272.21 195.347C273.048 195.903 273.327 196.738 273.606 197.573C273.885 198.408 273.606 199.243 273.048 200.077L263.835 213.156C262.997 213.991 262.159 214.548 261.043 214.548ZM257.134 188.39C256.855 188.39 256.855 188.39 256.576 188.668L247.362 201.747C247.083 202.025 247.362 202.304 247.362 202.582L260.484 211.765C260.763 212.043 261.043 211.765 261.322 211.765L270.535 198.686C270.535 198.408 270.535 198.408 270.535 198.408C270.535 198.408 270.535 198.13 270.256 198.13L257.134 188.947C257.413 188.39 257.134 188.39 257.134 188.39Z" fill="#FCA25C"/>
<path d="M160.814 274.098L4.7461 274.933C1.9542 274.933 0 272.707 0 270.202V266.306C0 263.524 2.23339 261.576 4.7461 261.576L160.814 260.741C163.606 260.741 165.56 262.967 165.56 265.471V269.367C165.839 271.872 163.606 274.098 160.814 274.098Z" fill="#470B1B"/>
<path d="M156.624 260.741L125.634 261.019C125.076 261.019 124.518 261.298 123.959 261.576L113.071 268.254C112.233 268.811 110.837 268.811 109.721 268.254L96.0401 261.576C95.4818 261.298 94.9234 261.298 94.6442 261.298L9.49112 261.854C7.81598 261.854 6.69922 261.019 6.69922 259.906V252.671C6.69922 251.558 7.81598 250.445 9.49112 250.445L156.904 249.61C158.579 249.61 159.696 250.445 159.696 251.558V258.793C159.416 259.906 158.02 260.741 156.624 260.741Z" fill="#FFD98B"/>
<path d="M154.67 283.559L11.1663 284.394C10.0495 284.394 9.21191 283.559 9.21191 282.446V276.602C9.21191 275.489 10.0495 274.654 11.1663 274.654L154.67 273.819C155.787 273.819 156.624 274.654 156.624 275.767V281.611C156.624 282.724 155.787 283.559 154.67 283.559Z" fill="#FF7000"/>
<path opacity="0.74" d="M155.228 276.602L10.0494 277.437C9.49107 277.437 8.93262 276.88 8.93262 276.324V275.767C8.93262 275.211 9.49107 274.654 10.0494 274.654L155.228 273.819C155.787 273.819 156.345 274.376 156.345 274.933V275.489C156.624 276.046 156.066 276.602 155.228 276.602Z" fill="#EC6565"/>
<path d="M135.404 311.386L30.987 311.943C17.8651 311.943 7.25586 304.429 7.25586 294.968V283.002L159.135 282.446V294.411C159.135 303.594 148.526 311.386 135.404 311.386Z" fill="#FFAC79"/>
<path opacity="0.25" d="M158.995 282H151.157C149.757 290.256 139.68 296.861 127.644 296.861L39.7502 297.136C27.7138 297.136 17.6368 290.807 16.2372 282.55H7V294.384C7 303.741 17.6368 311.447 30.7929 311.172L135.579 312C148.735 312 159.274 302.916 158.995 293.559V282Z" fill="#F97762"/>
<path d="M163.325 251.002L2.23163 251.836C1.95244 220.67 29.0339 195.069 62.2576 194.791L102.461 194.512C135.964 194.512 163.045 219.557 163.325 251.002Z" fill="#FFB6AF"/>
<path opacity="0.08" d="M163.325 251.002L2.23163 251.836C1.95244 220.67 29.0339 195.069 62.2576 194.791L102.461 194.512C135.964 194.512 163.045 219.557 163.325 251.002Z" fill="#FFF6F7"/>
<path d="M163.325 251.002L2.23163 251.836C1.95244 220.67 29.0339 195.069 62.2576 194.791L102.461 194.512C135.964 194.512 163.045 219.557 163.325 251.002Z" fill="#FFAC79"/>
<path opacity="0.25" d="M126.194 198.965L126.473 199.243C142.666 210.096 134.849 235.418 115.306 235.697L42.9951 236.253C28.7564 236.253 20.3807 219.835 29.594 208.704C32.9443 204.808 36.853 201.191 41.3201 198.687C18.1472 206.756 1.9541 227.627 1.9541 252.115L163.047 251.28C163.047 227.627 147.971 207.591 126.194 198.965Z" fill="#F97762"/>
<path d="M78.7288 210.652C77.0538 210.652 75.3789 210.374 75.3789 209.261C75.3789 207.869 77.333 207.313 79.2872 207.313C81.2414 207.313 83.4747 207.591 83.4747 208.704C83.4747 210.096 81.5206 210.652 79.5664 210.652C79.2873 210.652 79.008 210.652 78.7288 210.652ZM77.0539 209.261C77.6122 209.261 78.4498 209.539 79.5664 209.539C80.6831 209.539 81.5206 209.261 81.7998 208.983C81.2414 208.983 80.4039 208.704 79.2872 208.704C78.4497 208.704 77.6122 208.983 77.0539 209.261Z" fill="#F8F8EE"/>
<path d="M103.854 217.33C102.179 217.33 100.504 217.052 100.504 215.939C100.504 215.383 100.783 214.826 101.9 214.548C102.458 214.269 103.575 213.991 104.412 213.991C105.25 213.991 106.366 213.991 106.925 214.269C108.041 214.548 108.6 215.104 108.6 215.661C108.6 217.052 106.646 217.609 104.691 217.609C104.412 217.33 104.133 217.33 103.854 217.33ZM102.179 215.661C102.737 215.661 103.575 215.939 104.691 215.939C105.808 215.939 106.646 215.661 106.925 215.383C106.366 215.383 105.529 215.104 104.412 215.104C103.295 215.383 102.458 215.383 102.179 215.661Z" fill="#F8F8EE"/>
<path d="M97.4321 204.252C95.7571 204.252 94.082 203.974 94.082 202.86C94.082 202.304 94.3612 201.747 95.4779 201.469C96.0362 201.191 97.153 200.913 97.9905 200.913C99.9447 200.913 102.178 201.191 102.178 202.304C102.178 202.861 101.899 203.417 100.782 203.695C100.224 203.974 99.1071 204.252 98.2696 204.252C97.9904 204.252 97.7113 204.252 97.4321 204.252ZM95.7572 202.86C96.3155 202.86 97.1529 203.139 98.2696 203.139C99.3863 203.139 100.224 202.86 100.503 202.582C99.9447 202.582 99.1071 202.304 97.9905 202.304C96.8738 202.304 96.0363 202.582 95.7572 202.86Z" fill="#F8F8EE"/>
<path d="M56.3929 217.609C54.7178 217.609 53.043 217.331 53.043 216.218C53.043 215.661 53.3221 215.105 54.4388 214.826C54.9972 214.548 56.1137 214.27 56.9512 214.27C57.7887 214.27 58.9055 214.27 59.4638 214.548C60.5805 214.826 61.1388 215.383 61.1388 215.94C61.1388 216.496 60.8596 217.053 59.7429 217.331C59.1846 217.609 58.068 217.887 57.2305 217.887C56.9513 217.609 56.672 217.609 56.3929 217.609ZM54.7179 216.218C55.2763 216.218 56.1138 216.496 57.2305 216.496C58.3472 216.496 59.1847 216.218 59.4638 215.94C58.9055 215.94 58.0679 215.661 56.9512 215.661C55.8346 215.661 54.9971 215.94 54.7179 216.218Z" fill="#F8F8EE"/>
<path d="M57.5102 204.252C55.8352 204.252 54.1602 203.974 54.1602 202.86C54.1602 202.304 54.4393 201.747 55.556 201.469C56.1143 201.191 57.2311 200.913 58.0686 200.913C58.9061 200.913 60.0227 200.913 60.581 201.191C61.6977 201.469 62.2561 202.026 62.2561 202.582C62.2561 203.139 61.977 203.695 60.8603 203.974C60.302 204.252 59.1852 204.53 58.3477 204.53C58.0685 204.252 57.7894 204.252 57.5102 204.252ZM55.8353 202.582C56.3936 202.582 57.231 202.86 58.3477 202.86C59.4644 202.86 60.3018 202.582 60.581 202.304C60.0227 202.304 59.1853 202.026 58.0686 202.026C57.2311 202.304 56.3936 202.304 55.8353 202.582Z" fill="#F8F8EE"/>
<path d="M343.405 312.221H156.068C144.063 312.221 134.291 302.481 134.291 290.516V277.715C134.291 272.428 138.758 267.976 144.063 267.976H355.689C360.994 267.976 365.461 272.428 365.461 277.715V290.516C365.181 302.481 355.41 312.221 343.405 312.221Z" fill="#353535"/>
<path d="M171.422 223.73L152.996 255.453C146.575 266.306 154.671 279.663 167.235 279.663H204.088C216.651 279.663 224.469 266.027 218.326 255.453L199.9 223.73C193.478 212.878 177.844 212.878 171.422 223.73Z" fill="#E0E0E0"/>
<path opacity="0.11" d="M162.209 252.393C162.209 252.393 161.93 252.393 162.209 252.393C161.372 251.558 160.534 250.723 160.534 249.61C160.534 249.053 160.813 248.497 161.092 248.219C161.372 247.94 161.651 247.662 162.209 247.94C162.488 247.94 162.767 248.219 163.047 248.497C163.047 248.219 163.047 247.94 163.326 247.94C163.884 247.105 165.001 247.105 165.838 247.384C166.397 247.662 166.676 247.94 166.955 248.497C167.234 248.775 167.513 249.053 168.072 249.332C168.351 249.332 168.351 249.61 168.351 249.888C168.351 250.166 168.072 250.166 167.793 250.166C167.234 249.888 166.955 249.61 166.676 249.053C166.397 248.775 166.118 248.497 165.559 248.219C165.001 247.94 164.443 247.94 164.163 248.497C163.884 248.775 163.884 249.332 163.884 249.888C163.884 250.166 163.884 250.166 163.605 250.166C163.326 250.166 163.326 250.166 163.326 249.888C163.047 249.332 162.767 248.775 162.209 248.775C161.93 248.775 161.93 248.775 161.651 249.053C161.372 249.332 161.372 249.61 161.372 250.166C161.372 251.001 161.93 251.836 162.488 252.393C162.488 252.114 162.488 252.114 162.209 252.393C162.488 252.393 162.209 252.393 162.209 252.393Z" fill="#390028"/>
<path opacity="0.11" d="M158.302 262.411C158.302 262.411 158.302 262.133 158.302 262.411C157.465 261.855 157.185 261.02 156.906 260.463C156.906 259.907 156.906 259.628 157.186 259.35C157.465 258.793 158.302 258.793 158.86 259.072C159.419 259.35 159.698 259.628 159.977 260.185C159.977 260.463 159.977 260.463 159.977 260.741C159.698 260.741 159.698 260.741 159.419 260.741C159.14 260.463 158.861 260.185 158.581 259.907C158.302 259.907 158.023 259.907 157.744 259.907C157.744 260.185 157.744 260.463 157.744 260.741C157.744 261.298 158.302 261.854 158.581 262.133C158.861 261.854 158.86 262.133 158.302 262.411C158.581 262.133 158.581 262.411 158.302 262.411Z" fill="#390028"/>
<path opacity="0.11" d="M182.869 248.218C182.59 248.218 182.59 248.218 182.59 247.94C182.311 247.383 182.032 246.827 181.753 246.27C181.473 245.992 181.194 245.714 180.915 245.714C180.636 245.714 180.078 245.714 180.078 246.27C179.798 246.548 179.798 247.105 180.078 247.383C180.078 247.661 180.078 247.661 180.078 247.94C179.798 247.94 179.798 247.94 179.519 247.94C178.961 247.383 178.961 246.548 179.24 245.992C179.519 245.435 180.357 245.157 180.915 245.157C181.194 245.157 181.753 245.435 182.032 245.992C182.59 246.548 182.869 247.105 183.148 247.661C183.148 247.94 183.148 247.94 182.869 248.218Z" fill="#390028"/>
<path opacity="0.11" d="M179.801 261.853C179.521 261.853 179.521 261.853 179.521 261.575C179.242 260.74 179.242 259.905 179.242 259.07C179.242 258.235 179.521 257.957 179.801 257.957C180.08 257.957 180.359 257.957 180.638 257.957C180.917 257.957 181.197 258.235 181.476 258.514C181.476 257.957 182.034 257.401 182.313 257.122C183.151 256.566 184.267 257.122 184.826 257.679C185.105 257.957 185.384 257.957 185.663 258.236C185.942 258.514 186.501 258.792 186.78 259.07C187.059 259.07 187.059 259.349 187.059 259.627C187.059 259.905 186.78 259.905 186.501 259.905C185.942 259.627 185.663 259.349 185.384 259.07C185.105 258.792 184.826 258.792 184.826 258.514C184.546 258.235 183.709 257.957 182.872 258.236C182.592 258.236 182.313 258.792 182.313 259.07C182.313 259.07 182.313 259.349 182.313 259.627C182.313 259.627 182.313 259.905 182.313 260.183C182.313 260.183 182.034 260.462 181.755 260.183C181.755 260.183 181.755 260.183 181.476 259.905C181.197 259.627 180.638 259.349 180.08 259.07H179.801C179.801 259.07 179.801 259.349 179.801 259.627C179.801 260.462 180.08 261.296 180.08 261.853C180.359 261.853 180.08 261.853 179.801 261.853Z" fill="#390028"/>
<path opacity="0.11" d="M188.456 230.409C188.177 230.409 188.177 230.409 188.177 230.13C188.177 229.296 188.177 228.461 188.177 227.626C188.177 227.069 188.456 226.513 189.014 226.235C189.573 225.956 190.41 225.956 190.689 226.513C190.969 226.791 190.969 226.791 191.248 227.069C191.527 226.791 191.527 226.513 191.806 226.235C192.364 225.678 193.202 225.678 194.039 225.678C195.435 225.956 196.273 227.069 196.831 227.904C196.831 228.183 196.831 228.183 196.831 228.461C196.552 228.461 196.552 228.461 196.273 228.461C195.714 227.904 194.877 226.791 193.76 226.513C193.202 226.513 192.644 226.513 192.085 226.791C191.806 227.069 191.527 227.348 191.527 227.904C191.527 228.183 191.527 228.183 191.248 228.183C190.969 228.183 190.968 228.183 190.968 227.904C190.689 227.626 190.41 227.069 190.131 226.791C189.852 226.513 189.573 226.513 189.294 226.791C189.014 226.791 189.014 227.348 188.735 227.626C188.456 228.461 188.456 229.017 188.735 229.852C189.014 230.13 188.735 230.13 188.456 230.409C188.735 230.409 188.735 230.409 188.456 230.409Z" fill="#390028"/>
<path opacity="0.11" d="M203.528 261.297C203.528 261.297 203.249 261.297 203.249 261.019C202.97 260.184 202.97 259.627 202.97 258.792C202.97 258.236 203.249 257.679 204.086 257.401C204.366 257.401 204.645 257.401 204.924 257.679C205.761 258.236 206.599 258.792 207.157 259.906C207.157 260.184 207.157 260.184 207.157 260.462C206.878 260.462 206.878 260.462 206.599 260.462C206.041 259.627 205.482 259.071 204.645 258.514H204.366C204.086 258.514 204.086 258.793 204.086 259.349C204.086 259.906 204.086 260.74 204.366 261.297C204.086 261.019 203.807 261.019 203.528 261.297Z" fill="#390028"/>
<path opacity="0.11" d="M202.415 280.22H168.912C168.633 280.22 168.633 279.942 168.633 279.942V251.28C168.633 245.715 173.1 241.262 178.684 241.262H192.643C198.227 241.262 202.694 245.715 202.694 251.28V279.942L202.415 280.22ZM169.191 279.386H201.857V251.002C201.857 245.715 197.669 241.541 192.364 241.541H178.404C173.1 241.541 168.912 245.715 168.912 251.002V279.386H169.191Z" fill="#390028"/>
<path d="M202.413 279.664H168.91V251.002C168.91 245.715 173.377 241.262 178.682 241.262H192.641C197.946 241.262 202.413 245.715 202.413 251.002V279.664Z" fill="#390028"/>
<g opacity="0.11">
<path opacity="0.11" d="M180.635 230.13C180.077 230.13 179.798 229.852 179.798 229.296C179.798 228.739 180.077 228.461 180.635 228.461C181.194 228.461 181.473 228.739 181.473 229.296C181.473 229.852 181.194 230.13 180.635 230.13ZM180.635 229.017C180.635 229.296 180.914 229.296 180.635 229.017C180.914 229.017 180.635 229.017 180.635 229.017Z" fill="#390028"/>
<path opacity="0.11" d="M174.214 233.191C173.656 233.191 173.377 232.913 173.377 232.357C173.377 231.8 173.656 231.522 174.214 231.522C174.773 231.522 175.052 231.8 175.052 232.357C175.052 232.913 174.773 233.191 174.214 233.191ZM174.214 232.078C174.214 232.078 174.214 232.357 174.214 232.078C174.214 232.357 174.494 232.357 174.214 232.078C174.494 232.357 174.214 232.078 174.214 232.078Z" fill="#390028"/>
<path opacity="0.11" d="M180.077 234.861C179.24 234.861 178.682 234.304 178.682 233.469C178.682 232.635 179.24 232.078 180.077 232.078C180.915 232.078 181.473 232.635 181.473 233.469C181.473 234.304 180.915 234.861 180.077 234.861ZM180.077 233.191C179.798 233.191 179.519 233.469 179.519 233.748C179.519 234.026 179.798 234.304 180.077 234.304C180.357 234.304 180.636 234.026 180.636 233.748C180.915 233.469 180.636 233.191 180.077 233.191Z" fill="#390028"/>
</g>
<g opacity="0.11">
<path opacity="0.11" d="M212.464 263.523C212.185 263.523 212.185 263.523 211.906 263.245C211.626 262.966 211.626 262.41 211.906 262.132C212.185 261.853 212.743 261.853 213.022 262.132C213.302 262.41 213.302 262.966 213.022 263.245C212.743 263.523 212.464 263.523 212.464 263.523ZM212.464 262.688C212.185 262.688 212.185 262.688 212.464 262.688C212.185 262.688 212.185 262.688 212.464 262.688C212.185 262.966 212.464 262.966 212.464 262.688Z" fill="#390028"/>
<path opacity="0.11" d="M205.482 261.854C205.203 261.854 205.203 261.854 204.924 261.575C204.644 261.297 204.645 261.297 204.645 261.019C204.645 260.74 204.644 260.462 204.924 260.462C205.203 260.184 205.761 260.184 206.04 260.462C206.32 260.462 206.319 260.74 206.319 261.019C206.319 261.297 206.32 261.575 206.04 261.575C205.761 261.854 205.761 261.854 205.482 261.854ZM205.482 260.74C205.482 260.74 205.203 261.019 205.482 260.74C205.203 261.019 205.203 261.019 205.482 260.74C205.203 261.019 205.203 261.019 205.482 260.74C205.482 261.019 205.482 261.019 205.482 260.74C205.482 261.019 205.482 261.019 205.482 260.74C205.482 261.019 205.482 260.74 205.482 260.74Z" fill="#390028"/>
<path opacity="0.11" d="M209.112 267.141C208.832 267.141 208.553 267.141 208.274 266.862C207.995 266.584 207.716 266.306 207.716 266.028C207.716 265.749 207.716 265.471 207.995 265.193C208.553 264.636 209.391 264.636 209.949 264.915C210.228 265.193 210.508 265.471 210.508 265.749C210.508 266.028 210.508 266.306 210.228 266.584C209.949 266.863 209.391 267.141 209.112 267.141ZM209.112 265.193C208.832 265.193 208.832 265.193 208.553 265.471C208.553 265.471 208.274 265.749 208.553 266.028C208.553 266.306 208.553 266.306 208.833 266.306C209.112 266.584 209.391 266.584 209.67 266.306C209.67 266.306 209.949 266.028 209.67 265.749C209.67 265.471 209.67 265.471 209.391 265.471C209.391 265.193 209.112 265.193 209.112 265.193Z" fill="#390028"/>
</g>
<path d="M349.265 267.141H298.453C293.427 267.141 289.519 262.967 289.519 258.237V247.941C289.519 242.932 293.706 239.036 298.453 239.036H349.265C354.291 239.036 358.2 243.21 358.2 247.941V258.237C358.2 262.967 354.291 267.141 349.265 267.141Z" fill="#F8F8EE"/>
<path opacity="0.11" d="M302.078 257.961C301.241 257.126 300.403 256.013 300.403 255.178C300.403 254.622 300.683 254.065 300.962 253.508C301.241 253.23 301.52 252.952 302.078 253.23C302.357 253.23 302.916 253.508 302.916 253.787C302.916 253.508 302.916 253.23 303.195 253.23C303.753 252.395 304.87 252.395 305.708 252.674C306.266 252.952 306.545 253.23 306.824 253.787C307.103 254.065 307.383 254.343 307.941 254.622C308.22 254.622 308.22 254.9 308.22 255.178C308.22 255.456 307.941 255.456 307.662 255.456C307.103 255.178 306.824 254.9 306.545 254.343C306.266 254.065 305.987 253.787 305.428 253.508C304.87 253.23 304.312 253.23 303.753 253.787C303.474 254.065 303.474 254.622 303.474 255.178C303.474 255.456 303.474 255.456 303.195 255.456C302.916 255.456 302.916 255.456 302.916 255.178C302.637 254.622 302.358 254.065 301.799 254.065C301.52 254.065 301.52 254.065 301.241 254.343C300.962 254.622 300.962 254.9 300.962 255.456C300.962 256.291 301.52 257.126 302.078 257.683C302.637 257.404 302.637 257.683 302.078 257.961C302.357 257.961 302.357 257.961 302.078 257.961Z" fill="#390028"/>
<path opacity="0.11" d="M298.171 262.413C298.171 262.413 298.171 262.135 298.171 262.413C297.334 261.857 297.055 261.022 296.775 260.466C296.775 259.909 296.775 259.631 297.054 259.074C297.334 258.518 298.171 258.518 298.73 258.796C299.288 259.074 299.567 259.352 299.846 259.909C299.846 260.187 299.846 260.187 299.846 260.466C299.567 260.466 299.567 260.466 299.288 260.466C299.009 260.187 298.73 259.909 298.45 259.631C298.171 259.631 297.892 259.631 297.613 259.631C297.613 259.909 297.613 260.187 297.613 260.466C297.613 261.022 298.171 261.579 298.45 262.135C298.73 261.857 298.73 262.135 298.171 262.413C298.45 262.135 298.45 262.413 298.171 262.413Z" fill="#390028"/>
<path opacity="0.11" d="M323.577 253.507C323.298 253.507 323.298 253.507 323.298 253.229C323.019 252.673 322.74 252.116 322.461 251.56C322.181 251.281 321.902 251.003 321.623 251.003C321.344 251.003 320.786 251.003 320.786 251.56C320.506 251.838 320.506 252.394 320.786 252.673C320.786 252.951 320.786 252.951 320.786 253.229C320.506 253.229 320.506 253.229 320.227 253.229C319.669 252.673 319.669 251.838 319.948 251.281C320.227 250.725 321.065 250.446 321.623 250.446C322.181 250.446 322.461 250.725 322.74 251.281C323.298 251.838 323.577 252.394 323.856 253.229C323.856 253.229 323.856 253.229 323.577 253.507Z" fill="#390028"/>
<path opacity="0.11" d="M320.506 262.135C320.226 262.135 320.226 262.135 320.226 261.857C319.947 261.022 319.947 260.187 319.947 259.352C319.947 258.518 320.226 258.239 320.506 258.239C320.785 258.239 321.064 258.239 321.343 258.239C321.622 258.239 321.901 258.517 322.181 258.796C322.181 258.239 322.739 257.683 323.018 257.404C324.135 256.848 324.972 257.404 325.531 257.961C325.81 258.239 326.089 258.239 326.368 258.517C326.647 258.796 327.206 259.074 327.485 259.352C327.764 259.352 327.764 259.631 327.764 259.909C327.764 260.187 327.485 260.187 327.206 260.187C326.647 259.909 326.368 259.631 325.81 259.352C325.531 259.074 325.251 259.074 324.972 258.796C324.693 258.517 323.856 257.961 323.018 258.517C322.739 258.517 322.46 259.074 322.46 259.352C322.46 259.352 322.46 259.631 322.46 259.909C322.46 259.909 322.46 260.187 322.46 260.465C322.46 260.465 322.181 260.744 321.901 260.465C321.901 260.465 321.901 260.465 321.622 260.187C321.343 259.909 320.785 259.631 320.226 259.352H319.947C319.947 259.352 319.947 259.631 319.947 259.909C319.947 260.744 320.226 261.579 320.226 262.413C320.785 261.857 320.785 261.857 320.506 262.135C320.506 261.857 320.506 262.135 320.506 262.135Z" fill="#390028"/>
<path opacity="0.11" d="M339.77 254.9C339.491 254.9 339.491 254.9 339.491 254.622C339.491 253.787 339.491 252.952 339.491 252.117C339.491 251.561 339.77 251.004 340.329 250.726C340.887 250.448 341.445 250.448 342.004 251.004C342.283 251.282 342.562 251.282 342.562 251.561C342.841 251.282 342.841 251.004 343.12 250.726C343.679 250.169 344.516 250.169 345.354 250.169C346.75 250.448 347.587 251.561 348.425 252.395C348.425 252.674 348.425 252.674 348.425 252.952C348.145 252.952 348.145 252.952 347.866 252.952C347.308 252.117 346.47 251.282 345.354 251.004C344.795 251.004 344.237 251.004 343.679 251.282C343.4 251.561 343.12 251.839 343.12 252.395C343.12 252.674 343.12 252.674 342.841 252.674C342.562 252.674 342.562 252.674 342.562 252.395C342.283 252.117 342.004 251.561 341.725 251.282C341.445 251.004 341.166 251.004 340.887 251.004C340.608 251.004 340.608 251.561 340.329 251.839C340.05 252.674 340.05 253.23 340.329 254.065C340.05 254.622 339.77 254.9 339.77 254.9Z" fill="#390028"/>
<path opacity="0.11" d="M344.797 261.3C344.797 261.3 344.517 261.3 344.517 261.022C344.238 260.187 344.238 259.631 344.238 258.796C344.238 258.239 344.517 257.404 345.355 257.404C345.634 257.404 345.913 257.404 346.193 257.683C347.03 258.239 347.867 259.074 348.426 259.909C348.426 260.187 348.426 260.187 348.426 260.465C348.147 260.465 348.147 260.465 347.867 260.465C347.309 259.631 346.751 259.074 345.913 258.518H345.634C345.355 258.518 345.355 258.796 345.355 259.352C345.355 259.909 345.355 260.744 345.634 261.3C345.355 260.744 345.076 261.022 344.797 261.3C345.076 261.3 344.797 261.3 344.797 261.3Z" fill="#390028"/>
<path d="M355.129 246.827H292.87C287.844 246.827 283.936 242.653 283.936 237.923V232.357C283.936 227.348 288.123 223.453 292.87 223.453H355.129C360.155 223.453 364.063 227.627 364.063 232.357V237.923C364.063 242.932 359.875 246.827 355.129 246.827Z" fill="#FF7000"/>
<path d="M299.57 223.453H293.707V246.827H299.57V223.453Z" fill="#FCA25C"/>
<path d="M317.156 223.453H311.294V246.827H317.156V223.453Z" fill="#FCA25C"/>
<path d="M335.584 223.453H329.722V246.827H335.584V223.453Z" fill="#FCA25C"/>
<path d="M353.455 223.453H347.593V246.827H353.455V223.453Z" fill="#FCA25C"/>
<path d="M280.586 235.139H221.956V270.201H280.586V235.139Z" fill="#390028"/>
<path d="M251.548 245.156C267.739 245.156 280.863 240.796 280.863 235.417C280.863 230.038 267.739 225.677 251.548 225.677C235.358 225.677 222.233 230.038 222.233 235.417C222.233 240.796 235.358 245.156 251.548 245.156Z" fill="#F8F8EE"/>
<path d="M251.55 237.087C256.329 237.087 260.204 235.841 260.204 234.304C260.204 232.767 256.329 231.521 251.55 231.521C246.77 231.521 242.896 232.767 242.896 234.304C242.896 235.841 246.77 237.087 251.55 237.087Z" fill="#FF7000"/>
<path opacity="0.11" d="M244.294 231.522C244.015 231.522 244.015 231.522 244.015 231.244C244.015 230.409 244.015 229.574 244.015 228.74C244.015 228.183 244.294 227.626 244.852 227.348C245.41 227.07 246.248 227.07 246.527 227.626C246.806 227.905 247.086 227.905 247.086 228.183C247.365 227.905 247.365 227.626 247.644 227.348C248.202 226.792 249.04 226.792 249.877 226.792C251.273 227.07 252.111 228.183 252.948 229.018C252.948 229.296 252.948 229.296 252.948 229.574C252.669 229.574 252.669 229.574 252.39 229.574C251.831 228.74 250.994 227.905 249.877 227.626C249.319 227.626 248.761 227.626 248.202 227.905C247.923 228.183 247.644 228.461 247.644 229.018C247.644 229.296 247.644 229.296 247.365 229.296C247.086 229.296 247.086 229.296 247.086 229.018C246.806 228.461 246.527 228.183 246.248 227.905C245.969 227.626 245.69 227.626 245.41 227.626C245.131 227.626 245.131 228.183 244.852 228.461C244.573 229.296 244.573 229.853 244.852 230.687C244.852 231.244 244.573 231.522 244.294 231.522Z" fill="#390028"/>
<g opacity="0.11">
<path opacity="0.11" d="M236.193 231.244C235.635 231.244 235.355 230.966 235.355 230.409C235.355 229.852 235.635 229.574 236.193 229.574C236.751 229.574 237.03 229.852 237.03 230.409C237.03 230.966 236.751 231.244 236.193 231.244ZM236.193 230.409C236.193 230.409 235.914 230.409 236.193 230.409C235.914 230.687 236.472 230.687 236.193 230.409C236.472 230.409 236.193 230.409 236.193 230.409Z" fill="#390028"/>
<path opacity="0.11" d="M229.493 234.584C228.934 234.584 228.655 234.305 228.655 233.749C228.655 233.192 228.934 232.914 229.493 232.914C230.051 232.914 230.33 233.192 230.33 233.749C230.33 234.027 230.051 234.584 229.493 234.584ZM229.493 233.47C229.493 233.749 229.772 233.749 229.493 233.47C229.772 233.47 229.493 233.47 229.493 233.47Z" fill="#390028"/>
<path opacity="0.11" d="M235.633 236.253C234.796 236.253 234.237 235.696 234.237 234.862C234.237 234.027 234.796 233.47 235.633 233.47C236.471 233.47 237.029 234.027 237.029 234.862C237.029 235.696 236.471 236.253 235.633 236.253ZM235.633 234.305C235.354 234.305 235.075 234.583 235.075 234.862C235.075 235.14 235.354 235.418 235.633 235.418C235.912 235.418 236.192 235.14 236.192 234.862C236.471 234.583 235.912 234.305 235.633 234.305Z" fill="#390028"/>
</g>
<g opacity="0.11">
<path opacity="0.11" d="M270.535 234.582C269.976 234.582 269.697 234.304 269.697 233.748C269.697 233.191 269.976 232.913 270.535 232.913C271.093 232.913 271.372 233.191 271.372 233.748C271.372 234.304 270.814 234.582 270.535 234.582ZM270.535 233.469C270.535 233.469 270.256 233.748 270.535 233.469C270.256 233.748 270.535 233.748 270.535 233.469C270.535 233.748 270.535 233.469 270.535 233.469Z" fill="#390028"/>
<path opacity="0.11" d="M263.835 237.643C263.276 237.643 262.997 237.365 262.997 236.809C262.997 236.252 263.276 235.974 263.835 235.974C264.393 235.974 264.672 236.252 264.672 236.809C264.672 237.365 264.393 237.643 263.835 237.643ZM263.835 236.809C263.835 236.809 263.556 236.809 263.835 236.809C263.556 237.087 264.114 237.087 263.835 236.809C264.114 236.809 263.835 236.809 263.835 236.809Z" fill="#390028"/>
<path opacity="0.11" d="M269.976 239.591C269.138 239.591 268.58 239.034 268.58 238.199C268.58 237.365 269.138 236.808 269.976 236.808C270.813 236.808 271.372 237.365 271.372 238.199C271.372 239.034 270.813 239.591 269.976 239.591ZM269.976 237.643C269.697 237.643 269.418 237.921 269.418 238.199C269.418 238.478 269.697 238.756 269.976 238.756C270.255 238.756 270.534 238.478 270.534 238.199C270.534 237.921 270.255 237.643 269.976 237.643Z" fill="#390028"/>
</g>
<path d="M344.242 300.81H293.429C288.404 300.81 284.495 296.636 284.495 291.905V281.609C284.495 276.6 288.683 272.704 293.429 272.704H344.242C349.267 272.704 353.176 276.878 353.176 281.609V291.905C353.455 296.914 349.267 300.81 344.242 300.81Z" fill="#F8F8EE"/>
<path opacity="0.11" d="M297.335 291.628C297.335 291.628 297.056 291.628 297.335 291.628C296.498 290.793 295.66 289.68 295.66 288.845C295.66 288.289 295.939 287.732 296.219 287.175C296.498 286.897 296.777 286.619 297.335 286.897C297.614 286.897 298.173 287.175 298.173 287.454C298.173 287.175 298.173 286.897 298.452 286.897C299.01 286.062 300.127 286.062 300.964 286.341C301.523 286.619 301.802 286.897 302.081 287.454C302.36 287.732 302.639 288.01 303.198 288.289C303.477 288.289 303.477 288.567 303.477 288.845C303.477 289.123 303.198 289.123 302.919 289.123C302.36 288.845 302.081 288.567 301.802 288.01C301.523 287.732 301.244 287.454 300.685 287.175C300.127 286.897 299.289 286.897 299.01 287.454C298.731 287.732 298.731 288.289 298.731 288.845C298.731 289.123 298.731 289.123 298.452 289.123C298.173 289.123 298.173 289.123 298.173 288.845C297.894 288.289 297.614 287.732 297.056 287.732C296.777 287.732 296.777 287.732 296.498 288.01C296.218 288.289 296.219 288.567 296.219 289.123C296.219 289.958 296.777 290.793 297.335 291.35C297.614 291.071 297.614 291.35 297.335 291.628C297.614 291.628 297.335 291.628 297.335 291.628Z" fill="#390028"/>
<path opacity="0.11" d="M293.428 296.08C293.428 296.08 293.149 296.08 293.428 296.08C292.591 295.524 292.311 294.689 292.032 294.133C292.032 293.576 292.032 293.298 292.311 292.741C292.59 292.185 293.428 292.185 293.986 292.463C294.545 292.741 294.824 293.019 295.103 293.576C295.103 293.854 295.103 293.854 295.103 294.133C294.824 294.133 294.824 294.133 294.545 294.133C294.266 293.854 293.986 293.576 293.707 293.298C293.428 293.298 293.149 293.298 292.87 293.298C292.87 293.576 292.87 293.854 292.87 294.133C292.87 294.689 293.428 295.246 293.707 295.802C293.707 295.524 293.707 295.802 293.428 296.08C293.707 296.08 293.428 296.08 293.428 296.08Z" fill="#390028"/>
<path opacity="0.11" d="M318.556 287.174C318.277 287.174 318.277 287.174 318.277 286.896C317.997 286.34 317.718 285.783 317.439 285.226C317.16 284.948 316.881 284.67 316.602 284.67C316.322 284.67 315.764 284.67 315.764 285.226C315.485 285.505 315.485 286.061 315.764 286.339C315.764 286.618 315.764 286.618 315.764 286.896C315.485 286.896 315.485 286.896 315.206 286.896C314.647 286.34 314.647 285.505 314.927 284.948C315.206 284.392 316.043 284.113 316.602 284.113C317.16 284.113 317.439 284.392 317.718 284.948C318.277 285.505 318.556 286.061 318.835 286.896C319.114 286.896 319.114 287.174 318.556 287.174C318.835 287.174 318.835 287.174 318.556 287.174Z" fill="#390028"/>
<path opacity="0.11" d="M315.481 295.802C315.202 295.802 315.202 295.802 315.202 295.524C314.923 294.689 314.923 293.854 314.923 293.019C314.923 292.185 315.202 291.906 315.481 291.906C315.76 291.906 316.04 291.906 316.319 291.906C316.598 291.906 316.877 292.184 317.156 292.463C317.156 291.906 317.714 291.35 317.994 291.071C319.11 290.515 319.948 291.071 320.506 291.628C320.785 291.906 321.065 291.906 321.344 292.184C321.623 292.463 322.181 292.741 322.46 293.019C322.74 293.019 322.74 293.298 322.74 293.576C322.74 293.854 322.46 293.854 322.181 293.854C321.623 293.576 321.344 293.298 320.785 293.019C320.506 292.741 320.227 292.741 319.948 292.463C319.669 292.184 318.831 291.628 317.994 292.184C317.714 292.184 317.435 292.741 317.435 293.019C317.435 293.019 317.435 293.298 317.435 293.576C317.435 293.576 317.435 293.854 317.435 294.132C317.435 294.132 317.156 294.411 316.877 294.132C316.877 294.132 316.877 294.132 316.598 293.854C316.319 293.576 315.76 293.298 315.202 293.019C314.923 293.019 314.923 293.019 314.923 293.019C314.923 293.019 314.923 293.298 314.923 293.576C314.923 294.411 315.202 295.245 315.202 296.08C316.039 295.524 315.76 295.524 315.481 295.802C315.76 295.802 315.481 295.802 315.481 295.802Z" fill="#390028"/>
<path opacity="0.11" d="M334.748 288.567C334.469 288.567 334.469 288.567 334.469 288.289C334.469 287.454 334.469 286.619 334.469 285.784C334.469 285.228 334.748 284.671 335.306 284.393C335.865 284.115 336.702 284.115 336.981 284.671C337.26 284.949 337.54 284.949 337.54 285.228C337.819 284.949 337.819 284.671 338.098 284.393C338.656 283.836 339.494 283.836 340.331 283.836C341.727 284.115 342.565 285.228 343.402 286.063C343.402 286.341 343.402 286.341 343.402 286.619C343.123 286.619 343.123 286.619 342.844 286.619C342.285 285.784 341.448 284.949 340.331 284.671C339.773 284.671 339.215 284.671 338.656 284.949C338.377 285.228 338.098 285.506 338.098 286.063C338.098 286.341 338.098 286.341 337.819 286.341C337.54 286.341 337.54 286.341 337.54 286.063C337.26 285.506 336.981 285.228 336.702 284.949C336.423 284.671 336.144 284.671 335.865 284.671C335.585 284.671 335.585 285.228 335.306 285.506C335.027 286.341 335.027 286.897 335.306 287.732C335.306 288.289 335.027 288.567 334.748 288.567Z" fill="#390028"/>
<path opacity="0.11" d="M340.053 294.967C340.053 294.967 339.774 294.967 339.774 294.689C339.495 293.854 339.495 293.019 339.495 292.463C339.495 291.906 339.774 291.071 340.612 291.071C340.891 291.071 341.17 291.071 341.449 291.35C342.287 291.906 343.124 292.741 343.683 293.576C343.683 293.854 343.683 293.854 343.683 294.132C343.403 294.132 343.403 294.132 343.124 294.132C342.566 293.298 342.008 292.741 341.17 292.185H340.891C340.612 292.185 340.612 292.463 340.612 293.019C340.612 293.576 340.612 294.411 340.891 294.967C340.333 294.689 340.333 294.689 340.053 294.967Z" fill="#390028"/>
<path d="M350.104 280.499H287.844C282.819 280.499 278.91 276.325 278.91 271.594V266.029C278.91 261.02 283.098 257.124 287.844 257.124H350.104C355.129 257.124 359.038 261.298 359.038 266.029V271.594C359.317 276.603 355.129 280.499 350.104 280.499Z" fill="#FF7000"/>
<path d="M294.822 257.121H288.96V280.496H294.822V257.121Z" fill="#FCA25C"/>
<path d="M312.135 257.121H306.272V280.496H312.135V257.121Z" fill="#FCA25C"/>
<path d="M330.562 257.121H324.699V280.496H330.562V257.121Z" fill="#FCA25C"/>
<path d="M348.708 257.121H342.846V280.496H348.708V257.121Z" fill="#FCA25C"/>
<path d="M276.12 261.576H217.49V296.638H276.12V261.576Z" fill="#390028"/>
<path d="M246.805 271.315C262.995 271.315 276.12 266.954 276.12 261.575C276.12 256.196 262.995 251.836 246.805 251.836C230.615 251.836 217.49 256.196 217.49 261.575C217.49 266.954 230.615 271.315 246.805 271.315Z" fill="#F8F8EE"/>
<path d="M246.806 263.523C251.585 263.523 255.46 262.277 255.46 260.74C255.46 259.203 251.585 257.958 246.806 257.958C242.026 257.958 238.151 259.203 238.151 260.74C238.151 262.277 242.026 263.523 246.806 263.523Z" fill="#FF7000"/>
<path opacity="0.11" d="M239.546 257.958C239.267 257.958 239.267 257.958 239.267 257.679C239.267 256.845 239.267 256.01 239.267 255.175C239.267 254.619 239.546 254.062 240.104 253.784C240.663 253.505 241.5 253.505 241.779 254.062C242.058 254.34 242.338 254.34 242.338 254.618C242.617 254.34 242.617 254.062 242.896 253.784C243.454 253.227 244.292 253.227 245.129 253.227C246.525 253.505 247.363 254.619 248.2 255.453C248.2 255.732 248.2 255.732 248.2 256.01C247.921 256.01 247.921 256.01 247.642 256.01C247.083 255.175 246.246 254.34 245.129 254.062C244.571 254.062 244.012 254.062 243.454 254.34C243.175 254.618 242.896 254.897 242.896 255.453C242.896 255.732 242.896 255.732 242.617 255.732C242.337 255.732 242.338 255.732 242.338 255.453C242.058 255.175 241.779 254.618 241.5 254.34C241.221 254.062 240.942 254.062 240.662 254.062C240.383 254.062 240.383 254.618 240.104 254.897C239.825 255.732 239.825 256.288 240.104 257.123C240.104 257.679 239.825 257.958 239.546 257.958C239.825 257.958 239.825 257.958 239.546 257.958Z" fill="#390028"/>
<g opacity="0.11">
<path opacity="0.11" d="M231.447 257.682C230.889 257.682 230.609 257.404 230.609 256.847C230.609 256.291 230.889 256.013 231.447 256.013C232.005 256.013 232.284 256.291 232.284 256.847C232.284 257.404 232.005 257.682 231.447 257.682ZM231.447 256.847C231.447 257.126 231.726 257.126 231.447 256.847C231.726 256.847 231.447 256.847 231.447 256.847Z" fill="#390028"/>
<path opacity="0.11" d="M224.747 261.022C224.188 261.022 223.909 260.744 223.909 260.187C223.909 259.631 224.188 259.352 224.747 259.352C225.305 259.352 225.584 259.631 225.584 260.187C225.584 260.465 225.305 261.022 224.747 261.022ZM224.747 259.909C224.747 260.187 225.026 260.187 224.747 259.909C225.026 259.909 225.026 259.909 224.747 259.909Z" fill="#390028"/>
<path opacity="0.11" d="M230.888 262.691C230.051 262.691 229.492 262.134 229.492 261.299C229.492 260.465 230.051 259.908 230.888 259.908C231.726 259.908 232.284 260.465 232.284 261.299C232.284 262.134 231.726 262.691 230.888 262.691ZM230.888 260.743C230.609 260.743 230.33 261.021 230.33 261.299C230.33 261.578 230.609 261.856 230.888 261.856C231.167 261.856 231.446 261.578 231.446 261.299C231.726 261.021 231.446 260.743 230.888 260.743Z" fill="#390028"/>
</g>
<g opacity="0.11">
<path opacity="0.11" d="M265.788 261.022C265.229 261.022 264.95 260.743 264.95 260.187C264.95 259.63 265.229 259.352 265.788 259.352C266.346 259.352 266.625 259.63 266.625 260.187C266.625 260.465 266.346 261.022 265.788 261.022ZM265.788 259.909C265.788 259.909 265.509 259.909 265.788 259.909C265.509 260.187 266.067 260.187 265.788 259.909C266.067 259.909 265.788 259.909 265.788 259.909Z" fill="#390028"/>
<path opacity="0.11" d="M259.091 264.083C258.533 264.083 258.254 263.804 258.254 263.248C258.254 262.691 258.533 262.413 259.091 262.413C259.65 262.413 259.929 262.691 259.929 263.248C259.929 263.804 259.65 264.083 259.091 264.083ZM259.091 263.248C259.091 263.526 259.371 263.526 259.091 263.248C259.371 263.248 259.371 263.248 259.091 263.248Z" fill="#390028"/>
<path opacity="0.11" d="M265.232 266.031C264.394 266.031 263.836 265.474 263.836 264.639C263.836 263.805 264.394 263.248 265.232 263.248C266.069 263.248 266.628 263.805 266.628 264.639C266.628 265.474 266.069 266.031 265.232 266.031ZM265.232 264.083C264.953 264.083 264.673 264.361 264.673 264.639C264.673 264.918 264.953 265.196 265.232 265.196C265.511 265.196 265.79 264.918 265.79 264.639C266.069 264.361 265.79 264.083 265.232 264.083Z" fill="#390028"/>
</g>
<path d="M160.532 246.548L141.547 279.384C135.125 290.515 143.222 304.428 156.065 304.428H194.035C206.877 304.428 214.974 290.515 208.552 279.384L189.567 246.548C183.146 235.417 166.953 235.417 160.532 246.548Z" fill="white"/>
<path opacity="0.11" d="M150.759 276.324C149.922 275.489 149.084 274.376 149.084 273.541C149.084 272.985 149.363 272.428 149.642 271.872C149.922 271.593 150.201 271.315 150.759 271.593C151.038 271.593 151.597 271.872 151.597 272.15C151.597 271.872 151.597 271.593 151.876 271.593C152.434 270.758 153.551 270.758 154.388 271.037C154.947 271.315 155.226 271.593 155.505 272.15C155.784 272.428 156.063 272.706 156.622 272.985C156.901 272.985 156.901 273.263 156.901 273.541C156.901 273.82 156.622 273.819 156.342 273.819C155.784 273.541 155.505 273.263 155.226 272.706C154.947 272.428 154.667 272.15 154.109 271.872C153.551 271.593 152.713 271.593 152.434 272.15C152.155 272.428 152.155 272.985 152.155 273.541C152.155 273.82 152.155 273.819 151.876 273.819C151.597 273.819 151.597 273.82 151.597 273.541C151.317 272.985 151.038 272.428 150.48 272.428C150.201 272.428 150.201 272.428 149.921 272.706C149.642 272.985 149.642 273.263 149.642 273.819C149.642 274.654 150.201 275.489 150.759 276.046C151.317 275.767 151.317 276.046 150.759 276.324C151.038 276.324 151.038 276.324 150.759 276.324Z" fill="#390028"/>
<path opacity="0.11" d="M146.852 286.341C146.014 285.785 145.735 284.95 145.456 284.393C145.456 283.837 145.456 283.559 145.735 283.002C146.014 282.445 146.852 282.445 147.41 282.724C147.969 283.002 148.248 283.28 148.527 283.837C148.527 284.115 148.527 284.115 148.527 284.393C148.248 284.393 148.248 284.393 147.969 284.393C147.689 284.115 147.41 283.837 147.131 283.559C146.852 283.559 146.573 283.559 146.294 283.559C146.294 283.837 146.294 284.115 146.294 284.393C146.294 284.95 146.852 285.506 147.131 286.063C147.41 286.063 147.41 286.341 146.852 286.341C147.131 286.341 147.131 286.341 146.852 286.341Z" fill="#390028"/>
<path opacity="0.11" d="M172.26 271.872C171.981 271.872 171.981 271.872 171.981 271.593C171.701 271.037 171.422 270.48 171.143 269.924C170.864 269.645 170.585 269.367 170.306 269.367C170.027 269.367 169.468 269.367 169.468 269.924C169.189 270.202 169.189 270.758 169.468 271.037C169.468 271.315 169.468 271.315 169.468 271.593C169.189 271.593 169.189 271.593 168.91 271.593C168.352 271.037 168.351 270.202 168.631 269.645C168.91 269.089 169.747 268.811 170.306 268.811C170.864 268.811 171.143 269.089 171.422 269.645C171.981 270.202 172.26 270.758 172.539 271.593C172.539 271.593 172.539 271.872 172.26 271.872Z" fill="#390028"/>
<path opacity="0.11" d="M169.188 286.065C168.909 286.065 168.909 286.064 168.909 285.786C168.63 284.951 168.63 284.117 168.63 283.282C168.63 282.447 168.909 282.169 169.188 282.169C169.467 282.169 169.747 282.169 170.026 282.169C170.305 282.169 170.584 282.447 170.863 282.725C170.863 282.169 171.422 281.612 171.701 281.334C172.818 280.777 173.655 281.334 174.213 281.89C174.492 282.169 174.772 282.169 175.051 282.447C175.33 282.725 175.888 283.004 176.167 283.282C176.447 283.282 176.447 283.56 176.447 283.838C176.447 284.117 176.168 284.117 175.888 284.117C175.33 283.838 175.051 283.56 174.493 283.282C174.213 283.004 173.934 283.003 173.655 282.725C173.376 282.447 172.538 281.89 171.701 282.447C171.422 282.447 171.142 283.004 171.142 283.282C171.142 283.282 171.142 283.56 171.142 283.838C171.142 283.838 171.142 284.117 171.142 284.395C171.142 284.395 170.863 284.673 170.584 284.395C170.584 284.395 170.584 284.395 170.305 284.117C170.026 283.838 169.467 283.56 168.909 283.282H168.63C168.63 283.282 168.63 283.56 168.63 283.838C168.63 284.673 168.909 285.508 168.909 286.343C169.467 285.786 169.467 286.065 169.188 286.065Z" fill="#390028"/>
<path opacity="0.11" d="M178.12 253.506C177.841 253.506 177.841 253.505 177.841 253.227C177.841 252.392 177.841 251.558 177.841 250.723C177.841 250.166 178.12 249.61 178.678 249.331C179.237 249.053 180.074 249.053 180.353 249.61C180.633 249.888 180.912 249.888 180.912 250.166C181.191 249.888 181.191 249.61 181.47 249.331C182.028 248.775 182.866 248.775 183.703 248.775C185.099 249.053 185.937 250.166 186.774 251.001C186.774 251.279 186.774 251.279 186.774 251.558C186.495 251.558 186.495 251.558 186.216 251.558C185.658 250.723 184.82 249.888 183.703 249.61C183.145 249.61 182.587 249.61 182.028 249.888C181.749 250.166 181.47 250.445 181.47 251.001C181.47 251.279 181.47 251.279 181.191 251.279C180.912 251.279 180.912 251.279 180.912 251.001C180.633 250.723 180.353 250.166 180.074 249.888C179.795 249.61 179.516 249.61 179.237 249.61C178.957 249.61 178.958 250.166 178.678 250.445C178.399 251.279 178.399 251.836 178.678 252.671C178.399 253.227 178.399 253.506 178.12 253.506Z" fill="#390028"/>
<path opacity="0.11" d="M193.477 285.229C193.477 285.229 193.198 285.229 193.198 284.951C192.919 284.116 192.919 283.281 192.919 282.725C192.919 282.168 193.198 281.333 194.036 281.333C194.315 281.333 194.594 281.333 194.873 281.612C195.711 282.168 196.548 283.003 197.106 283.838C197.106 284.116 197.106 284.116 197.106 284.394C196.827 284.394 196.827 284.394 196.548 284.394C195.99 283.56 195.431 283.003 194.594 282.446H194.315C194.036 282.446 194.036 282.725 194.036 283.281C194.036 283.838 194.036 284.673 194.315 285.229C194.036 284.951 193.756 285.229 193.477 285.229C193.756 285.229 193.477 285.229 193.477 285.229Z" fill="#390028"/>
<path opacity="0.11" d="M192.08 304.707H157.739C157.46 304.707 157.46 304.428 157.46 304.428V274.653C157.46 269.088 161.927 264.636 167.511 264.636H182.308C187.892 264.636 192.359 269.088 192.359 274.653V304.428C192.638 304.707 192.359 304.707 192.08 304.707ZM158.018 304.15H191.8V274.653C191.8 269.366 187.613 265.192 182.308 265.192H167.511C162.206 265.192 158.018 269.366 158.018 274.653V304.15Z" fill="#390028"/>
<path d="M192.079 304.429H157.738V274.654C157.738 269.367 162.205 264.914 167.51 264.914H182.307C187.612 264.914 192.079 269.367 192.079 274.654V304.429Z" fill="#390028"/>
<g opacity="0.11">
<path opacity="0.11" d="M170.024 253.226C169.466 253.226 169.187 252.948 169.187 252.392C169.187 251.835 169.466 251.557 170.024 251.557C170.582 251.557 170.861 251.835 170.861 252.392C170.861 252.948 170.303 253.226 170.024 253.226ZM170.024 252.113C169.745 252.113 169.745 252.392 170.024 252.113C169.745 252.67 170.024 252.67 170.024 252.113C170.024 252.392 170.024 252.113 170.024 252.113Z" fill="#390028"/>
<path opacity="0.11" d="M163.324 256.288C162.766 256.288 162.486 256.009 162.486 255.453C162.486 254.896 162.766 254.618 163.324 254.618C163.882 254.618 164.161 254.896 164.161 255.453C164.161 256.009 163.603 256.288 163.324 256.288ZM163.324 255.453C163.324 255.453 163.045 255.453 163.324 255.453C163.045 255.731 163.324 255.731 163.324 255.453Z" fill="#390028"/>
<path opacity="0.11" d="M169.465 258.236C168.628 258.236 168.069 257.679 168.069 256.844C168.069 256.009 168.628 255.453 169.465 255.453C170.303 255.453 170.861 256.009 170.861 256.844C170.861 257.679 170.024 258.236 169.465 258.236ZM169.465 256.288C169.186 256.288 168.907 256.566 168.907 256.844C168.907 257.123 169.186 257.401 169.465 257.401C169.744 257.401 170.024 257.123 170.024 256.844C170.024 256.566 169.744 256.288 169.465 256.288Z" fill="#390028"/>
</g>
<g opacity="0.11">
<path opacity="0.11" d="M202.689 287.731C202.41 287.731 202.41 287.731 202.131 287.453C201.851 287.175 201.852 287.175 201.852 286.897C201.852 286.618 201.851 286.34 202.131 286.34C202.41 286.062 202.41 286.062 202.689 286.062C202.968 286.062 203.247 286.062 203.247 286.34C203.527 286.618 203.527 286.618 203.527 286.897C203.527 287.175 203.527 287.453 203.247 287.453C202.968 287.731 202.689 287.731 202.689 287.731ZM202.689 286.897C202.41 286.897 202.41 286.897 202.689 286.897C202.41 286.897 202.41 286.897 202.689 286.897C202.41 286.897 202.41 286.897 202.689 286.897C202.41 287.175 202.689 287.175 202.689 286.897Z" fill="#390028"/>
<path opacity="0.11" d="M195.431 286.063C195.152 286.063 195.152 286.063 194.872 285.785C194.593 285.506 194.593 284.95 194.872 284.671C195.152 284.393 195.71 284.393 195.989 284.671C196.268 284.95 196.268 284.95 196.268 285.228C196.268 285.506 196.268 285.785 195.989 285.785C195.989 285.785 195.71 286.063 195.431 286.063ZM195.431 284.95C195.152 285.228 195.152 285.228 195.431 284.95C195.431 285.228 195.431 285.228 195.431 284.95C195.431 285.228 195.431 285.228 195.431 284.95C195.71 285.228 195.71 284.95 195.431 284.95Z" fill="#390028"/>
<path opacity="0.11" d="M199.337 291.351C199.058 291.351 198.779 291.351 198.5 291.073C198.221 290.794 197.941 290.516 197.941 290.238C197.941 289.96 197.942 289.403 198.221 289.403C198.779 288.846 199.616 288.846 200.175 289.125C200.454 289.403 200.733 289.681 200.733 289.96C200.733 290.238 200.733 290.794 200.454 290.794C199.896 291.351 199.616 291.351 199.337 291.351ZM199.337 289.403C199.058 289.403 199.058 289.403 198.779 289.681C198.779 289.681 198.5 289.96 198.5 290.238C198.5 290.516 198.5 290.516 198.779 290.794C199.058 291.073 199.337 291.073 199.617 290.794C199.617 290.794 199.896 290.516 199.896 290.238C199.896 289.96 199.896 289.96 199.617 289.681C199.617 289.403 199.337 289.403 199.337 289.403Z" fill="#390028"/>
</g>
<path d="M350.663 312.22H149.366C139.874 312.22 132.057 304.429 132.057 294.967H368.252C367.972 304.429 360.155 312.22 350.663 312.22Z" fill="#CC3E3E"/>
</svg>
