<svg width="414" height="349" viewBox="0 0 414 349" fill="none" xmlns="http://www.w3.org/2000/svg">
<g opacity="0.61">
<g opacity="0.61">
<g opacity="0.61">
<g opacity="0.41">
<path opacity="0.41" d="M2.11005 246.158C-0.659923 242.89 -0.659862 237.861 1.85829 235.095C4.37645 232.329 10.6718 230.569 13.4418 233.838C16.2117 237.107 12.1827 241.884 11.4273 245.907C9.91636 251.439 4.88002 249.427 2.11005 246.158Z" fill="#FF9455"/>
</g>
<g opacity="0.41">
<path opacity="0.41" d="M410.808 197.63C414.334 200.648 415.089 206.431 412.319 210.454C409.801 214.477 403.002 218.248 399.728 215.231C396.203 212.214 400.232 205.676 400.735 200.648C401.491 193.607 407.283 194.613 410.808 197.63Z" fill="#FF9455"/>
</g>
<g opacity="0.41">
<path opacity="0.41" d="M211.369 46.0136C215.146 41.4878 222.449 39.9791 227.989 42.9964C233.529 46.0137 238.565 54.3111 235.04 58.837C231.263 63.3629 222.701 59.0885 216.154 58.5856C206.837 58.3341 207.592 50.791 211.369 46.0136Z" fill="#FF9455"/>
</g>
</g>
<g opacity="0.28">
<g opacity="0.28">
<g opacity="0.28">
<path opacity="0.28" d="M26.5365 314.047C22.5074 290.915 28.8028 271.051 30.5656 248.422C32.0764 227.05 25.5293 208.946 22.0038 188.328C18.7302 170.224 19.9893 149.355 23.7665 131.503C29.3064 107.113 41.8973 84.4839 59.7762 70.6548C87.9795 49.0311 125.5 51.7969 156.725 66.3803C169.82 72.6663 182.41 80.7123 196.26 82.9753C216.657 85.9925 236.551 75.6836 256.192 69.3976C283.137 60.8487 312.851 60.3458 338.284 73.672C367.243 88.7584 387.64 123.205 385.374 160.921C384.367 178.019 378.827 194.865 380.589 211.963C382.604 229.312 391.166 243.644 395.698 259.988C399.979 274.823 401.49 294.686 398.972 312.79C396.957 326.871 385.122 337.431 370.768 337.431H54.488C40.89 337.18 29.0546 327.625 26.5365 314.047Z" fill="#FF9455"/>
</g>
</g>
</g>
<g opacity="0.66">
<g opacity="0.66">
<g opacity="0.47">
<path opacity="0.47" d="M366.313 205.549C364.732 184.728 356.511 163.907 342.282 149.08C320.149 125.735 286.632 120.056 257.227 125.419C244.895 127.627 232.564 131.729 220.232 130.467C201.893 128.574 185.767 116.27 169.009 106.806C146.243 94.1874 120 87.5625 95.969 92.9255C68.4604 99.2349 46.0109 122.264 43.1651 153.181C41.9004 167.061 54.2318 191.984 50.4375 205.234C46.327 218.799 17.5537 259.81 18.186 291.357C18.8184 318.173 23.8774 328.899 31.1498 341.517C33.3632 345.619 37.7899 348.142 42.5327 348.142H325.84H332.796C338.488 348.142 343.547 344.357 345.444 338.994C349.555 326.69 351.452 315.018 345.76 297.982C340.385 280.947 355.246 267.066 360.937 251.608C365.996 237.727 367.577 221.007 366.313 205.549Z" fill="#FF5F00"/>
</g>
</g>
</g>
</g>
</g>
<path d="M106.185 169.667C142.726 169.667 172.349 140.089 172.349 103.602C172.349 67.1157 142.726 37.5376 106.185 37.5376C69.644 37.5376 40.0215 67.1157 40.0215 103.602C40.0215 140.089 69.644 169.667 106.185 169.667Z" fill="#F9B361"/>
<path d="M106.186 157.442C135.966 157.442 160.107 133.337 160.107 103.602C160.107 73.8672 135.966 49.7622 106.186 49.7622C76.4068 49.7622 52.2656 73.8672 52.2656 103.602C52.2656 133.337 76.4068 157.442 106.186 157.442Z" fill="white"/>
<path d="M126.504 67.1897C125.722 66.9296 125.462 65.8893 125.983 65.109L129.37 59.1268C129.63 58.3465 130.672 58.0864 131.454 58.6066C132.236 58.8667 132.496 59.907 131.975 60.6873L128.588 66.6696C128.067 67.1898 127.025 67.4498 126.504 67.1897Z" fill="#FD4932"/>
<path d="M81.4396 148.86C80.658 148.6 80.3975 147.56 80.9185 146.78L84.3054 140.797C84.5659 140.017 85.608 139.757 86.3896 140.277C87.1711 140.537 87.4317 141.578 86.9106 142.358L83.5238 148.34C83.0027 148.86 82.2212 149.121 81.4396 148.86Z" fill="#FD4932"/>
<path d="M142.916 123.631C143.176 122.851 144.218 122.591 145 123.111L150.992 126.492C151.773 126.752 152.034 127.793 151.513 128.573C151.252 129.353 150.21 129.613 149.429 129.093L143.437 125.712C142.655 125.452 142.395 124.411 142.916 123.631Z" fill="#FD4932"/>
<path d="M61.1227 78.8939C61.3832 78.1136 62.4252 77.8535 63.2068 78.3737L69.1989 81.7549C69.9804 82.015 70.241 83.0554 69.7199 83.8357C69.4594 84.616 68.4173 84.8761 67.6358 84.3559L61.6437 80.9746C60.8621 80.4544 60.6016 79.414 61.1227 78.8939Z" fill="#FD4932"/>
<path d="M148.125 91.6392C147.865 90.8589 148.386 90.0786 149.167 89.8185L152.554 88.7781C153.336 88.518 154.117 89.0382 154.378 89.8185C154.638 90.5988 154.117 91.3791 153.336 91.6392L149.949 92.6796C149.167 92.6796 148.386 92.4195 148.125 91.6392Z" fill="#FD4932"/>
<path d="M58.2572 117.648C57.9967 116.868 58.5177 116.087 59.2993 115.827L63.4677 114.527C64.2493 114.267 65.0308 114.787 65.2913 115.567C65.5519 116.348 65.0308 117.128 64.2493 117.388L60.0809 118.688C59.2993 118.688 58.2572 118.428 58.2572 117.648Z" fill="#FD4932"/>
<path d="M118.43 145.479C119.212 145.219 119.993 145.739 120.254 146.52L121.296 149.901C121.556 150.681 121.035 151.461 120.254 151.722C119.472 151.982 118.691 151.462 118.43 150.681L117.388 147.3C117.128 146.52 117.649 145.739 118.43 145.479Z" fill="#FD4932"/>
<path d="M92.3834 55.7454C93.1649 55.4853 93.9465 56.0055 94.207 56.7858L95.5096 60.9473C95.7701 61.7276 95.2491 62.5079 94.4675 62.768C93.686 63.0281 92.9044 62.5079 92.6438 61.7276L91.3412 57.5661C91.0807 56.7858 91.6018 55.7454 92.3834 55.7454Z" fill="#FD4932"/>
<path d="M106.709 103.342C105.927 103.602 104.885 103.081 104.625 102.301L97.0707 75.5112C96.8102 74.7309 97.3312 73.6906 98.1126 73.4305C98.8941 73.1704 99.9361 73.6905 100.197 74.4708L107.751 101.261C108.011 102.301 107.49 103.342 106.709 103.342Z" fill="#FD4932"/>
<path d="M105.408 105.164C105.147 104.383 105.668 103.343 106.45 103.083L128.851 96.5804C129.633 96.3203 130.675 96.8405 130.935 97.6208C131.196 98.4011 130.675 99.4414 129.893 99.7015L107.491 106.204C106.45 106.464 105.668 105.944 105.408 105.164Z" fill="#FD4932"/>
<path d="M106.188 109.326C109.353 109.326 111.919 106.764 111.919 103.603C111.919 100.443 109.353 97.8813 106.188 97.8813C103.023 97.8813 100.457 100.443 100.457 103.603C100.457 106.764 103.023 109.326 106.188 109.326Z" fill="#F9B361"/>
<path opacity="0.3" d="M286.444 25.0522C285.403 25.0522 284.621 25.0523 283.579 25.3124C301.292 26.6128 315.358 41.4384 315.358 59.6452C315.358 75.5111 291.654 100.48 283.579 108.543C285.142 110.364 286.444 111.144 286.444 111.144C286.444 111.144 321.089 78.6322 321.089 59.6452C321.089 40.398 305.46 25.0522 286.444 25.0522Z" fill="white"/>
<path d="M285.663 38.5768C274.984 38.5768 266.127 47.4201 266.127 58.0841C266.127 68.748 274.984 77.5913 285.663 77.5913C296.343 77.5913 305.2 68.748 305.2 58.0841C305.2 47.16 296.343 38.5768 285.663 38.5768Z" fill="white"/>
<path d="M344.274 337.431C365.565 337.431 382.826 320.196 382.826 298.937C382.826 277.677 365.565 260.442 344.274 260.442C322.982 260.442 305.722 277.677 305.722 298.937C305.722 320.196 322.982 337.431 344.274 337.431Z" fill="#390028"/>
<path d="M344.273 321.826C356.357 321.826 366.153 312.044 366.153 299.978C366.153 287.911 356.357 278.13 344.273 278.13C332.188 278.13 322.392 287.911 322.392 299.978C322.392 312.044 332.188 321.826 344.273 321.826Z" fill="white"/>
<path d="M290.873 244.316H342.71C364.33 244.316 381.783 261.742 381.783 283.33H290.612V244.316H290.873Z" fill="#DA4D4D"/>
<path d="M327.863 218.046L296.083 174.87C293.218 171.229 291.395 166.807 290.092 162.385L289.832 161.865L299.47 159.524C300.251 159.264 300.772 158.484 300.512 157.964L295.041 135.855C294.26 132.994 291.395 131.434 288.79 131.954L279.152 134.295C271.337 136.116 266.388 144.179 268.211 151.981V152.242L277.589 190.736L285.143 179.031V286.452L300.251 300.237L329.426 253.939C336.198 242.235 335.417 228.45 327.863 218.046Z" fill="#FB6464"/>
<path d="M290.092 162.385L289.832 161.865L299.47 159.524C300.251 159.264 300.772 158.484 300.512 157.964L295.041 135.855C294.26 132.994 291.395 131.434 288.79 131.954L279.152 134.295C271.337 136.116 266.388 144.179 268.211 151.981V152.242L270.556 162.125L289.05 161.865C289.832 162.125 290.092 162.125 290.092 162.385Z" fill="#FF5E4D"/>
<path d="M183.814 313.241H277.069C291.916 313.241 304.159 301.016 304.159 286.191V283.329H169.487V299.195C169.748 306.998 175.999 313.241 183.814 313.241Z" fill="#FB6464"/>
<path d="M216.113 283.33L62.165 269.805C60.8626 269.805 60.0811 268.504 60.0811 267.464C60.3415 265.383 60.3416 262.522 60.8626 260.701C65.0304 238.333 84.8273 221.687 108.271 221.687H206.735C210.903 221.687 213.248 226.109 211.164 229.75L205.172 239.634C197.618 252.118 199.702 268.244 210.122 278.388L216.113 283.33Z" fill="#FB6464"/>
<path d="M216.113 221.426H108.271C85.348 221.426 66.072 237.292 61.1227 258.88C60.3413 262.262 59.8203 265.903 59.8203 269.805L140.832 276.047C140.832 276.047 128.589 270.845 128.589 242.754C128.589 221.166 158.545 221.166 158.545 221.166" fill="#DA4D4D"/>
<path opacity="0.25" d="M158.284 221.426H104.364C90.0368 221.426 63.7276 237.292 60.6017 258.88C60.0808 262.262 59.8203 265.903 59.8203 269.805L108.792 273.706C108.792 273.706 100.977 271.365 103.061 242.754C104.885 221.426 121.816 221.166 121.816 221.166" fill="#390028"/>
<path d="M57.9979 228.189H120.515C124.683 228.189 127.808 225.328 127.808 221.687V149.12C127.808 145.478 124.422 142.617 120.515 142.617H57.9979C47.8389 142.617 39.7638 150.16 39.7638 159.263V211.803C39.5033 220.646 47.8389 228.189 57.9979 228.189Z" fill="#FFD2AB"/>
<path d="M58.8227 228.965H122.892C127.163 228.965 130.366 220.765 130.366 217.286C130.366 217.286 40.136 215.298 40.4029 216.54C42.2716 223.498 49.7463 228.965 58.8227 228.965Z" fill="#DA4D4D"/>
<path d="M127.548 165.246V149.12C127.548 145.478 124.161 142.617 120.254 142.617H57.737C47.578 142.617 39.5029 150.16 39.5029 159.263V165.766L127.548 165.246Z" fill="#FF7000"/>
<path d="M126.504 217.266H40.2829C39.5014 217.266 38.9805 216.746 38.9805 215.965C38.9805 215.185 39.5014 214.665 40.2829 214.665H126.504C127.286 214.665 127.807 215.185 127.807 215.965C127.807 216.746 127.286 217.266 126.504 217.266Z" fill="#FF4628"/>
<path d="M126.504 167.328H40.2829C39.5014 167.328 38.9805 166.807 38.9805 166.027C38.9805 165.247 39.5014 164.727 40.2829 164.727H126.504C127.286 164.727 127.807 165.247 127.807 166.027C127.807 166.807 127.286 167.328 126.504 167.328Z" fill="#FF4628"/>
<path d="M219.497 233.651C219.758 235.471 218.195 237.292 216.371 237.292L142.914 236.512C136.141 236.512 129.89 231.57 127.545 224.547L121.554 207.641C118.949 199.838 123.638 191.515 130.932 190.995L201.263 188.914C208.817 188.654 215.069 194.896 216.111 203.219L219.497 233.651Z" fill="#FF7000"/>
<path opacity="0.22" d="M201.004 188.915L130.673 190.996C128.849 190.996 127.026 191.776 125.724 192.816L130.412 206.341C133.017 213.624 139.009 218.306 145.781 218.306L217.415 219.086L215.592 203.22C214.81 194.897 208.559 188.655 201.004 188.915Z" fill="#390028"/>
<path d="M310.67 222.467C310.409 221.427 309.888 220.387 309.628 219.606L285.663 171.748C276.285 176.17 271.857 187.354 275.764 196.978L281.235 210.763C284.36 218.566 285.923 227.149 285.923 235.472V249.257C285.923 267.984 270.815 283.07 252.06 283.07H216.113L113.741 273.966V297.895H169.746H216.113H269.252C279.151 297.895 291.914 288.792 298.948 275.527C305.981 262.522 309.628 246.396 311.191 237.553C312.232 232.871 312.232 227.409 310.67 222.467Z" fill="#DA4D4D"/>
<path d="M299.804 159.893C303.717 158.939 305.312 151.718 303.367 143.764C301.422 135.811 296.673 130.136 292.76 131.09C288.847 132.044 287.252 139.266 289.197 147.219C291.142 155.173 295.891 160.847 299.804 159.893Z" fill="#FFD98B"/>
<path opacity="0.39" d="M296.717 147.611C298.953 147.065 299.853 142.89 298.727 138.286C297.601 133.681 294.875 130.39 292.639 130.935C290.403 131.48 289.503 135.655 290.629 140.26C291.755 144.865 294.481 148.156 296.717 147.611Z" fill="white"/>
<path d="M271.335 153.541L243.462 160.303C242.421 160.563 241.379 159.783 241.118 158.743L240.337 155.882C240.076 154.841 240.858 153.801 241.9 153.541L269.772 146.778C270.814 146.518 271.856 147.299 272.116 148.339L272.898 151.2C272.898 152.24 272.377 153.281 271.335 153.541Z" fill="#390028"/>
<path d="M274.201 157.182L270.293 158.223C268.73 158.743 266.907 157.702 266.646 155.882L264.562 147.819L271.335 146.258L274.201 157.182Z" fill="#390028"/>
<path d="M244.246 161.865C242.162 162.385 240.078 161.085 239.557 159.004L239.036 157.183C238.515 155.102 239.817 153.021 241.902 152.501C243.986 151.981 246.07 153.282 246.591 155.362L247.112 157.183C247.633 159.264 246.33 161.345 244.246 161.865Z" fill="#390028"/>
<path d="M100.978 337.43C122.27 337.43 139.53 320.195 139.53 298.936C139.53 277.676 122.27 260.441 100.978 260.441C79.6861 260.441 62.4258 277.676 62.4258 298.936C62.4258 320.195 79.6861 337.43 100.978 337.43Z" fill="#390028"/>
<path d="M100.976 321.826C113.06 321.826 122.857 312.044 122.857 299.977C122.857 287.911 113.06 278.129 100.976 278.129C88.8911 278.129 79.0947 287.911 79.0947 299.977C79.0947 312.044 88.8911 321.826 100.976 321.826Z" fill="white"/>
<path d="M161.933 309.08H111.92C105.929 309.08 100.979 304.658 100.979 298.936C100.979 293.214 105.929 288.792 111.92 288.792H161.933C167.925 288.792 172.874 293.214 172.874 298.936C172.874 304.398 167.925 309.08 161.933 309.08Z" fill="#F94A3D"/>
<path d="M102.019 310.38C108.349 310.38 113.48 305.256 113.48 298.936C113.48 292.615 108.349 287.492 102.019 287.492C95.6891 287.492 90.5576 292.615 90.5576 298.936C90.5576 305.256 95.6891 310.38 102.019 310.38Z" fill="#390028"/>
<path d="M344.273 311.16C350.603 311.16 355.734 306.036 355.734 299.716C355.734 293.395 350.603 288.271 344.273 288.271C337.943 288.271 332.812 293.395 332.812 299.716C332.812 306.036 337.943 311.16 344.273 311.16Z" fill="#390028"/>
<path d="M270.554 139.494C270.554 137.413 269.252 135.593 267.689 134.292L263 131.171C260.916 129.87 258.572 129.87 256.488 130.911L227.574 125.189L203.088 93.1968L186.417 119.467L209.079 146.257L247.371 146.517C251.799 148.597 256.749 151.459 258.051 151.459C262.219 151.719 265.866 148.597 266.126 144.436V143.395L266.908 144.956C267.168 145.216 267.429 145.736 267.95 145.736C269.252 146.257 270.554 145.216 270.554 143.656V139.494Z" fill="#F9A06E"/>
<path d="M222.365 115.566L196.055 136.114L172.872 111.925L205.172 88.5161L222.886 111.145C223.928 112.445 223.667 114.526 222.365 115.566Z" fill="#EE6B04"/>
<path d="M201.966 44.5442C206.278 44.7143 209.916 41.2452 210.092 36.7957C210.268 32.3461 206.915 28.6012 202.602 28.4311C198.29 28.261 194.651 31.7301 194.476 36.1796C194.3 40.6291 197.653 44.3741 201.966 44.5442Z" fill="#EA9561"/>
<path d="M204.914 33.1157C204.914 28.4339 200.225 24.2724 194.495 24.2724L182.773 24.0123C177.042 23.7522 172.614 27.6536 172.614 32.3354L173.135 55.484L169.228 80.4533C168.707 83.8346 171.311 86.6956 174.958 87.4759L183.815 88.7764C187.462 89.2966 190.848 87.2159 191.369 83.8346L193.453 71.0898C193.713 71.0898 193.974 71.0898 194.234 71.0898C200.746 70.0494 204.914 64.3273 203.091 58.6052L204.654 39.358L204.914 33.1157Z" fill="#FFAC79"/>
<path d="M196.576 62.2483C196.576 62.2483 198.4 61.7277 199.181 63.0293L196.576 62.2483Z" fill="#FFAC79"/>
<path d="M199.182 63.8081C198.921 63.8081 198.661 63.808 198.661 63.548C197.879 62.5076 196.577 62.7677 196.577 63.0278C196.316 63.0278 195.795 63.0278 195.795 62.5076C195.795 62.2475 195.795 61.7273 196.316 61.7273C196.316 61.7273 198.4 61.2071 199.703 62.7677C199.963 63.0277 199.963 63.548 199.442 63.548C199.442 63.808 199.442 63.8081 199.182 63.8081Z" fill="#FF7000"/>
<path d="M190.845 43.7803C191.366 44.0404 191.887 43.7803 192.408 43.7803C192.93 43.7803 193.711 43.5203 194.232 43.5203C194.753 43.5203 195.274 43.5202 196.056 43.2601C196.577 43.2601 197.358 43.2602 197.619 43.0001C198.14 42.74 198.14 42.2198 197.619 41.6996C197.098 41.1794 195.795 40.6592 193.972 40.6592C192.148 40.9193 191.106 41.6996 190.585 42.4799C190.064 43 190.324 43.5202 190.845 43.7803Z" fill="#390028"/>
<path d="M201.263 46.3801C201.263 47.6806 202.305 48.4609 203.347 48.4609C204.128 48.4609 204.649 48.9811 204.649 49.7614V50.0215C204.649 51.5821 203.607 52.6225 202.044 52.8826H199.96" fill="#FFAC79"/>
<path d="M200.222 53.1428C199.962 53.1428 199.701 52.8827 199.44 52.6226C199.44 52.3625 199.701 51.8423 199.962 51.8423H202.046C202.567 51.8423 203.088 51.5822 203.609 51.3221C203.869 50.8019 204.13 50.2817 204.13 49.7615V49.5014C204.13 49.2413 204.13 49.2413 203.869 48.9812C203.869 48.9812 203.609 48.7211 203.348 48.7211C201.785 48.7211 200.483 47.4206 200.483 46.1201C200.483 45.86 200.743 45.3398 201.004 45.3398C201.264 45.3398 201.525 45.5999 201.785 45.86C201.785 46.6403 202.567 47.4206 203.348 47.4206C203.869 47.4206 204.39 47.6807 204.651 47.9408C204.911 48.2009 205.172 48.7211 205.172 49.2413V49.5014C205.172 50.2817 204.911 51.3221 204.13 51.8423C203.609 52.3625 202.567 52.8826 201.785 52.8826L200.222 53.1428Z" fill="#FF7000"/>
<path d="M197.879 48.7224C197.618 47.422 196.837 45.3412 193.971 45.0811C193.45 45.0811 193.189 45.0811 192.668 45.0811C190.845 45.3412 189.542 46.9018 189.021 48.2023C188.5 49.2426 189.021 50.283 190.063 50.5431C192.929 51.0633 195.794 50.5431 197.097 50.283C197.618 50.283 197.879 49.7628 197.879 49.2426C198.139 49.2426 197.879 48.9825 197.879 48.7224Z" fill="white"/>
<path d="M197.477 51.5693C199.201 51.4822 200.534 50.1324 200.454 48.5543C200.375 46.9763 198.912 45.7675 197.188 45.8546C195.463 45.9416 194.13 47.2915 194.21 48.8696C194.29 50.4476 195.752 51.6563 197.477 51.5693Z" fill="#390028"/>
<path d="M197.359 58.0861C197.359 58.0861 192.93 58.8664 192.67 56.0054L197.359 58.0861Z" fill="#FFAC79"/>
<path d="M196.055 58.8661C195.013 58.8661 193.71 58.606 192.929 58.0858C192.408 57.5656 191.887 57.0455 191.887 56.2652C191.887 56.0051 192.147 55.4849 192.408 55.4849C192.668 55.4849 193.189 55.745 193.189 56.0051C193.189 56.5253 193.45 56.7854 193.71 57.0455C194.492 57.8258 196.576 57.5656 197.097 57.5656C197.358 57.5656 197.879 57.8257 197.879 58.0858C197.879 58.3459 197.618 58.8661 197.358 58.8661C197.358 58.8661 196.837 58.8661 196.055 58.8661Z" fill="#FF7000"/>
<path opacity="0.41" d="M181.471 66.1484C181.471 66.1484 184.597 71.8706 193.193 71.3504L192.412 76.0321C191.891 76.2922 180.95 76.0321 181.471 66.1484Z" fill="#FF7000"/>
<path d="M168.967 54.9641L172.614 61.4665L177.824 49.7622C178.605 47.9415 175.219 51.3228 174.438 49.7622L173.656 48.2016H173.396C169.228 47.6814 166.623 51.8429 168.967 54.9641Z" fill="#390028"/>
<path d="M170.791 55.4843C178.866 57.8252 180.429 46.3809 182.253 42.4794C184.337 38.0578 189.807 35.977 194.235 38.0578C201.008 40.9189 205.436 40.3987 209.864 40.1386L210.385 33.116C211.167 23.7525 204.134 15.6895 195.017 14.9092L178.345 13.6087C168.968 12.8284 160.893 19.851 160.111 28.9544C160.111 28.9544 160.111 39.0982 160.372 43.7799C160.893 53.6636 170.27 55.2242 170.791 55.4843Z" fill="#FF7000"/>
<path d="M210.645 32.8556C211.427 23.4921 204.394 15.4291 195.277 14.6488L178.605 13.3483C173.135 12.8281 167.925 15.169 164.539 19.0704C167.665 16.7296 171.833 15.4291 176.261 15.6892L192.932 16.9897C202.31 17.77 209.082 25.833 208.301 35.1965L207.78 40.1383C208.561 40.1383 209.343 40.1383 210.124 39.8782L210.645 32.8556Z" fill="#EA9561"/>
<path d="M210.124 40.6578L196.318 40.1376C193.974 40.1376 192.411 38.3169 192.411 35.9761L213.25 36.7564V37.7968C213.25 39.3574 211.687 40.6578 210.124 40.6578Z" fill="#390028"/>
<path d="M170.791 48.461C170.791 48.461 170.531 48.461 170.791 48.461C168.186 48.461 166.362 46.3802 166.362 44.0393C166.362 42.9989 166.883 41.6985 167.665 40.9182C168.447 40.1379 169.749 39.6177 170.791 39.6177C173.136 39.6177 175.22 41.6984 174.96 44.0393C174.96 46.6403 173.136 48.461 170.791 48.461ZM170.791 41.6985C170.27 41.6985 169.489 41.9585 169.228 42.4787C168.707 42.9989 168.446 43.5191 168.446 44.0393C168.446 45.3398 169.489 46.3802 170.791 46.6403C172.094 46.6403 173.136 45.5999 173.396 44.2994C173.657 42.9989 172.094 41.6985 170.791 41.6985Z" fill="white"/>
<path d="M209.08 96.5794C208.819 95.279 208.298 93.9785 207.777 92.678C205.172 86.6958 199.702 83.0544 194.232 81.2337C189.282 79.6731 183.812 79.4131 178.603 79.4131C174.695 79.4131 171.048 78.1126 167.141 78.3726C159.326 78.8928 151.251 84.0948 148.386 91.6376C147.344 94.7588 146.823 98.14 146.563 101.261C145 120.248 137.706 154.321 136.925 173.568C136.404 184.752 144.479 190.735 144.218 201.919V192.555L208.559 196.197L209.08 182.932C209.601 168.106 209.861 153.02 210.121 138.195C210.121 130.652 210.382 123.369 210.382 115.827C210.121 109.844 210.642 103.082 209.08 96.5794Z" fill="#FF7000"/>
<path opacity="0.27" d="M180.948 150.679C176.519 147.038 161.411 132.472 157.764 120.768L156.722 121.548C156.722 122.068 156.722 122.589 156.462 123.109C157.504 133.253 166.36 143.396 171.831 148.858C174.436 151.199 177.822 151.98 180.948 150.679Z" fill="#353535"/>
<path opacity="0.27" d="M205.173 130.393L206.997 128.832L184.855 105.683L205.173 130.393Z" fill="#353535"/>
<path d="M259.873 156.141L257.789 150.419L257.529 149.119C257.008 147.038 255.705 145.477 253.621 144.697L248.412 142.616C246.067 141.836 243.723 142.096 242.16 143.657H239.555L212.725 140.795L204.65 131.172L183.029 149.379L190.062 157.182C193.188 160.563 197.617 162.384 202.305 162.384L237.211 161.083C241.639 162.384 246.328 163.684 247.63 163.424C251.798 162.644 254.663 159.002 254.142 154.841V153.8L254.924 154.581L254.663 155.101L257.268 157.962C257.789 158.742 259.092 158.742 259.613 158.222C259.873 157.702 260.134 156.921 259.873 156.141Z" fill="#FFAC79"/>
<path opacity="0.41" d="M212.987 140.535L202.567 142.096C202.567 142.096 211.163 137.934 210.903 138.194C210.903 138.715 212.987 140.795 212.987 140.535Z" fill="#FF755F"/>
<path d="M240.86 179.55H238.515V179.29L136.144 175.388L135.883 187.613C135.362 205.82 149.428 220.645 170.007 219.345L227.054 217.784L224.188 275.266L245.027 273.185L260.656 200.098C261.177 189.173 252.321 179.81 240.86 179.55Z" fill="#390028"/>
<path d="M268.303 292.691C268.563 285.149 262.833 278.646 255.278 278.126L245.901 277.606L246.422 268.502L224.541 267.462L223.499 290.351L245.38 291.391L268.303 292.691Z" fill="#F5C017"/>
<path d="M268.36 290.424L223.35 288.214L223.184 291.591L268.194 293.801L268.36 290.424Z" fill="#F7EEE6"/>
<path d="M246.68 279.167C246.419 279.167 245.898 278.907 245.638 278.647C245.377 278.386 245.377 277.866 245.638 277.346C246.94 275.005 248.243 273.965 249.285 273.705C249.806 273.705 250.327 273.705 251.109 274.485C251.63 275.265 251.63 276.046 251.63 276.306C251.109 277.606 249.546 278.386 246.68 279.167C246.94 279.167 246.68 279.167 246.68 279.167ZM249.546 275.005C249.025 275.005 247.982 275.785 246.94 277.606C249.025 277.086 250.067 276.306 250.327 276.046C250.327 276.046 250.327 275.785 250.067 275.525C249.806 275.265 249.546 275.005 249.546 275.005Z" fill="#EAEAEA"/>
<path d="M242.251 279.946C241.209 279.946 240.428 279.686 239.907 279.166C239.385 278.906 239.125 278.126 239.125 277.085C239.125 276.045 239.907 275.525 240.167 275.265C241.47 274.744 243.293 275.265 245.899 277.085C246.42 277.345 246.68 278.126 246.42 278.646C246.159 278.906 245.899 279.166 245.638 279.166C244.596 279.686 243.293 279.946 242.251 279.946ZM241.47 276.565C241.209 276.565 241.209 276.565 240.949 276.565C240.949 276.565 240.688 276.825 240.428 277.345C240.428 277.866 240.428 278.126 240.688 278.386C241.209 278.906 243.033 278.906 245.378 278.126C243.554 276.825 242.251 276.565 241.47 276.565Z" fill="#EAEAEA"/>
<path d="M243.813 284.369C243.553 284.369 243.292 284.109 243.292 284.109C243.032 283.849 243.292 283.329 243.553 283.329C245.898 282.288 245.637 278.907 245.637 278.907C245.637 278.647 245.898 278.127 246.158 278.127C246.419 278.127 246.94 278.387 246.94 278.647C246.94 278.907 247.2 282.808 244.074 284.369C244.074 284.109 243.813 284.369 243.813 284.369Z" fill="#EAEAEA"/>
<path d="M231.053 284.108C231.053 284.108 231.053 283.848 231.053 284.108C229.49 284.108 228.447 283.588 227.666 282.547C226.884 281.507 226.363 280.466 226.363 279.166C226.363 276.565 228.708 274.744 231.313 274.744C232.616 274.744 233.658 275.264 234.439 276.305C235.221 277.345 235.742 278.386 235.742 279.686C235.742 282.027 233.658 284.108 231.053 284.108ZM231.053 276.045C229.229 276.045 227.666 277.345 227.666 279.166C227.666 279.946 227.926 280.987 228.447 281.507C228.968 282.287 230.011 282.547 230.792 282.547C232.616 282.547 234.179 281.247 234.439 279.426C234.439 278.646 234.179 277.605 233.658 277.085C232.876 276.305 232.095 276.045 231.053 276.045C231.313 276.045 231.053 276.045 231.053 276.045Z" fill="#EAEAEA"/>
<path d="M231.219 123.889L239.033 122.068C246.066 120.247 253.36 124.149 254.923 130.651C256.486 137.154 252.058 143.656 244.764 145.477L239.554 146.777C235.907 147.558 232.521 145.737 231.74 142.616L228.353 128.57C227.832 126.49 229.135 124.409 231.219 123.889Z" fill="#390028"/>
<path d="M278.627 149.639C278.106 149.639 277.845 149.379 277.585 148.859L268.728 133.773C267.166 131.172 264.04 129.872 261.174 130.392L247.889 133.773C247.108 134.033 246.587 133.513 246.327 132.733C246.066 131.952 246.587 131.432 247.369 131.172L260.653 127.791C264.821 126.75 268.989 128.571 271.073 132.212L279.929 147.298C280.19 147.818 280.19 148.599 279.408 149.119C279.148 149.639 278.888 149.639 278.627 149.639Z" fill="#390028"/>
<path d="M338.788 106.61C339.901 106.61 340.803 105.709 340.803 104.598C340.803 103.488 339.901 102.587 338.788 102.587C337.675 102.587 336.773 103.488 336.773 104.598C336.773 105.709 337.675 106.61 338.788 106.61Z" fill="#F9B361"/>
<path d="M359.436 46.7672C360.549 46.7672 361.451 45.8666 361.451 44.7557C361.451 43.6447 360.549 42.7441 359.436 42.7441C358.323 42.7441 357.421 43.6447 357.421 44.7557C357.421 45.8666 358.323 46.7672 359.436 46.7672Z" fill="#F9B361"/>
<path d="M39.881 310.777C40.9937 310.777 41.8959 309.877 41.8959 308.766C41.8959 307.655 40.9937 306.754 39.881 306.754C38.7682 306.754 37.8662 307.655 37.8662 308.766C37.8662 309.877 38.7682 310.777 39.881 310.777Z" fill="#F9B361"/>
<path d="M400.735 243.644C401.847 243.644 402.749 242.744 402.749 241.633C402.749 240.522 401.847 239.621 400.735 239.621C399.622 239.621 398.72 240.522 398.72 241.633C398.72 242.744 399.622 243.644 400.735 243.644Z" fill="#F9B361"/>
<path d="M220.938 4.02303C222.05 4.02303 222.952 3.12244 222.952 2.01152C222.952 0.90059 222.05 0 220.938 0C219.825 0 218.923 0.90059 218.923 2.01152C218.923 3.12244 219.825 4.02303 220.938 4.02303Z" fill="#F9B361"/>
<path d="M18.7296 46.0135C19.8424 46.0135 20.7445 45.1129 20.7445 44.002C20.7445 42.8911 19.8424 41.9905 18.7296 41.9905C17.6169 41.9905 16.7148 42.8911 16.7148 44.002C16.7148 45.1129 17.6169 46.0135 18.7296 46.0135Z" fill="#F9B361"/>
<path d="M338.032 176.762C339.145 176.762 340.047 175.861 340.047 174.75C340.047 173.639 339.145 172.739 338.032 172.739C336.92 172.739 336.018 173.639 336.018 174.75C336.018 175.861 336.92 176.762 338.032 176.762Z" fill="#F9B361"/>
<path d="M391.417 112.896C391.973 112.896 392.424 112.446 392.424 111.891C392.424 111.335 391.973 110.885 391.417 110.885C390.86 110.885 390.409 111.335 390.409 111.891C390.409 112.446 390.86 112.896 391.417 112.896Z" fill="#F9B361"/>
<path d="M409.296 160.418C409.853 160.418 410.304 159.967 410.304 159.412C410.304 158.857 409.853 158.406 409.296 158.406C408.74 158.406 408.289 158.857 408.289 159.412C408.289 159.967 408.74 160.418 409.296 160.418Z" fill="#F9B361"/>
<path d="M51.2115 253.702C51.7679 253.702 52.219 253.252 52.219 252.696C52.219 252.141 51.7679 251.69 51.2115 251.69C50.6551 251.69 50.2041 252.141 50.2041 252.696C50.2041 253.252 50.6551 253.702 51.2115 253.702Z" fill="#F9B361"/>
<path d="M34.3412 186.568C35.1758 186.568 35.8523 185.893 35.8523 185.059C35.8523 184.226 35.1758 183.551 34.3412 183.551C33.5066 183.551 32.8301 184.226 32.8301 185.059C32.8301 185.893 33.5066 186.568 34.3412 186.568Z" fill="#F9B361"/>
</svg>
