<svg width="374" height="333" viewBox="0 0 374 333" fill="none" xmlns="http://www.w3.org/2000/svg">
<path d="M47.2422 180.504L49.0264 178.969C50.0459 178.202 50.0459 176.922 49.2813 176.155L23.0284 142.892C22.2638 141.868 20.9894 141.868 20.2247 142.636L18.4406 144.171C17.421 144.939 17.421 146.218 18.1857 146.986L44.4385 180.249C44.9483 181.016 46.2227 181.272 47.2422 180.504Z" fill="#F9B361"/>
<path opacity="0.19" d="M48.5175 177.178L22.0098 143.659C21.5 143.148 21.5 142.636 21.5 142.124C22.0098 142.124 22.5195 142.38 23.0293 142.892L49.537 176.41C50.0468 176.922 50.0468 177.69 50.0468 178.201C49.5371 177.946 49.0273 177.69 48.5175 177.178Z" fill="#FFF6F7"/>
<path d="M64.32 172.828L66.3591 171.805C67.3786 171.293 67.8884 170.014 67.3786 168.99L49.282 130.61C48.7722 129.587 47.4978 129.075 46.4783 129.587L44.4392 130.61C43.4197 131.122 42.9099 132.401 43.4197 133.425L61.5163 171.805C62.0261 172.828 63.3005 173.34 64.32 172.828Z" fill="#F9B361"/>
<path opacity="0.19" d="M66.6171 169.758L48.2656 130.866C48.0107 130.354 48.0107 129.586 48.0107 129.331C48.5205 129.331 49.0303 129.842 49.2852 130.354L67.6367 169.246C67.8916 169.758 67.8916 170.525 67.6367 171.037C67.1269 170.781 66.872 170.269 66.6171 169.758Z" fill="#FFF6F7"/>
<path d="M46.2237 182.296L47.753 180.505C48.5176 179.737 48.5176 178.458 47.4981 177.434L16.1476 149.033C15.3829 148.265 14.1085 148.265 13.089 149.289L11.5597 151.08C10.7951 151.848 10.795 153.127 11.8146 154.15L43.1651 182.552C44.1846 183.319 45.459 183.319 46.2237 182.296Z" fill="#F9B361"/>
<path opacity="0.19" d="M46.9911 178.714L15.3857 149.801C14.876 149.289 14.6211 148.777 14.6211 148.266C15.1309 148.266 15.8955 148.266 16.4053 148.777L48.0106 177.69C48.5204 178.202 48.7753 178.714 48.7753 179.226C48.0107 179.481 47.5009 179.226 46.9911 178.714Z" fill="#FFF6F7"/>
<path d="M55.9084 175.386L57.9475 174.107C58.967 173.595 59.2219 172.316 58.4572 171.292L35.5178 135.727C35.0081 134.703 33.7336 134.448 32.7141 135.215L30.6751 136.494C29.6555 137.006 29.4007 138.286 30.1653 139.309L53.1047 174.875C53.6145 175.642 54.8889 175.898 55.9084 175.386Z" fill="#F9B361"/>
<path opacity="0.19" d="M57.4414 172.061L34.2471 135.983C33.9922 135.472 33.7373 134.704 33.7373 134.448C34.2471 134.448 34.7568 134.704 35.2666 135.472L58.4609 171.549C58.7157 172.061 58.9706 172.828 58.7158 173.34C58.4609 173.084 57.9511 172.573 57.4414 172.061Z" fill="#FFF6F7"/>
<path d="M45.2041 191.251L46.7334 189.46C47.4981 188.692 47.4981 187.413 46.4785 186.389L15.3829 157.732C14.6183 156.965 13.3439 156.965 12.3243 157.988L10.7951 159.779C10.0304 160.547 10.0304 161.826 11.0499 162.85L42.1456 191.507C43.1651 192.274 44.4395 192.274 45.2041 191.251Z" fill="#F9B361"/>
<path opacity="0.19" d="M45.9648 187.668L14.3594 158.755C13.8496 158.243 13.5947 157.732 13.5947 157.22C14.1045 157.22 14.8691 157.22 15.124 157.732L46.7294 186.645C47.2392 187.156 47.4941 187.668 47.4941 188.18C46.9843 188.436 46.4745 188.18 45.9648 187.668Z" fill="#FFF6F7"/>
<path d="M62.2822 176.667L64.3212 175.388C65.3407 174.876 65.5956 173.597 65.0859 172.573L43.166 136.24C42.6562 135.217 41.3818 134.961 40.3623 135.473L38.3232 136.752C37.3037 137.264 37.0488 138.543 37.5586 139.566L59.4785 175.9C60.2431 176.923 61.5175 177.435 62.2822 176.667Z" fill="#F9B361"/>
<path opacity="0.19" d="M64.0694 173.596L41.8946 136.751C41.6398 136.239 41.3849 135.472 41.6398 135.216C42.1495 135.216 42.6593 135.728 43.169 136.239L65.3438 173.084C65.5987 173.596 65.8536 174.364 65.5987 174.875C65.0889 174.364 64.5792 174.108 64.0694 173.596Z" fill="#FFF6F7"/>
<path d="M54.6355 181.527L56.4197 179.992C57.4393 179.224 57.4393 177.945 56.9295 177.177L31.1864 143.403C30.4217 142.379 29.1473 142.379 28.3827 142.891L26.5985 144.426C25.579 145.194 25.579 146.473 26.0888 147.241L51.8318 181.015C52.5965 182.039 53.8709 182.039 54.6355 181.527Z" fill="#F9B361"/>
<path opacity="0.19" d="M56.1611 177.945L30.1631 143.915C29.6533 143.403 29.6533 142.892 29.6533 142.38C30.1631 142.38 30.6728 142.636 31.1826 143.147L57.1806 177.178C57.6903 177.69 57.6904 178.457 57.4355 178.969C57.1806 178.969 56.6708 178.457 56.1611 177.945Z" fill="#FFF6F7"/>
<path d="M57.6897 139.565C55.1409 141.1 53.6116 143.915 53.6116 147.241C53.3567 154.405 49.0237 161.314 42.1419 165.152C36.0247 168.478 29.3978 168.734 23.7904 166.431C21.2416 165.152 18.183 165.664 15.889 167.199L14.8695 167.966C13.5951 168.99 13.0853 170.781 14.1049 171.804L26.3392 184.854L45.9651 206.347C46.7298 207.114 48.0042 207.37 48.7688 206.602L59.219 197.135C60.2385 196.112 61.5129 195.344 62.7873 194.577L76.8059 186.901C77.8254 186.389 78.0803 185.11 77.5705 184.086L69.4143 162.849L61.5129 140.844C61.0032 139.053 58.9641 138.542 57.6897 139.565Z" fill="#F94A3D"/>
<path d="M32.7161 180.249L20.4818 167.2C19.972 166.688 19.972 166.176 19.972 165.665C18.4427 165.665 16.9135 166.176 15.639 166.944L14.6195 167.711C13.3451 168.735 12.8353 170.526 13.8549 171.549L26.0892 184.599L45.7151 206.092C46.4798 206.859 47.7542 207.115 48.5188 206.347L53.1067 202.254C52.8518 202.254 52.597 201.998 52.3421 201.742L32.7161 180.249Z" fill="#FF7664"/>
<path d="M11.0518 78.1571C11.0518 78.1571 0.601634 78.413 0.09187 69.7135C-0.163012 66.3872 1.62115 63.3168 3.15045 60.7582C5.44439 56.9201 8.50296 52.5704 11.3067 49.2441C22.2666 36.4507 32.4619 30.3099 46.4804 24.4249C50.3036 22.8897 59.7343 20.5869 64.0673 22.8898C65.5966 23.6574 66.871 25.1926 67.6356 26.7278C68.1454 28.0071 68.6552 29.2864 68.4003 30.5658C67.8905 35.1714 62.7929 38.4977 59.7343 41.0563C55.4013 44.6385 51.0683 47.9648 46.4804 51.5469C36.54 59.2229 26.5996 66.6431 16.4043 74.3191C15.3848 75.0867 14.3653 75.8543 13.3457 76.6219C13.0909 76.8778 11.8164 78.1571 11.0518 78.1571Z" fill="#FFAC79"/>
<path opacity="0.25" d="M13.5977 76.3666C14.6172 75.599 15.6368 74.8314 16.6563 74.0638C26.8516 66.6436 36.792 58.9676 46.7324 51.2915C51.0654 47.9653 55.6533 44.3831 59.9862 40.801C63.0448 38.2423 68.3973 34.916 68.6522 30.3104C68.6522 29.2869 68.6522 28.2635 68.1425 27.24C63.2997 25.7048 54.8886 27.7517 51.5751 29.287C37.3017 35.1719 27.1064 41.3127 16.4014 54.1061C13.5977 57.4324 10.5391 62.038 8.24517 65.6201C6.71588 68.1788 4.93171 71.2492 5.1866 74.5755C5.1866 75.3431 5.44147 76.1107 5.69635 76.6225C8.50006 77.9018 11.5586 77.9018 11.5586 77.9018C11.8135 78.1577 13.0879 76.8783 13.5977 76.3666Z" fill="#F97762"/>
<path d="M10.5391 76.6219C10.5391 77.3895 11.0488 78.1572 11.5586 78.6689C18.1855 82.5069 57.9471 102.209 75.7889 111.164C79.3572 112.955 83.4353 109.885 82.6707 105.791C78.3377 84.8097 68.1424 36.9625 66.1034 32.3568C63.2996 26.4719 11.3037 50.0117 10.5391 76.6219Z" fill="#FFD98B"/>
<path d="M10.7939 73.8076C10.7939 73.5518 10.7939 73.296 11.0493 73.0403C10.7939 73.296 10.7939 73.5518 10.7939 73.8076Z" fill="#FFD98B"/>
<path d="M11.0518 72.5289C11.0518 72.2731 11.3071 72.0174 11.3071 71.7616C11.0518 72.0174 11.0518 72.2731 11.0518 72.5289Z" fill="#FFD98B"/>
<path d="M11.3047 71.2497C11.3047 70.994 11.5601 70.7382 11.5601 70.4824C11.5601 70.7382 11.3047 70.994 11.3047 71.2497Z" fill="#FFD98B"/>
<path d="M11.5586 70.2257C11.5586 69.97 11.814 69.7142 11.814 69.2026C11.814 69.4584 11.814 69.7142 11.5586 70.2257Z" fill="#FFD98B"/>
<path d="M13.0859 66.6441C13.3407 66.3884 13.3407 65.8769 13.5955 65.6211C13.3407 65.8769 13.3407 66.3884 13.0859 66.6441Z" fill="#FFD98B"/>
<path d="M15.8916 62.0382C16.1464 61.7825 16.4012 61.2709 16.656 61.0151C16.4012 61.2709 16.1464 61.5267 15.8916 62.0382Z" fill="#FFD98B"/>
<path d="M14.3672 64.3409C14.622 64.0852 14.8767 63.5736 15.1315 63.3179C14.8767 63.5736 14.622 63.8294 14.3672 64.3409Z" fill="#FFD98B"/>
<path d="M15.1299 63.0616C15.3847 62.8059 15.6395 62.2943 15.8942 62.0386C15.6395 62.2943 15.3847 62.8059 15.1299 63.0616Z" fill="#FFD98B"/>
<path d="M13.3447 72.7847C13.3447 73.5523 13.8545 74.3199 14.3643 74.8316C20.9912 78.6696 60.7528 98.3714 78.5945 107.327C79.869 108.094 81.3982 108.094 82.4178 107.583C82.4178 107.071 82.4178 106.559 82.4178 106.047C78.0848 85.0663 67.8895 37.2191 65.8504 32.6135C63.8114 28.0079 30.4218 41.8247 16.4033 61.2706C17.168 60.2472 18.1875 58.9678 19.207 57.9443C15.8936 62.2941 13.5996 67.4115 13.3447 72.7847Z" fill="#F9B361"/>
<path d="M12.5771 67.6666C12.8319 67.4109 12.8319 66.8993 13.0867 66.6436C12.8319 67.1551 12.5771 67.4109 12.5771 67.6666Z" fill="#FFD98B"/>
<path d="M13.5957 65.3644C13.8505 65.1086 14.1053 64.5971 14.1053 64.3413C14.1053 64.8528 13.8505 65.1086 13.5957 65.3644Z" fill="#FFD98B"/>
<path d="M12.0713 68.9464C12.0713 68.6907 12.3261 68.1791 12.5808 67.9233C12.3261 68.4349 12.3261 68.6907 12.0713 68.9464Z" fill="#FFD98B"/>
<path d="M81.1441 110.397L80.8887 110.652L81.1441 110.397Z" fill="#FFD98B"/>
<path d="M80.6353 110.909L80.3799 111.165C80.3799 110.909 80.6353 110.909 80.6353 110.909Z" fill="#FFD98B"/>
<path d="M81.6519 109.886L81.3965 110.142C81.3965 110.142 81.3965 110.142 81.6519 109.886Z" fill="#FFD98B"/>
<path d="M82.6705 107.327C82.6705 108.35 82.1609 109.117 81.6514 109.884C82.1609 109.373 82.6705 108.35 82.6705 107.327Z" fill="#FFD98B"/>
<path d="M80.1238 111.165C79.869 111.165 79.869 111.42 79.6143 111.42C79.869 111.165 79.869 111.165 80.1238 111.165Z" fill="#FFD98B"/>
<path d="M13.0859 66.6429C13.3407 66.3872 13.3407 65.8756 13.5955 65.6199C13.3407 65.8756 13.3407 66.1314 13.0859 66.6429Z" fill="#FFD98B"/>
<path d="M11.0508 78.1573C11.3054 78.4131 11.3054 78.4131 11.56 78.4131C11.8146 78.6689 12.0692 78.6689 12.5784 78.9247C12.3238 78.6689 11.8146 78.6689 11.56 78.4131C11.3054 78.4131 11.3054 78.4131 11.0508 78.1573Z" fill="#FFD98B"/>
<path d="M81.6514 109.884C82.1609 109.116 82.6705 108.349 82.6705 107.326C82.6705 108.349 82.1609 109.372 81.6514 109.884Z" fill="#FFD98B"/>
<path d="M80.123 111.163C80.3778 111.163 80.3778 110.908 80.6326 110.908C80.6326 110.908 80.3778 110.908 80.123 111.163C80.3778 110.908 80.3778 111.163 80.123 111.163Z" fill="#FFD98B"/>
<path d="M79.1034 111.42H78.8486C79.1034 111.42 79.3582 111.42 79.3582 111.165C79.1034 111.42 79.1034 111.42 79.1034 111.42Z" fill="#FFD98B"/>
<path d="M15.1299 63.0604C15.3847 62.8046 15.6395 62.2931 15.8942 62.0374C15.6395 62.2931 15.3847 62.8046 15.1299 63.0604Z" fill="#FFD98B"/>
<path d="M81.6519 109.885L81.3965 110.14C81.3965 110.14 81.3965 110.14 81.6519 109.885Z" fill="#FFD98B"/>
<path d="M10.7931 74.0635C10.7931 74.3192 10.7931 74.575 10.7931 75.0865C10.5377 74.8308 10.5377 74.575 10.7931 74.0635Z" fill="#FFD98B"/>
<path d="M11.0487 72.5273C11.0487 72.2715 11.3035 72.0158 11.3035 71.76V71.5042C11.3035 71.2485 11.5583 70.9927 11.5583 70.7369C11.3035 71.76 11.0487 73.0388 10.7939 74.0619C10.7939 73.8061 10.7939 73.5504 11.0487 73.2946C10.7939 72.7831 11.0487 72.7831 11.0487 72.5273Z" fill="#FFD98B"/>
<path d="M15.8906 62.037C16.1454 61.7812 16.4002 61.2697 16.655 61.0139C16.4002 61.2697 16.1454 61.5255 15.8906 62.037Z" fill="#FFD98B"/>
<path d="M80.1228 111.165C79.8681 111.165 79.8681 111.42 79.6133 111.42C79.8681 111.165 79.8681 111.165 80.1228 111.165Z" fill="#FFD98B"/>
<path d="M15.1305 63.0598C14.8758 63.3156 14.621 63.8271 14.3662 64.0829C14.621 63.8271 14.8758 63.5713 15.1305 63.0598Z" fill="#FFD98B"/>
<path d="M16.6562 60.758C17.1658 60.2465 17.4206 59.7349 17.9302 59.2234C17.4206 59.7349 16.911 60.2465 16.6562 60.758Z" fill="#FFD98B"/>
<path d="M81.1441 110.396L80.8887 110.651L81.1441 110.396Z" fill="#FFD98B"/>
<path d="M14.3591 64.3411C14.1043 64.5968 13.8495 65.1083 13.5947 65.3641C13.8495 65.1083 14.1043 64.8526 14.3591 64.3411Z" fill="#FFD98B"/>
<path d="M12.0669 69.2019C12.0669 69.4577 11.8115 69.9692 11.8115 70.225C11.8115 69.7135 11.8115 69.4577 12.0669 69.2019Z" fill="#FFD98B"/>
<path d="M12.5799 67.9217C12.8346 67.4101 13.0894 67.1544 13.0894 66.6428C12.8347 67.4101 12.3251 68.1774 12.0703 68.9447V68.689C12.3251 68.689 12.3251 68.4332 12.5799 67.9217Z" fill="#FFD98B"/>
<path d="M48.0058 68.1776C54.7627 68.1776 60.2402 62.6789 60.2402 55.8959C60.2402 49.1129 54.7627 43.6143 48.0058 43.6143C41.249 43.6143 35.7715 49.1129 35.7715 55.8959C35.7715 62.6789 41.249 68.1776 48.0058 68.1776Z" fill="#FF5E4D"/>
<path d="M48.0097 64.3399C52.9366 64.3399 56.9306 60.3305 56.9306 55.3846C56.9306 50.4387 52.9366 46.4292 48.0097 46.4292C43.0829 46.4292 39.0889 50.4387 39.0889 55.3846C39.0889 60.3305 43.0829 64.3399 48.0097 64.3399Z" fill="#F94A3D"/>
<g opacity="0.23">
<g opacity="0.23">
<path opacity="0.23" d="M75.7882 95.043C76.4916 95.043 77.0618 94.4705 77.0618 93.7642C77.0618 93.0579 76.4916 92.4854 75.7882 92.4854C75.0848 92.4854 74.5146 93.0579 74.5146 93.7642C74.5146 94.4705 75.0848 95.043 75.7882 95.043Z" fill="#FFA35D"/>
<path opacity="0.23" d="M25.5763 64.0826C26.2797 64.0826 26.8499 63.51 26.8499 62.8037C26.8499 62.0975 26.2797 61.5249 25.5763 61.5249C24.8729 61.5249 24.3027 62.0975 24.3027 62.8037C24.3027 63.51 24.8729 64.0826 25.5763 64.0826Z" fill="#FFA35D"/>
<path opacity="0.23" d="M62.0265 83.274C62.7299 83.274 63.3001 82.7014 63.3001 81.9951C63.3001 81.2889 62.7299 80.7163 62.0265 80.7163C61.3231 80.7163 60.7529 81.2889 60.7529 81.9951C60.7529 82.7014 61.3231 83.274 62.0265 83.274Z" fill="#FFA35D"/>
<path opacity="0.23" d="M74.5119 98.8818C74.9337 98.8818 75.2757 98.5382 75.2757 98.1145C75.2757 97.6907 74.9337 97.3472 74.5119 97.3472C74.09 97.3472 73.748 97.6907 73.748 98.1145C73.748 98.5382 74.09 98.8818 74.5119 98.8818Z" fill="#FFA35D"/>
<path opacity="0.23" d="M58.4599 87.6231C58.6006 87.6231 58.7147 87.5088 58.7147 87.3677C58.7147 87.2267 58.6006 87.1123 58.4599 87.1123C58.3191 87.1123 58.2051 87.2267 58.2051 87.3677C58.2051 87.5088 58.3191 87.6231 58.4599 87.6231Z" fill="#FFA35D"/>
<path opacity="0.23" d="M61.2616 49.7544C61.4023 49.7544 61.5164 49.6401 61.5164 49.499C61.5164 49.358 61.4023 49.2437 61.2616 49.2437C61.1209 49.2437 61.0068 49.358 61.0068 49.499C61.0068 49.6401 61.1209 49.7544 61.2616 49.7544Z" fill="#FFA35D"/>
<path opacity="0.23" d="M29.3993 79.6919C29.54 79.6919 29.6541 79.5776 29.6541 79.4365C29.6541 79.2955 29.54 79.1812 29.3993 79.1812C29.2586 79.1812 29.1445 79.2955 29.1445 79.4365C29.1445 79.5776 29.2586 79.6919 29.3993 79.6919Z" fill="#FFA35D"/>
<path opacity="0.23" d="M60.7509 97.3462C60.8916 97.3462 61.0056 97.2319 61.0056 97.0909C61.0056 96.9498 60.8916 96.8354 60.7509 96.8354C60.6102 96.8354 60.4961 96.9498 60.4961 97.0909C60.4961 97.2319 60.6102 97.3462 60.7509 97.3462Z" fill="#FFA35D"/>
<path opacity="0.23" d="M34.498 53.0806C34.6387 53.0806 34.7527 52.9663 34.7527 52.8252C34.7527 52.6842 34.6387 52.5698 34.498 52.5698C34.3572 52.5698 34.2432 52.6842 34.2432 52.8252C34.2432 52.9663 34.3572 53.0806 34.498 53.0806Z" fill="#FFA35D"/>
<path opacity="0.23" d="M19.4599 67.6661C19.6006 67.6661 19.7146 67.5517 19.7146 67.4106C19.7146 67.2696 19.6006 67.1553 19.4599 67.1553C19.3191 67.1553 19.2051 67.2696 19.2051 67.4106C19.2051 67.5517 19.3191 67.6661 19.4599 67.6661Z" fill="#FFA35D"/>
<path opacity="0.23" d="M64.83 37.7291C64.9707 37.7291 65.0848 37.6147 65.0848 37.4737C65.0848 37.3326 64.9707 37.2183 64.83 37.2183C64.6893 37.2183 64.5752 37.3326 64.5752 37.4737C64.5752 37.6147 64.6893 37.7291 64.83 37.7291Z" fill="#FFA35D"/>
<path opacity="0.23" d="M69.9269 96.3227C70.3487 96.3227 70.6907 95.9792 70.6907 95.5554C70.6907 95.1316 70.3487 94.7881 69.9269 94.7881C69.505 94.7881 69.1631 95.1316 69.1631 95.5554C69.1631 95.9792 69.505 96.3227 69.9269 96.3227Z" fill="#FFA35D"/>
<path opacity="0.23" d="M28.1248 71.7604C28.4062 71.7604 28.6344 71.5313 28.6344 71.2488C28.6344 70.9663 28.4062 70.7373 28.1248 70.7373C27.8434 70.7373 27.6152 70.9663 27.6152 71.2488C27.6152 71.5313 27.8434 71.7604 28.1248 71.7604Z" fill="#FFA35D"/>
<path opacity="0.23" d="M57.1847 37.9853C57.6065 37.9853 57.9485 37.6417 57.9485 37.218C57.9485 36.7942 57.6065 36.4507 57.1847 36.4507C56.7629 36.4507 56.4209 36.7942 56.4209 37.218C56.4209 37.6417 56.7629 37.9853 57.1847 37.9853Z" fill="#FFA35D"/>
</g>
</g>
<path d="M67.38 80.972C67.8897 86.3453 72.4776 90.4391 77.8302 89.9274C78.3399 89.9274 78.8497 89.9274 79.1046 89.6715C77.8302 83.5307 76.3008 77.134 75.0264 70.4814C70.4386 71.5049 67.1251 76.1105 67.38 80.972Z" fill="#FF5E4D"/>
<path d="M69.9253 80.4592C70.1802 84.2972 73.4937 87.1118 77.3169 86.8559C77.5718 86.8559 78.0815 86.8559 78.3364 86.6C77.3169 82.2503 76.5523 77.6447 75.5327 73.2949C71.9644 73.8067 69.4155 76.8771 69.9253 80.4592Z" fill="#F94A3D"/>
<path d="M28.1277 73.0397C27.8728 73.0397 27.363 73.0398 27.1082 72.7839C26.3435 72.528 25.8337 71.7604 25.324 70.7369C25.0691 69.9693 25.0691 68.9459 25.324 68.1783C25.5789 67.6665 26.0886 67.1548 26.5984 66.8989C27.1081 66.6431 27.8728 66.6431 28.3826 66.8989C29.1472 67.1548 29.657 67.9224 30.1667 68.9459C30.6765 70.4811 30.1667 72.2722 28.6374 72.7839C28.6374 73.0398 28.3826 73.0397 28.1277 73.0397ZM27.6179 68.69C27.6179 68.69 27.363 68.69 27.6179 68.69C27.363 68.69 27.1082 68.9459 27.1082 68.9459C26.8533 69.2017 26.8533 69.7135 27.1082 69.9693C27.363 70.4811 27.6179 70.7369 27.8728 70.7369C27.8728 70.7369 28.1277 70.7369 28.3826 70.7369C28.6375 70.7369 28.8923 69.9693 28.6374 69.2017C28.3826 68.69 28.1277 68.4342 27.8728 68.4342C27.8728 68.69 27.6179 68.69 27.6179 68.69Z" fill="#390028"/>
<path d="M57.6912 79.6932C56.4167 79.6932 55.3972 78.9256 54.8875 77.6463C54.6326 76.8787 54.6326 76.1111 54.8875 75.3435C55.1423 74.8317 55.6521 74.32 56.1619 74.32C57.4363 73.8083 59.2204 74.5759 59.7302 76.1111C60.24 77.6463 59.7302 79.1815 58.2009 79.4373C58.2009 79.6932 57.946 79.6932 57.6912 79.6932ZM57.1814 76.1111C56.9265 76.1111 56.6716 76.3669 56.6716 76.3669C56.4167 76.6228 56.4167 76.8787 56.6716 77.3904C56.9265 77.9022 57.4363 78.4139 57.6912 78.158C57.946 78.158 58.2009 77.3904 57.946 76.8787C57.946 76.3669 57.4363 76.1111 57.1814 76.1111Z" fill="#390028"/>
<path d="M69.6745 98.1144C69.4195 98.1144 68.9096 98.1144 68.6546 97.8585C68.1447 97.6027 67.6348 97.0909 67.6348 96.5792C67.3798 96.0675 67.6348 95.5557 67.6348 95.2999C67.8898 94.7881 68.1447 94.5323 68.6546 94.5323C69.1646 94.2764 69.6745 94.5322 70.1844 94.7881C71.2043 95.2998 71.7142 96.3233 71.2043 97.3468C70.9493 97.8585 70.4394 98.1144 69.9295 98.3703C70.1844 98.1144 69.9295 98.1144 69.6745 98.1144Z" fill="#390028"/>
<path d="M64.5763 45.4063C64.0666 45.4063 63.5568 45.4062 63.047 44.8945C61.5177 44.1269 60.7531 42.3358 61.5177 41.0565C62.2824 39.7771 64.0666 39.2654 65.5959 40.033C66.3605 40.2889 66.8703 41.0565 67.1251 41.5682C67.38 42.3358 67.38 43.1034 67.1251 43.871C66.6154 44.8945 65.5959 45.4063 64.5763 45.4063ZM63.8117 41.8241C63.5568 41.8241 63.3019 41.8241 63.047 42.08C62.7922 42.3358 63.047 43.1034 63.8117 43.3593C64.5763 43.6152 65.0861 43.6152 65.341 43.1034C65.341 42.8476 65.341 42.5917 65.341 42.5917C65.0861 42.3358 64.8312 42.08 64.5763 41.8241C64.3214 41.8241 64.0666 41.8241 63.8117 41.8241Z" fill="#390028"/>
<path d="M40.1103 80.9718C35.7773 81.2277 32.209 84.5539 30.9346 88.6478C36.542 91.4624 42.914 94.7887 49.0312 97.8591C50.5605 95.8121 51.3251 93.2535 51.0703 90.6948C50.8154 84.8098 45.9726 80.7159 40.1103 80.9718Z" fill="#FF5E4D"/>
<path d="M40.6142 83.7859C37.3008 84.0417 34.4971 86.6004 33.4775 89.6708C37.8105 91.9736 42.6533 94.2764 47.4961 96.8351C48.7705 95.2999 49.2802 93.2529 49.0253 91.206C48.7705 86.6004 44.9472 83.53 40.6142 83.7859Z" fill="#F94A3D"/>
<path d="M40.1073 261.869L16.4033 251.634C13.0898 250.099 11.5605 246.261 12.8349 242.934L19.7167 227.071L56.4198 242.934L49.7928 258.286C48.2635 261.869 43.9305 263.404 40.1073 261.869Z" fill="#390028"/>
<path d="M40.5239 228.701C30.4411 224.337 21.0927 223.534 19.6437 226.908C18.1947 230.282 25.1939 236.555 35.2767 240.919C45.3595 245.282 54.7078 246.085 56.1568 242.711C57.6058 239.337 50.6067 233.064 40.5239 228.701Z" fill="#F8F8EE"/>
<path d="M38.9538 232.414C35.9807 231.127 33.2091 230.926 32.7632 231.964C32.3174 233.002 34.3662 234.887 37.3393 236.174C40.3124 237.46 43.0841 237.662 43.5299 236.624C43.9757 235.586 41.927 233.701 38.9538 232.414Z" fill="#F94A3D"/>
<path opacity="0.11" d="M40.3633 231.933C40.1084 231.933 40.1084 231.933 40.1084 231.677C39.8535 230.91 39.5986 230.142 39.0888 229.886C38.834 229.63 38.3242 229.63 38.0693 229.63C37.8144 229.63 37.5596 229.886 37.5596 230.142L37.3047 230.398C37.0498 230.398 37.0498 230.142 37.0498 230.142C37.0498 229.886 37.0498 229.63 36.7949 229.375C36.7949 229.119 36.54 229.119 36.2851 229.119C36.0303 229.119 36.0303 229.375 35.7754 229.63C35.5205 230.142 35.2656 230.654 35.2656 230.91C35.2656 231.166 35.0107 231.166 34.7559 231.166C34.501 231.166 34.501 230.91 34.501 230.654C34.7559 230.142 35.0107 229.63 35.2656 229.119C35.5205 228.863 35.7754 228.607 36.2851 228.351C36.7949 228.351 37.0498 228.607 37.3047 228.863C37.3047 229.119 37.5596 229.119 37.5596 229.375C37.8144 229.375 37.8144 229.119 38.0693 229.119C38.5791 229.119 39.0889 229.119 39.5986 229.375C40.3633 229.886 40.6181 230.91 40.873 231.677C40.873 231.677 40.6181 231.933 40.3633 231.933Z" fill="#390028"/>
<g opacity="0.11">
<path opacity="0.11" d="M29.6561 228.35H29.4013C29.1466 228.094 28.8918 227.839 29.1465 227.583C29.4013 227.327 29.6561 227.071 29.9109 227.327C30.1657 227.327 30.1657 227.583 30.1657 227.583C30.1657 227.839 30.1657 227.839 30.1657 228.094C30.4205 228.094 30.1657 228.35 29.6561 228.35C29.9109 228.35 29.9109 228.35 29.6561 228.35Z" fill="#390028"/>
<path opacity="0.11" d="M24.8133 228.605H24.5585C24.3037 228.605 24.3037 228.349 24.3037 228.349C24.3037 228.093 24.3037 228.093 24.3037 227.837C24.3037 227.582 24.5585 227.582 24.5585 227.582C24.8133 227.582 24.8133 227.582 25.068 227.582C25.3228 227.582 25.3228 227.837 25.3228 227.837C25.3228 228.093 25.3228 228.093 25.3228 228.349C25.3228 228.349 25.068 228.605 24.8133 228.605Z" fill="#390028"/>
<path opacity="0.11" d="M28.1281 231.419C27.8735 231.419 27.8735 231.419 27.6188 231.419C27.1096 231.163 26.855 230.652 27.1096 230.14C27.3643 229.629 27.8735 229.373 28.3827 229.629C28.8919 229.884 29.1465 230.396 28.8919 230.907C28.8919 231.163 28.6373 231.419 28.3827 231.419C28.3827 231.419 28.3827 231.419 28.1281 231.419ZM28.1281 230.14C27.8735 230.14 27.8734 230.14 27.8734 230.396V230.652C27.8734 230.652 27.8735 230.907 28.1281 230.907H28.3827C28.3827 230.907 28.6373 230.907 28.6373 230.652C28.6373 230.396 28.6373 230.396 28.1281 230.14C28.3827 230.14 28.3827 230.14 28.1281 230.14Z" fill="#390028"/>
</g>
<g opacity="0.11">
<path opacity="0.11" d="M50.2996 239.61H50.0448C49.79 239.61 49.79 239.354 49.79 239.354C49.79 239.098 49.79 239.098 49.79 238.843C49.79 238.587 50.0448 238.587 50.0448 238.587C50.2996 238.587 50.2996 238.587 50.5544 238.587C50.8092 238.587 50.8091 238.843 50.8091 238.843C50.8091 239.098 50.8091 239.098 50.8091 239.354C50.8091 239.61 50.8092 239.61 50.2996 239.61C50.5544 239.61 50.2996 239.61 50.2996 239.61Z" fill="#390028"/>
<path opacity="0.11" d="M45.2039 239.866H44.9491C44.6943 239.866 44.6943 239.61 44.6943 239.61C44.6943 239.354 44.6943 239.354 44.6943 239.099C44.6943 238.843 44.9491 238.843 44.9491 238.843C45.2039 238.843 45.2039 238.843 45.4587 238.843C45.7134 239.099 45.9682 239.354 45.7134 239.61C45.7134 239.866 45.4587 239.866 45.2039 239.866Z" fill="#390028"/>
<path opacity="0.11" d="M48.7677 242.936C48.5131 242.936 48.5131 242.936 48.2585 242.936C47.7493 242.68 47.4947 242.169 47.7493 241.657C47.7493 241.401 48.0039 241.146 48.2585 241.146C48.5131 241.146 48.7677 241.146 49.0223 241.146C49.2769 241.146 49.5315 241.401 49.5315 241.657C49.5315 241.913 49.5315 242.169 49.5315 242.424C49.5315 242.68 49.0223 242.936 48.7677 242.936ZM48.7677 241.401C48.5131 241.401 48.5131 241.401 48.5131 241.657C48.5131 241.913 48.5131 242.169 48.7677 242.169C49.0223 242.169 49.2769 242.169 49.2769 241.913V241.657C49.0223 241.657 49.0223 241.657 48.7677 241.401Z" fill="#390028"/>
</g>
<path d="M341.119 95.8117L260.321 65.8752C258.282 65.1076 257.263 63.0606 258.027 61.0137C258.792 58.9668 260.831 57.9433 262.87 58.7109L343.668 88.6474C345.707 89.415 346.726 91.4619 345.962 93.5089C345.452 95.5558 343.158 96.5793 341.119 95.8117Z" fill="#470B1B"/>
<path d="M342.653 88.1352L326.086 81.9944C325.831 81.9944 325.321 81.7385 325.066 81.9944L317.929 83.2737C317.42 83.2737 316.655 83.2737 316.145 82.762L310.283 76.3653C310.028 76.1094 309.773 76.1094 309.518 75.8536L264.149 59.2222C263.385 58.9663 262.875 58.1987 263.13 57.6869L264.659 53.8489C264.914 53.3372 265.679 53.0813 266.443 53.3372L344.692 82.2502C345.457 82.5061 345.966 83.2737 345.712 83.7855L344.182 87.6235C344.182 88.1352 343.418 88.3911 342.653 88.1352Z" fill="#FFD98B"/>
<path d="M336.282 99.6496L261.346 72.0159C260.327 71.76 259.817 70.4807 260.327 69.4572L261.092 67.6661C261.346 66.6427 262.621 66.1309 263.64 66.6426L338.576 94.2764C339.595 94.5322 340.105 95.8116 339.595 96.835L338.831 98.6261C338.321 99.3937 337.301 99.9055 336.282 99.6496Z" fill="#F94A3D"/>
<path opacity="0.74" d="M338.574 96.323L261.6 67.9217C261.09 67.6658 260.835 67.1541 261.09 66.8982C261.345 66.3865 261.855 66.1306 262.11 66.3865L339.084 94.7878C339.594 95.0437 339.849 95.5554 339.594 95.8113C339.594 96.323 339.084 96.323 338.574 96.323Z" fill="#EC6565"/>
<path d="M321.242 110.908L265.678 90.4389C258.796 87.8802 254.718 81.7394 256.502 76.622L258.796 70.2253L339.338 100.162L337.045 106.559C335.26 111.42 328.379 113.467 321.242 110.908Z" fill="#FFAC79"/>
<path opacity="0.25" d="M339.593 100.162L335.515 98.6265C332.966 102.72 326.594 104.256 320.222 101.953L273.579 84.5538C267.207 82.251 263.129 76.8778 264.148 72.0163L259.305 70.2252L257.012 76.6219C255.227 81.7393 259.305 87.8801 266.187 90.4387L321.752 110.908C328.633 113.467 335.77 111.42 337.554 106.303L339.593 100.162Z" fill="#F97762"/>
<path d="M348.005 84.0417L262.364 52.3141C268.481 35.6827 287.852 27.2391 305.694 33.8917L327.104 41.8235C344.691 48.4761 354.122 67.4103 348.005 84.0417Z" fill="#FFB6AF"/>
<path opacity="0.08" d="M348.005 84.0417L262.364 52.3141C268.481 35.6827 287.852 27.2391 305.694 33.8917L327.104 41.8235C344.691 48.4761 354.122 67.4103 348.005 84.0417Z" fill="#FFF6F7"/>
<path d="M348.005 84.0417L262.364 52.3141C268.481 35.6827 287.852 27.2391 305.694 33.8917L327.104 41.8235C344.691 48.4761 354.122 67.4103 348.005 84.0417Z" fill="#FFAC79"/>
<path opacity="0.25" d="M338.83 48.9879C338.83 49.2437 338.83 49.2437 338.83 48.9879C345.457 58.1991 336.281 70.2249 325.831 66.3869L287.344 52.3142C279.697 49.4996 278.678 39.009 285.814 34.9152C288.363 33.38 291.167 32.3565 293.971 31.8448C280.207 31.5889 267.208 39.5208 262.62 52.57L348.26 84.2976C352.593 71.7601 348.515 57.9432 338.83 48.9879Z" fill="#F97762"/>
<path d="M313.086 46.4287C312.577 46.4287 312.067 46.4287 311.557 46.1729C311.047 45.9172 309.263 45.4056 309.518 44.3826C309.773 43.3595 311.812 43.8711 312.322 43.8711C312.831 44.1268 314.616 44.6383 314.361 45.6614C314.361 46.1729 314.106 46.4287 313.086 46.4287Z" fill="#F8F8EE"/>
<path d="M325.065 54.872C324.555 54.872 324.045 54.872 323.536 54.6163C323.026 54.3605 321.242 53.849 321.496 52.8259C321.496 52.5701 322.006 52.0586 322.771 52.0586C323.281 52.0586 323.79 52.0586 324.3 52.3144C324.81 52.5701 326.594 53.0817 326.339 54.1047C326.339 54.6163 325.829 54.872 325.065 54.872Z" fill="#F8F8EE"/>
<path d="M324.299 46.685C323.789 46.685 323.025 46.4292 322.77 46.4292C322.26 46.1735 320.476 45.6619 320.731 44.6389C320.731 44.3831 320.986 44.3831 321.241 44.1273C322.005 43.8716 323.28 44.1273 323.535 44.1273C324.044 44.3831 325.828 44.8946 325.574 45.9177C325.319 46.685 324.809 46.685 324.299 46.685Z" fill="#F8F8EE"/>
<path d="M299.829 45.6606C299.32 45.6606 298.81 45.6606 298.3 45.4048C297.79 45.1491 296.006 44.6375 296.261 43.6144C296.261 43.3587 296.771 42.8472 297.536 42.8472C298.045 42.8472 298.555 42.8471 299.065 43.1029C299.575 43.3587 301.359 43.8702 301.104 44.8933C301.104 45.4048 300.594 45.6606 299.829 45.6606Z" fill="#F8F8EE"/>
<path d="M303.145 38.7524C302.635 38.7524 302.125 38.7524 301.616 38.4966C301.106 38.2408 299.322 37.7293 299.577 36.7063C299.577 36.4505 299.831 36.4505 300.086 36.1947C300.851 35.939 302.125 36.1947 302.38 36.1947C302.89 36.4505 304.674 36.962 304.419 37.9851C304.419 38.4966 304.164 38.7524 303.145 38.7524Z" fill="#F8F8EE"/>
<path d="M343.419 166.687L312.578 178.201C309.52 179.225 306.206 177.69 304.932 174.619L302.638 168.478C301.618 165.408 303.148 162.082 306.206 160.802L337.047 149.288C340.105 148.265 343.419 149.8 344.693 152.871L346.987 159.011C348.007 162.082 346.478 165.408 343.419 166.687Z" fill="white"/>
<path opacity="0.11" d="M312.577 171.549C312.322 171.549 312.322 171.549 312.577 171.549C311.812 171.294 311.302 170.782 310.793 170.014C310.538 169.758 310.538 169.247 310.793 168.735C310.793 168.479 311.048 168.223 311.302 168.223C311.557 168.223 311.812 168.223 311.812 168.223V167.967C312.067 167.2 312.577 166.944 313.342 166.944C313.851 166.944 314.106 167.2 314.361 167.2C314.616 167.456 314.871 167.456 315.126 167.456C315.381 167.456 315.381 167.711 315.381 167.711C315.381 167.967 315.126 167.967 315.126 167.967C314.616 167.967 314.361 167.711 314.106 167.711C313.851 167.456 313.596 167.456 313.342 167.456C313.087 167.456 312.577 167.711 312.577 167.967C312.577 168.223 312.577 168.479 312.832 168.735C312.832 168.991 312.832 168.991 312.832 169.247C312.832 169.247 312.577 169.247 312.322 169.247C312.067 168.991 311.812 168.735 311.557 168.735C311.557 168.735 311.302 168.735 311.302 168.991C311.302 169.247 311.302 169.503 311.302 169.503C311.557 170.014 312.067 170.27 312.577 170.526C312.832 170.526 312.832 170.782 312.832 171.038C312.832 171.549 312.577 171.549 312.577 171.549Z" fill="#390028"/>
<path opacity="0.11" d="M311.044 175.131C310.535 174.876 310.026 174.62 309.771 174.108C309.517 173.852 309.517 173.597 309.517 173.341C309.517 172.829 310.026 172.574 310.535 172.574C311.044 172.574 311.299 172.829 311.553 173.085C311.808 173.085 311.808 173.341 311.553 173.597C311.553 173.852 311.299 173.852 311.044 173.597C310.79 173.341 310.535 173.341 310.28 173.341C310.026 173.341 310.026 173.341 310.026 173.597C310.026 173.597 310.026 173.852 310.026 174.108C310.28 174.364 310.535 174.62 310.79 174.875C311.044 174.875 311.044 175.131 311.044 175.387C311.299 175.131 311.299 175.131 311.044 175.131Z" fill="#390028"/>
<path opacity="0.11" d="M322.517 164.64C322.517 164.64 322.262 164.64 322.517 164.64C322.007 164.384 321.752 163.872 321.752 163.361C321.752 162.849 322.262 162.594 322.772 162.338C323.027 162.338 323.282 162.338 323.792 162.594C324.302 162.849 324.557 163.105 324.812 163.617C324.812 163.872 324.812 163.872 324.812 164.128C324.557 164.128 324.557 164.128 324.302 164.128C324.047 163.872 323.792 163.617 323.537 163.361C323.282 163.105 323.027 163.105 323.027 163.105C322.772 163.105 322.772 163.361 322.517 163.617C322.517 163.872 322.517 164.128 322.772 164.128C323.027 164.128 323.027 164.384 322.772 164.64H322.517Z" fill="#390028"/>
<path opacity="0.11" d="M324.554 170.014C324.554 170.014 324.299 170.014 324.299 169.758C324.044 169.246 323.789 168.735 323.534 168.223C323.279 167.711 323.534 167.455 323.534 167.199C323.789 166.943 323.789 166.944 324.044 166.944C324.299 166.944 324.554 166.944 324.554 166.944C324.554 166.688 324.554 166.176 324.809 165.92C325.318 165.408 325.828 165.408 326.593 165.664C326.848 165.664 327.103 165.664 327.103 165.92C327.357 165.92 327.612 166.176 327.867 166.176C328.122 166.176 328.122 166.432 328.122 166.432C328.122 166.688 327.867 166.688 327.867 166.688C327.612 166.688 327.103 166.432 326.848 166.432C326.593 166.432 326.593 166.432 326.338 166.176C326.083 166.176 325.573 165.92 325.063 166.432C325.063 166.432 324.809 166.688 324.809 166.944V167.199C325.063 167.199 325.063 167.455 325.063 167.711C325.063 167.967 324.809 167.967 324.554 167.967C324.554 167.967 324.554 167.967 324.299 167.967C324.044 167.711 323.534 167.711 323.279 167.711C323.279 167.711 323.279 167.711 323.279 167.967C323.534 168.479 323.789 168.99 324.044 169.246C324.809 169.758 324.809 170.014 324.554 170.014Z" fill="#390028"/>
<path opacity="0.11" d="M334.748 161.315C334.748 161.315 334.493 161.315 334.493 161.059C334.238 160.547 333.983 160.035 333.983 159.524C333.983 159.268 333.983 158.756 334.238 158.5C334.493 158.244 335.003 157.988 335.513 158.244C335.768 158.244 335.768 158.244 336.022 158.5C336.022 158.244 336.022 158.244 336.277 157.988C336.532 157.477 337.042 157.221 337.552 157.221C338.571 156.965 339.336 157.477 339.846 157.988C340.101 157.988 340.101 158.244 339.846 158.5C339.846 158.756 339.591 158.756 339.336 158.5C338.826 158.244 338.062 157.733 337.297 157.988C337.042 157.988 336.532 158.244 336.532 158.5C336.532 158.756 336.277 159.012 336.277 159.268C336.277 159.524 336.277 159.524 336.022 159.524H335.768C335.513 159.268 335.258 159.268 335.003 159.012C334.748 159.012 334.493 159.012 334.493 159.012C334.493 159.012 334.493 159.268 334.493 159.524C334.493 160.035 334.748 160.547 335.003 160.803C335.003 161.059 335.003 161.315 334.748 161.315Z" fill="#390028"/>
<path opacity="0.11" d="M339.339 164.129C339.084 164.129 339.084 163.874 339.339 164.129C338.829 163.618 338.574 163.106 338.319 162.595C338.065 162.083 338.319 161.572 338.574 161.316C338.829 161.316 339.084 161.316 339.084 161.316C339.849 161.316 340.359 161.827 341.124 162.083C341.379 162.083 341.379 162.339 341.124 162.595C341.124 162.851 340.869 162.851 340.614 162.595C340.104 162.339 339.594 162.083 339.084 161.827H338.829C338.829 161.827 338.829 162.083 338.829 162.339C338.829 162.851 339.084 163.106 339.339 163.362C339.594 163.618 339.594 163.874 339.339 164.129C339.339 163.874 339.339 164.129 339.339 164.129Z" fill="#390028"/>
<path d="M342.398 152.87L304.421 166.943C301.362 167.966 298.049 166.431 296.775 163.361L295.5 160.034C294.481 156.964 296.01 153.638 299.068 152.358L337.046 138.285C340.104 137.262 343.418 138.797 344.692 141.868L345.967 145.194C346.986 148.264 345.457 151.591 342.398 152.87Z" fill="#390028"/>
<path opacity="0.3" d="M299.633 152.094L304.912 166.502L308.501 165.177L303.222 150.769L299.633 152.094Z" fill="#F94A3D"/>
<path opacity="0.3" d="M310.186 148.405L315.466 162.813L319.055 161.488L313.776 147.079L310.186 148.405Z" fill="#F94A3D"/>
<path opacity="0.3" d="M321.455 144.252L326.734 158.66L330.323 157.335L325.044 142.926L321.455 144.252Z" fill="#F94A3D"/>
<path opacity="0.3" d="M332.42 140.236L337.699 154.644L341.288 153.319L336.009 138.91L332.42 140.236Z" fill="#F94A3D"/>
<path d="M344.435 231.677L317.672 208.393C316.398 207.37 314.613 207.37 313.594 208.649C312.574 209.928 312.574 211.719 313.849 212.743L340.611 236.027C341.886 237.05 343.67 237.05 344.689 235.771C345.709 234.747 345.709 232.7 344.435 231.677Z" fill="#470B1B"/>
<path d="M294.989 284.128L273.324 265.45C271.795 264.171 271.795 261.868 272.814 260.333L308.243 212.997C309.517 211.206 312.066 210.95 313.85 212.229L341.632 236.281C343.162 237.816 343.162 240.375 341.632 241.91L300.086 283.616C298.812 285.152 296.518 285.408 294.989 284.128Z" fill="white"/>
<path d="M298.302 226.559L284.538 244.982L313.595 270.312L329.652 253.937L298.302 226.559Z" fill="#FF7664"/>
<path d="M339.338 243.959L306.713 215.557C305.439 214.534 305.439 212.487 306.458 211.208L308.752 208.649C309.772 207.37 311.811 207.37 313.085 208.393L345.71 236.794C346.984 237.818 346.984 239.865 345.965 241.144L343.671 243.703C342.396 244.726 340.612 244.982 339.338 243.959Z" fill="#FF7664"/>
<path d="M301.693 254.101C304.668 256.697 309.325 256.207 312.095 253.007C314.866 249.807 314.7 245.109 311.725 242.513C308.75 239.918 304.092 240.407 301.322 243.607C298.552 246.807 298.717 251.505 301.693 254.101Z" fill="#F94A3D"/>
<path d="M10.0436 121.094C11.1701 121.094 12.0833 120.177 12.0833 119.047C12.0833 117.916 11.1701 117 10.0436 117C8.91711 117 8.00391 117.916 8.00391 119.047C8.00391 120.177 8.91711 121.094 10.0436 121.094Z" fill="#F9B361"/>
<path d="M75.7878 4.46743C76.9143 4.46743 77.8275 3.55098 77.8275 2.42048C77.8275 1.28999 76.9143 0.373535 75.7878 0.373535C74.6613 0.373535 73.748 1.28999 73.748 2.42048C73.748 3.55098 74.6613 4.46743 75.7878 4.46743Z" fill="#F9B361"/>
<path d="M21.4987 291.806C22.6252 291.806 23.5384 290.889 23.5384 289.759C23.5384 288.628 22.6252 287.712 21.4987 287.712C20.3722 287.712 19.459 288.628 19.459 289.759C19.459 290.889 20.3722 291.806 21.4987 291.806Z" fill="#F9B361"/>
<path d="M280.713 297.692C281.839 297.692 282.752 296.775 282.752 295.645C282.752 294.514 281.839 293.598 280.713 293.598C279.586 293.598 278.673 294.514 278.673 295.645C278.673 296.775 279.586 297.692 280.713 297.692Z" fill="#F9B361"/>
<path d="M363.197 291.094C364.323 291.094 365.237 290.177 365.237 289.047C365.237 287.916 364.323 287 363.197 287C362.07 287 361.157 287.916 361.157 289.047C361.157 290.177 362.07 291.094 363.197 291.094Z" fill="#F9B361"/>
<path d="M257.009 11.8869C258.136 11.8869 259.049 10.9704 259.049 9.83992C259.049 8.70942 258.136 7.79297 257.009 7.79297C255.883 7.79297 254.97 8.70942 254.97 9.83992C254.97 10.9704 255.883 11.8869 257.009 11.8869Z" fill="#F9B361"/>
<path d="M9.04265 9.0939C10.1692 9.0939 11.0824 8.17744 11.0824 7.04695C11.0824 5.91645 10.1692 5 9.04265 5C7.91615 5 7.00293 5.91645 7.00293 7.04695C7.00293 8.17744 7.91615 9.0939 9.04265 9.0939Z" fill="#F9B361"/>
<path d="M359.727 198.415C360.854 198.415 361.767 197.498 361.767 196.368C361.767 195.237 360.854 194.321 359.727 194.321C358.601 194.321 357.688 195.237 357.688 196.368C357.688 197.498 358.601 198.415 359.727 198.415Z" fill="#F9B361"/>
<path d="M293.71 123.188C294.272 123.188 294.728 122.73 294.728 122.165C294.728 121.6 294.272 121.142 293.71 121.142C293.147 121.142 292.691 121.6 292.691 122.165C292.691 122.73 293.147 123.188 293.71 123.188Z" fill="#F9B361"/>
<path d="M368.179 147.046C368.741 147.046 369.197 146.588 369.197 146.023C369.197 145.458 368.741 145 368.179 145C367.616 145 367.16 145.458 367.16 146.023C367.16 146.588 367.616 147.046 368.179 147.046Z" fill="#F9B361"/>
<path d="M371.961 87.6247C373.087 87.6247 374 86.7082 374 85.5777C374 84.4472 373.087 83.5308 371.961 83.5308C370.834 83.5308 369.921 84.4472 369.921 85.5777C369.921 86.7082 370.834 87.6247 371.961 87.6247Z" fill="#F9B361"/>
<path d="M90.063 146.217C90.9079 146.217 91.5928 145.53 91.5928 144.682C91.5928 143.835 90.9079 143.147 90.063 143.147C89.2181 143.147 88.5332 143.835 88.5332 144.682C88.5332 145.53 89.2181 146.217 90.063 146.217Z" fill="#F9B361"/>
<path d="M5.9497 200.716C6.79458 200.716 7.47948 200.029 7.47948 199.181C7.47948 198.334 6.79458 197.646 5.9497 197.646C5.10483 197.646 4.41992 198.334 4.41992 199.181C4.41992 200.029 5.10483 200.716 5.9497 200.716Z" fill="#F9B361"/>
<path d="M218.266 148.007C218.52 148.007 218.775 148.262 219.285 148.262C219.03 148.262 218.52 148.262 218.266 148.007Z" fill="#FFAC79"/>
<path d="M238.146 163.104C238.401 163.359 238.401 163.359 238.656 163.614C238.656 163.359 238.401 163.359 238.146 163.104Z" fill="#FFAC79"/>
<path d="M233.051 157.986L233.306 158.241C233.306 157.986 233.051 157.986 233.051 157.986Z" fill="#FFAC79"/>
<path d="M244.009 170.011C244.264 170.267 244.264 170.523 244.518 170.779C244.518 170.523 244.264 170.267 244.009 170.011Z" fill="#FFAC79"/>
<path d="M236.616 161.312C236.871 161.568 236.871 161.568 237.126 161.823C236.871 161.568 236.616 161.568 236.616 161.312Z" fill="#FFAC79"/>
<path d="M242.226 167.709L242.481 167.964C242.481 167.964 242.481 167.709 242.226 167.709Z" fill="#FFAC79"/>
<path d="M254.715 184.852C254.97 185.108 255.224 185.619 255.479 185.875C254.97 185.619 254.97 185.108 254.715 184.852Z" fill="#FFAC79"/>
<path d="M256.753 188.434C257.008 188.689 257.262 189.201 257.517 189.457C257.262 188.945 257.008 188.689 256.753 188.434Z" fill="#FFAC79"/>
<path d="M252.677 181.525C252.932 181.781 253.186 182.293 253.441 182.548C252.932 182.293 252.677 182.037 252.677 181.525Z" fill="#FFAC79"/>
<path d="M246.051 172.314C246.306 172.57 246.56 172.826 246.56 173.082C246.56 172.826 246.306 172.57 246.051 172.314Z" fill="#FFAC79"/>
<path d="M248.087 175.129C248.342 175.385 248.342 175.641 248.596 175.897C248.342 175.641 248.342 175.385 248.087 175.129Z" fill="#FFAC79"/>
<path d="M250.637 178.712C250.637 178.712 250.637 178.967 250.892 178.967C250.637 178.967 250.637 178.712 250.637 178.712Z" fill="#FFAC79"/>
<path d="M240.187 165.15C240.442 165.406 240.442 165.406 240.442 165.661C240.442 165.406 240.187 165.406 240.187 165.15Z" fill="#FFAC79"/>
<path d="M225.657 151.844C225.912 151.844 225.912 152.1 226.167 152.1C225.912 152.1 225.657 152.1 225.657 151.844Z" fill="#FFAC79"/>
<path d="M223.361 150.566C223.361 150.566 223.617 150.566 223.617 150.821C223.617 150.566 223.361 150.566 223.361 150.566Z" fill="#FFAC79"/>
<path d="M224.383 151.078L224.638 151.333C224.638 151.333 224.638 151.333 224.383 151.078Z" fill="#FFAC79"/>
<path d="M222.091 149.797C222.091 149.797 222.346 149.797 222.346 150.052C222.346 149.797 222.091 149.797 222.091 149.797Z" fill="#FFAC79"/>
<path d="M221.07 149.286C221.325 149.286 221.325 149.542 221.58 149.542C221.325 149.286 221.07 149.286 221.07 149.286Z" fill="#FFAC79"/>
<path d="M219.54 148.517C219.795 148.517 219.795 148.517 220.05 148.773C219.795 148.517 219.54 148.517 219.54 148.517Z" fill="#FFAC79"/>
<path d="M220.303 148.774C220.558 148.774 220.558 148.774 220.812 149.029C220.558 149.029 220.303 149.029 220.303 148.774Z" fill="#FFAC79"/>
<path d="M226.932 152.869C227.187 152.869 227.187 153.124 226.932 152.869C227.187 153.124 227.187 152.869 226.932 152.869Z" fill="#FFAC79"/>
<path d="M232.795 181.27L242.99 208.136C250.892 201.995 259.558 192.784 259.558 192.784C258.793 191.504 258.028 190.481 257.518 189.202C257.264 188.946 257.009 188.434 256.754 188.178C256.244 187.41 255.734 186.643 255.225 185.875C254.97 185.619 254.715 185.108 254.46 184.852C253.95 184.084 253.44 183.317 252.931 182.549C252.676 182.293 252.421 181.781 252.166 181.526C251.656 180.502 250.892 179.734 250.382 178.711C250.382 178.711 250.382 178.455 250.127 178.455C249.362 177.432 248.852 176.664 248.088 175.641C247.833 175.385 247.833 175.129 247.578 174.873C247.068 174.105 246.559 173.594 246.049 173.082C245.794 172.826 245.539 172.57 245.539 172.314C245.029 171.803 244.519 171.035 244.265 170.523C244.01 170.267 244.01 170.011 243.755 169.756C243.245 168.988 242.735 168.476 242.226 167.709L241.971 167.453C241.461 166.685 240.696 165.918 240.186 165.406C239.932 165.15 239.932 165.15 239.932 164.894C239.422 164.382 238.912 163.871 238.657 163.359C238.402 163.103 238.402 163.103 238.147 162.847C237.638 162.335 237.383 162.08 236.873 161.568C236.618 161.312 236.618 161.312 236.363 161.056C235.853 160.544 235.344 160.033 235.089 159.777L234.834 159.521C234.324 159.009 233.814 158.497 233.305 157.986L233.05 157.73C232.54 157.218 232.285 156.962 231.775 156.706C231.52 156.706 231.52 156.45 231.266 156.45C231.011 156.195 230.501 155.939 230.246 155.427C229.991 155.427 229.991 155.171 229.736 155.171C229.481 154.915 228.972 154.659 228.717 154.148L228.462 153.892C227.952 153.636 227.697 153.124 227.187 152.868C227.187 152.868 226.933 152.868 226.933 152.612C226.678 152.357 226.168 152.101 225.913 151.845C225.658 151.845 225.658 151.589 225.403 151.589C225.148 151.333 224.894 151.333 224.639 151.077C224.384 151.077 224.384 150.821 224.384 150.821C224.129 150.566 223.874 150.566 223.619 150.31L223.364 150.054C223.109 149.798 222.6 149.542 222.345 149.542C222.345 149.542 222.09 149.542 222.09 149.286C221.835 149.286 221.58 149.03 221.325 149.03C221.07 149.03 221.07 148.774 220.815 148.774C220.561 148.774 220.561 148.519 220.306 148.519C220.051 148.519 220.051 148.263 219.796 148.263C219.796 148.263 219.541 148.263 219.541 148.007C219.286 148.007 219.286 148.007 219.031 147.751C219.031 147.751 219.031 147.751 218.776 147.751C218.522 147.495 218.012 147.495 217.757 147.495C227.697 153.636 232.795 164.127 232.795 181.27Z" fill="#E16504"/>
<path d="M249.107 224.512L242.989 208.136L232.794 181.27C232.794 175.897 232.284 171.291 231.265 167.198C229.226 158.242 224.638 152.101 218.266 148.263C211.384 144.169 201.953 142.378 189.974 142.634L129.312 143.146C122.43 143.146 116.313 145.449 111.215 149.287C106.627 152.613 103.059 157.475 100.765 162.848L66.356 221.441C64.0621 225.279 66.1011 230.141 70.4341 231.164L95.9223 238.073L99.2358 333H234.068L238.656 265.707L242.225 260.333L246.303 254.193C251.4 245.237 252.675 234.235 249.107 224.512Z" fill="#FF7000"/>
<path opacity="0.27" d="M137.47 210.439L139.764 258.798L124.98 246.773L137.47 210.439Z" fill="#353535"/>
<path d="M254.209 119.352C252.679 114.234 249.366 110.14 246.052 106.046C249.111 98.8822 249.366 88.3916 241.719 78.6687L232.289 68.9457C232.289 66.6429 232.289 64.0842 232.034 61.7814C231.779 58.9668 231.269 56.1523 230.505 53.3377L228.975 43.3589C225.662 21.6102 210.114 6.76988 183.351 10.8638L180.293 11.1196C177.489 10.6079 174.94 10.0961 172.137 10.0961C165.764 9.84028 158.883 11.1196 153.53 14.4459C149.707 16.7487 146.648 20.075 143.845 23.6571C139.257 15.9811 131.101 10.8638 121.67 10.8638C107.396 10.8638 95.9268 22.3778 95.9268 36.7064C95.9268 49.2439 104.848 59.7345 116.827 62.0373C111.984 65.8753 107.396 69.7133 104.593 75.0865C101.024 81.9949 100.005 90.1827 102.554 97.6028C104.338 102.976 107.906 108.093 106.632 113.723C105.867 116.793 103.573 119.352 102.044 121.91C100.26 124.469 98.9854 127.795 100.005 130.866C101.534 134.704 106.377 135.983 110.455 136.239C116.572 136.751 122.944 136.495 129.316 136.239C150.217 135.471 171.117 134.704 192.017 133.68C197.625 139.309 218.27 146.985 218.27 146.985L231.779 144.171C237.131 143.659 235.347 137.774 234.838 130.61C239.425 130.354 244.013 129.842 248.346 129.33C249.876 129.075 251.405 129.075 252.679 128.307C254.973 126.772 254.973 122.678 254.209 119.352Z" fill="#390028"/>
<path d="M218.268 57.6872C216.229 57.9431 214.19 57.1755 212.915 55.8962L208.328 51.2905C206.543 51.5464 208.328 59.2225 206.543 59.4783C194.054 60.2459 182.33 57.1755 173.409 51.5464C172.644 63.5722 167.037 73.0393 159.135 74.3186L149.45 76.1097L144.097 76.6214C136.706 77.389 131.353 84.2975 132.373 91.4618C133.137 98.8819 140.019 104.255 147.156 103.232H147.411V152.358C147.411 163.616 156.587 172.572 167.546 172.572H176.212C187.427 172.572 196.348 163.361 196.348 152.358V136.239C212.915 133.68 224.64 118.328 222.856 101.441L218.268 57.6872Z" fill="#FFAC79"/>
<path opacity="0.32" d="M197.624 131.634L190.487 132.402C173.41 134.449 157.862 121.911 155.823 104.768L155.568 101.954L152.765 102.209L153.529 109.118C154.294 116.282 157.353 122.423 161.94 127.285C160.666 136.496 166.783 145.451 175.959 146.986C184.37 148.522 192.526 143.66 195.33 135.984C208.074 134.449 218.014 125.749 221.583 114.235C217.25 123.702 208.329 130.355 197.624 131.634Z" fill="#FF755F"/>
<path d="M141.803 94.5326C141.293 94.5326 141.039 94.2767 140.784 94.0209C140.274 93.5091 140.529 92.7415 141.039 92.2298L144.862 89.6711L140.529 84.8096C140.019 84.2979 140.019 83.5303 140.529 83.0186C141.039 82.5068 141.803 82.5068 142.313 83.0186L147.666 88.9035C147.92 89.1594 147.92 89.6711 147.92 89.927C147.92 90.1829 147.666 90.6946 147.411 90.9504L142.313 94.2767C142.313 94.2767 142.058 94.5326 141.803 94.5326Z" fill="#FF755F"/>
<path d="M195.586 128.306C195.331 128.306 194.822 128.306 194.567 128.05C191.763 125.236 187.94 126.771 187.94 127.027C187.175 127.283 186.665 127.027 186.156 126.515C185.901 126.003 186.156 125.236 186.665 124.724C186.92 124.724 192.273 122.165 196.351 126.259C196.861 126.771 196.861 127.539 196.351 128.05C196.096 128.05 195.841 128.306 195.586 128.306Z" fill="#FF755F"/>
<path d="M195.842 96.3226C195.332 96.3226 194.822 95.8109 194.822 95.2992C194.822 94.7874 195.077 94.2757 195.587 94.2757L199.41 94.0198C201.449 93.764 203.488 92.9963 205.018 91.717C206.292 90.4377 207.057 88.6466 207.057 86.8555C207.057 86.3438 206.802 86.0879 206.547 86.0879C206.037 85.8321 205.527 85.5762 205.018 85.5762C202.469 85.8321 199.92 84.041 199.665 81.7382L198.391 70.9918C198.391 70.48 198.645 69.9683 199.155 69.9683C199.665 69.9683 200.175 70.2241 200.175 70.7359L201.449 81.4823C201.704 82.7616 202.979 83.7851 204.763 83.7851C205.782 83.7851 206.802 84.041 207.566 84.8086C208.331 85.3203 208.586 86.0879 208.586 86.8555C208.841 89.1583 207.821 91.4611 206.037 92.9963C204.253 94.7874 201.959 95.8109 199.41 95.8109L195.842 96.3226Z" fill="#FF755F"/>
<path d="M185.899 63.5727C184.879 63.3168 183.605 63.8285 182.585 64.0844C181.311 64.3403 180.291 64.5961 179.272 64.852C178.252 65.1079 176.978 65.3637 175.958 65.3637C174.684 65.6196 173.665 65.6196 172.645 66.3872C171.88 66.899 171.625 68.1783 172.9 69.2017C174.174 70.2252 176.978 71.2487 180.291 70.4811C183.605 69.7135 185.899 67.9224 186.664 66.3872C187.428 64.852 186.664 63.8285 185.899 63.5727Z" fill="#390028"/>
<path d="M208.837 66.6421C209.602 66.1303 210.622 66.1303 211.641 66.1303C212.661 66.1303 213.68 66.1304 214.7 65.8745C215.719 65.8745 216.739 65.6186 217.758 65.6186C218.778 65.6186 219.797 65.3627 220.562 65.6186C221.327 65.8745 221.836 66.8979 220.817 67.9214C220.052 69.2007 218.013 70.4801 214.955 70.736C211.896 70.9918 209.602 69.9684 208.837 68.9449C207.818 68.1773 208.073 67.1538 208.837 66.6421Z" fill="#390028"/>
<path d="M146.135 100.418C147.824 100.418 149.193 99.043 149.193 97.3473C149.193 95.6515 147.824 94.2769 146.135 94.2769C144.446 94.2769 143.076 95.6515 143.076 97.3473C143.076 99.043 144.446 100.418 146.135 100.418Z" fill="white"/>
<path d="M195.84 107.326C190.997 107.326 187.429 106.303 185.39 104C183.351 101.441 183.86 98.6265 183.86 98.6265C183.86 98.1147 184.37 97.8589 184.88 97.8589C185.39 97.8589 185.645 98.3706 185.645 98.8823C185.645 98.8823 185.135 100.929 186.664 102.72C187.938 104.256 191.252 106.047 199.408 105.279C199.918 105.279 200.428 105.535 200.428 106.047C200.428 106.558 200.173 107.07 199.663 107.07C198.389 107.326 197.114 107.326 195.84 107.326Z" fill="#FF755F"/>
<path d="M223.365 80.2038C222.855 77.6451 221.326 74.063 216.483 73.5513C215.718 73.5513 214.954 73.5513 214.189 73.5513C211.13 74.063 209.091 76.8775 207.817 79.1803C207.307 80.2038 207.562 81.4832 208.327 82.5066C208.582 80.2038 210.621 78.4127 213.169 78.1569C215.973 77.901 218.522 80.2038 218.522 82.7625C218.522 83.0183 218.522 83.2742 218.522 83.2742C220.051 83.0183 221.071 83.0183 222.09 82.7625C222.855 82.5066 223.62 81.739 223.365 80.7155C223.365 80.4597 223.365 80.2038 223.365 80.2038Z" fill="white"/>
<path d="M213.168 77.8994C210.619 78.1553 208.58 79.9463 208.325 82.2492C208.835 82.7609 209.345 83.0168 209.855 83.0168C212.913 83.5285 215.972 83.2726 218.52 83.0168C218.52 82.7609 218.52 82.505 218.52 82.505C218.52 79.9464 215.972 77.8994 213.168 77.8994Z" fill="#390028"/>
<path d="M194.056 82.2512C193.546 79.1808 191.762 74.3193 185.39 73.5517C184.37 73.2958 183.351 73.5517 182.586 73.5517C178.508 74.3193 175.704 77.3897 173.92 80.2042C172.646 82.2512 173.92 85.0657 176.214 85.3216C176.724 85.3216 177.488 85.5775 177.998 85.5775C177.998 85.0657 177.743 84.8099 177.743 84.2981C177.743 80.9719 180.547 78.1573 184.37 77.9014C188.193 77.9014 191.252 80.4601 191.252 83.7864C191.252 84.2981 191.252 84.8099 190.997 85.3216C191.252 85.3216 191.762 85.3216 192.017 85.0657C193.291 84.8099 194.056 83.7864 194.056 82.7629C194.056 82.7629 194.056 82.5071 194.056 82.2512Z" fill="white"/>
<path d="M184.37 78.1573C180.547 78.1573 177.743 80.9718 177.743 84.554C177.743 85.0657 177.743 85.5774 177.998 85.8333C183.096 86.345 188.193 86.0892 190.997 85.8333C191.252 85.3216 191.252 84.8099 191.252 84.2981C191.252 80.716 188.193 77.9014 184.37 78.1573Z" fill="#390028"/>
<path d="M308.499 237.562L300.343 206.347L277.913 129.075C277.913 128.819 277.658 128.307 277.658 128.051L277.149 126.004C274.6 119.607 270.267 114.234 264.15 110.396L246.563 99.9056L237.642 95.8118C235.093 94.5324 227.956 91.7179 225.407 96.0676C223.878 100.417 229.995 102.976 232.289 104.255L244.778 110.396C244.778 110.396 238.661 109.629 234.073 112.443C230.76 114.49 229.231 118.328 229.995 122.166L230.25 123.445L230.76 123.19C233.564 121.143 236.877 120.119 240.445 120.375L244.269 120.631C244.269 120.631 230.76 119.607 229.231 126.26C227.701 132.913 230.76 133.168 230.76 133.168C230.76 133.168 237.642 129.075 243.249 132.145C243.249 132.145 225.153 129.586 226.427 140.333C227.192 146.985 234.583 150.823 240.191 152.87L249.876 203.276C247.837 205.323 245.543 207.114 243.249 208.905L249.366 225.281C252.935 235.004 251.915 246.006 246.308 254.45L242.23 260.59L275.364 268.266C276.384 268.522 277.403 268.778 278.423 269.034L280.462 269.546V269.29C284.54 269.546 288.618 268.778 292.696 266.987C304.166 261.87 310.793 249.844 308.499 237.562ZM244.014 144.938L243.504 145.194L241.72 143.147L244.014 144.938Z" fill="#FFAC79"/>
<path opacity="0.51" d="M242.482 166.174L261.853 154.916L239.934 152.869" fill="#FF8970"/>
<path d="M245.799 133.68C244.78 132.912 243.505 132.4 242.231 132.145C240.956 131.889 239.682 131.633 238.153 131.633C236.878 131.633 235.349 131.889 234.075 132.145C232.8 132.4 231.526 132.912 230.251 133.68C229.742 133.936 229.232 133.68 228.977 133.168C228.722 132.656 228.977 132.145 229.487 131.889C230.761 131.377 232.29 130.865 233.565 130.354C235.094 130.098 236.623 129.842 237.898 129.842C239.427 129.842 240.956 130.098 242.231 130.609C243.76 131.121 245.034 131.633 246.309 132.656C246.564 132.912 246.819 133.424 246.564 133.68C246.564 133.936 246.309 133.936 245.799 133.68Z" fill="#FF755F"/>
<path d="M245.287 121.141C244.013 120.629 242.739 120.374 241.464 120.374C240.19 120.374 238.661 120.629 237.386 120.885C236.112 121.141 234.837 121.653 233.563 122.421C232.288 123.188 231.269 123.956 230.249 124.723C229.74 124.979 229.23 124.979 228.975 124.467C228.72 123.956 228.72 123.444 229.23 123.188C230.504 122.421 231.524 121.397 233.053 120.885C234.328 120.118 235.857 119.862 237.131 119.35C238.661 119.094 240.19 118.838 241.464 119.094C242.994 119.094 244.268 119.606 245.797 120.118C246.052 120.374 246.307 120.629 246.052 120.885C246.052 121.141 245.542 121.141 245.287 121.141Z" fill="#FF755F"/>
<path opacity="0.32" d="M249.365 202.509L259.306 237.563L246.562 205.323L249.365 202.509Z" fill="#FF755F"/>
<path d="M174.685 272.616L209.604 275.942C212.917 276.198 215.721 273.895 215.976 270.825L223.623 193.041C223.877 189.715 221.583 186.9 218.525 186.644L183.606 183.318C180.293 183.062 177.489 185.365 177.234 188.435L169.588 266.219C169.078 269.545 171.372 272.36 174.685 272.616Z" fill="#390028"/>
<path opacity="0.47" d="M205.781 196.368L215.977 197.391C217.251 197.647 218.525 196.624 218.78 195.089C219.035 193.809 218.016 192.53 216.486 192.274L206.291 191.25C205.017 190.995 203.742 192.018 203.487 193.553C203.487 194.833 204.252 196.112 205.781 196.368Z" fill="#E1E2FE"/>
<path d="M216.116 193.544C215.417 193.474 214.792 193.986 214.722 194.689C214.652 195.392 215.163 196.019 215.863 196.089C216.563 196.159 217.187 195.646 217.257 194.944C217.327 194.241 216.816 193.614 216.116 193.544Z" fill="#390028"/>
<path d="M230.502 239.353C229.738 237.306 227.699 236.538 225.914 237.05L229.228 235.515C231.267 234.492 232.032 231.933 231.012 229.374C230.502 228.351 229.738 227.327 228.973 226.816C231.012 226.048 232.032 223.233 231.012 220.675C229.993 218.116 227.699 216.837 225.66 217.86L223.875 218.628C225.914 217.86 226.934 215.046 225.914 212.487C224.895 209.928 222.601 208.649 220.562 209.672L188.702 222.978C187.937 223.233 175.448 222.978 174.173 213.51L171.879 216.837C169.331 218.116 167.801 222.21 166.272 226.56C165.507 228.862 164.743 231.165 164.233 233.468L126.001 245.494L73.24 231.421L51.3202 280.804C44.6932 298.203 54.8885 318.16 73.7498 325.325C83.1804 328.907 92.8659 328.139 100.767 324.045C103.316 323.022 105.61 321.742 107.904 320.207L174.428 274.407V274.151C193.035 276.198 220.817 251.635 224.895 247.285L229.483 244.982C230.757 243.959 231.522 241.4 230.502 239.353Z" fill="#FFAC79"/>
<path d="M208.583 226.048C208.073 226.048 207.818 225.792 207.563 225.281C207.308 224.513 207.563 223.745 208.328 223.49L224.64 216.837C225.405 216.581 225.915 216.837 226.425 217.605C226.68 218.372 226.425 219.14 225.66 219.396L209.348 226.048C209.093 226.048 208.838 226.048 208.583 226.048Z" fill="#FF755F"/>
<path d="M211.131 235.26C210.621 235.26 210.366 235.004 210.111 234.493C209.856 233.725 210.111 232.957 210.876 232.702L227.188 226.049C227.953 225.793 228.463 226.049 228.973 226.817C229.227 227.584 228.972 228.352 228.208 228.608L211.895 235.26C211.386 235.26 211.131 235.26 211.131 235.26Z" fill="#FF755F"/>
<path d="M211.13 245.238C210.621 245.238 210.366 244.982 210.111 244.471C209.856 243.703 210.111 242.935 210.62 242.68L226.678 235.259C227.443 235.004 228.207 235.259 228.462 235.771C228.717 236.539 228.462 237.306 227.952 237.562L211.895 244.982C211.385 245.238 211.13 245.494 211.13 245.238Z" fill="#FF755F"/>
<path opacity="0.28" d="M126.002 245.75L114.787 242.68L84.4561 258.799L126.002 245.75Z" fill="#FF755F"/>
</svg>
