<svg width="131" height="122" viewBox="0 0 131 122" fill="none" xmlns="http://www.w3.org/2000/svg">
<path fill-rule="evenodd" clip-rule="evenodd" d="M128.727 80.5154L119.743 75.3022C114.307 65.2086 100.554 57.2225 83.1393 54.1167L71.8255 47.5725C68.8307 45.7978 63.9503 45.7978 60.8446 47.5725L49.5308 54.1167C32.1165 57.3334 18.3626 65.2086 12.8166 75.3022L2.27931 81.4028C-0.7155 83.1775 -0.7155 85.9505 2.27931 87.7252L12.262 93.493C17.4752 104.474 32.3384 113.126 51.3055 116.12L59.1808 120.668C62.1756 122.443 67.056 122.443 70.1618 120.668L77.0387 116.675C99.3334 114.124 116.97 104.03 121.295 91.1637L128.727 86.8378C131.722 85.174 131.722 82.2901 128.727 80.5154Z" fill="#E35F26"/>
<path fill-rule="evenodd" clip-rule="evenodd" d="M66.2804 109.687C95.3412 109.687 119.189 95.9333 119.189 79.1846C119.189 62.3249 95.4521 48.6819 66.2804 48.6819C37.2197 48.6819 13.3721 62.4358 13.3721 79.1846C13.483 95.9333 37.2197 109.687 66.2804 109.687Z" fill="#E15A27"/>
<path fill-rule="evenodd" clip-rule="evenodd" d="M66.2789 48.5712C94.6741 48.5712 117.856 61.5487 119.076 77.7429C117.856 93.9371 94.6741 106.915 66.2789 106.915C37.8836 106.915 14.7016 93.9371 13.4814 77.7429C14.7016 61.5487 37.8836 48.5712 66.2789 48.5712Z" fill="#F28221"/>
<path fill-rule="evenodd" clip-rule="evenodd" d="M66.2791 101.479C95.4507 101.479 119.298 89.1675 119.298 73.9716C119.298 58.7757 95.4507 46.4637 66.2791 46.4637C37.1074 46.4637 13.2598 58.7757 13.2598 73.9716C13.2598 89.1675 37.1074 101.479 66.2791 101.479Z" fill="#F8D798"/>
<path fill-rule="evenodd" clip-rule="evenodd" d="M2.27931 69.4239C-0.7155 71.1986 -0.7155 73.9715 2.27931 75.7463L59.1808 108.8C62.1756 110.575 67.056 110.575 70.1618 108.8L128.727 74.9698C131.722 73.1951 131.722 70.4221 128.727 68.6474L71.8255 35.5936C68.8307 33.8189 63.9503 33.8189 60.8446 35.5936L2.27931 69.4239Z" fill="#F5C017"/>
<path fill-rule="evenodd" clip-rule="evenodd" d="M2.27931 66.4294C-0.7155 68.2041 -0.7155 70.977 2.27931 72.7517L59.1808 105.806C62.1756 107.58 67.056 107.58 70.1618 105.806L128.727 71.9753C131.722 70.2006 131.722 67.4276 128.727 65.6529L71.8255 32.5991C68.8307 30.8244 63.9503 30.8244 60.8446 32.5991L2.27931 66.4294Z" fill="#F7CF27"/>
<path fill-rule="evenodd" clip-rule="evenodd" d="M66.5009 42.9132C95.3398 42.9132 118.633 55.6688 118.633 71.4193C118.633 74.0814 117.967 76.5216 116.969 78.74L83.5824 98.0399C82.5842 98.2617 81.5859 98.4836 81.2531 98.5945C81.1422 98.7054 81.0313 98.7054 80.8095 98.7054C80.1439 98.7054 69.6066 99.0382 69.163 99.4819C69.052 99.26 67.8319 99.5928 67.721 99.5928H67.8319C66.0572 99.5928 60.1785 98.7054 58.8475 99.4819H58.9584C58.2929 99.4819 56.9619 99.1491 56.4073 99.26C55.1872 98.5945 50.6395 98.7054 49.3084 98.1508C49.1975 98.0399 46.0918 97.3744 44.0953 96.8198L19.3603 82.5112C19.1385 81.6239 18.1402 81.2911 17.3638 80.7366C15.5891 77.8527 14.4799 74.7469 14.4799 71.3084C14.369 55.6689 37.6619 42.9132 66.5009 42.9132Z" fill="#E49A25"/>
<path fill-rule="evenodd" clip-rule="evenodd" d="M124.846 63.4344C125.4 63.989 125.733 64.6545 125.4 65.0981C125.179 65.4309 124.957 65.5418 124.735 65.6527H124.624C124.513 65.6527 124.513 65.6527 124.513 65.6527C123.293 65.9855 121.629 66.0964 120.187 65.9855C120.853 66.8728 121.851 67.8711 122.517 68.5366C124.069 70.2004 124.18 70.6441 123.515 70.4222C123.404 70.6441 121.74 70.4223 119.633 70.0895C120.409 70.755 120.853 71.4205 120.076 71.5314C119.965 71.7533 117.525 71.8642 115.085 71.7533C115.418 71.8642 115.64 71.8642 115.972 71.9751C120.409 73.0843 121.075 74.0826 119.744 74.3044C119.078 74.6372 115.529 74.7481 113.643 74.4153C113.199 76.5228 112.645 80.0722 111.757 80.294C111.647 80.294 111.647 80.294 111.536 80.294C111.425 80.294 111.425 80.1831 111.314 80.1831C110.537 79.6285 109.65 78.7412 108.541 77.7429C108.319 78.963 108.208 80.1831 107.764 79.7394C106.766 79.2958 105.99 79.0739 105.324 78.963C105.213 80.405 105.102 81.8469 104.326 81.4032C95.5633 78.963 83.2513 75.7464 75.0433 73.3061C73.1576 72.7515 69.6082 71.7533 69.0537 70.6441C68.61 69.7567 67.8335 68.9803 67.3899 67.982C67.168 67.4274 66.5025 64.7654 66.3916 64.8763C69.3864 61.6596 72.3812 60.2177 75.9306 59.5522C79.9237 58.5539 84.5823 58.7757 90.9047 59.2194C100 59.774 106.101 58.8867 114.752 57.5556H114.974L124.846 63.4344Z" fill="#E49A25"/>
<path fill-rule="evenodd" clip-rule="evenodd" d="M7.49211 63.5449C6.93752 64.2104 6.272 64.8759 5.7174 65.4305C4.16454 67.0943 4.05363 67.5379 4.71914 67.3161C4.83006 67.5379 6.49384 67.3161 8.6013 66.9833C7.82487 67.6488 7.3812 68.3144 8.15763 68.4253C8.26855 68.6471 10.7088 68.758 13.149 68.6471C12.8162 68.758 12.5944 68.758 12.2616 68.869C7.82486 69.9782 7.15935 70.9764 8.49038 71.1983C9.15589 71.531 12.7053 71.642 14.5909 71.3092C15.0346 73.4167 15.5892 76.966 16.4766 77.1879C16.5875 77.1879 16.5875 77.1879 16.6984 77.1879C16.8093 77.1879 16.8093 77.077 16.9202 77.077C17.6967 76.5224 18.584 75.635 19.6932 74.6368C19.915 75.8569 20.0259 77.077 20.4696 76.6333C21.4679 76.1896 22.2443 75.9678 22.9098 75.8568C23.0208 77.2988 23.1317 78.7408 23.9081 78.2971C32.6707 75.8569 44.9827 72.6402 53.1907 70.2C55.0763 69.6454 58.6258 68.6471 59.1804 67.5379C59.624 66.6506 60.4005 65.8741 60.8442 64.8759C61.066 64.3213 61.7315 61.6592 61.8424 61.7702C58.8476 58.5535 55.8528 57.1115 52.3034 56.446C48.3103 55.3368 43.6517 55.6696 37.3293 56.1133C31.1178 56.446 26.4593 56.2242 21.2461 55.5587L7.49211 63.5449Z" fill="#E49A25"/>
<path fill-rule="evenodd" clip-rule="evenodd" d="M66.2794 41.8041C95.1183 41.8041 118.411 54.5597 118.411 70.3102C118.411 81.1803 107.985 88.8337 98.6677 92.7159C97.7803 92.7159 96.3384 93.1596 95.6729 93.8251L95.8947 93.6032C95.3401 93.6032 94.7855 93.4923 94.3419 93.7141C93.8982 93.936 93.3436 94.2687 92.8999 94.7124C92.8999 94.7124 90.9034 95.0452 90.7925 95.0452C89.7942 95.5998 88.4632 95.1561 87.4649 96.1544C87.4649 96.1544 85.1356 96.709 85.0247 96.8199C84.8028 96.5981 81.5862 97.2635 80.9207 97.5963C80.8097 97.7072 80.6988 97.7072 80.477 97.7072C79.8115 97.7072 69.2742 98.04 68.8305 98.4837C68.7196 98.3728 67.4995 98.4837 67.3886 98.5946H67.4995C65.7248 98.5946 59.8461 97.7072 58.5151 98.4837H58.626C57.9605 98.4837 56.6294 98.1509 56.0748 98.2618C54.8547 97.5963 50.307 97.7072 48.976 97.1526C48.7542 96.9308 42.9864 95.7107 42.2099 95.4889C41.7663 95.0452 39.5479 94.6015 38.7715 94.2687C38.5496 94.1578 38.3278 94.0469 38.106 93.936C35.2221 92.9377 30.8962 91.7176 28.6779 89.7211C28.6779 89.4992 27.9014 88.8337 27.5687 88.7228C27.125 88.501 26.4594 88.39 26.0158 88.6119C24.6847 87.7245 23.5756 86.2826 22.1336 85.3952C21.9118 84.9515 21.8009 84.5079 21.3572 84.286C21.0244 83.9533 20.3589 83.9533 20.1371 83.6205C20.1371 82.6222 19.3606 82.2895 18.806 81.7349L19.0279 81.9567C19.0279 80.6257 17.8078 80.4039 17.0314 79.7383C15.2567 76.8545 14.1475 73.7487 14.1475 70.3102C14.1475 54.6707 37.4404 41.8041 66.2794 41.8041Z" fill="#8A1930"/>
<path fill-rule="evenodd" clip-rule="evenodd" d="M66.2792 35.9267C95.1181 35.9267 118.411 48.0169 118.411 62.9909C118.411 77.0776 97.4474 88.7241 70.8269 89.9442C68.8303 89.2787 65.9464 90.4988 64.0608 89.7224C62.8407 89.0569 61.6206 90.3879 60.6223 89.6115C59.6241 88.2804 58.293 90.0551 57.0729 89.3896C56.4074 89.0569 55.2982 88.9459 54.6327 89.2787H54.7436C53.5235 89.2787 50.9724 88.6132 49.7523 88.2804C48.754 87.1712 47.6448 87.9477 47.0902 87.6149L47.2011 87.504C46.3138 87.504 44.7609 86.173 44.0954 86.9494C42.8753 86.6166 41.3224 86.7276 40.1023 86.2839C39.4368 85.0638 37.8839 86.062 37.1075 85.2856C36.8857 85.2856 36.3311 84.8419 35.8874 84.8419C22.799 79.9615 14.2582 71.9754 14.2582 62.88C14.1473 48.0169 37.4403 35.9267 66.2792 35.9267Z" fill="#9F1E2F"/>
<path fill-rule="evenodd" clip-rule="evenodd" d="M57.7397 55.7812C57.7397 55.7812 57.6288 55.6703 57.6288 55.5594L57.5179 55.4485L57.407 55.3375C57.296 55.2266 57.1851 55.0048 57.0742 54.8939C56.7414 54.4502 56.5196 54.0065 56.2978 53.5629L56.1868 53.4519C54.0794 50.1244 50.4191 44.6893 42.5438 44.8002C21.9129 45.0221 15.9233 56.114 14.8141 64.7656C14.7032 65.5421 14.7031 66.3185 14.925 67.0949C14.925 67.2059 14.925 67.3168 14.8141 67.5386C13.8158 75.192 25.1295 83.8437 36.1105 85.0638C48.4225 86.3949 65.9477 81.0707 69.3862 72.1972C70.0517 70.4225 70.1626 68.9806 69.9408 67.7605C71.1609 61.8818 65.0604 59.9961 60.7345 57.7778L60.6236 57.6668H60.5127L60.2909 57.5559H60.1799L60.069 57.445L59.9581 57.3341C59.7362 57.2232 59.6253 57.1122 59.5144 57.0013C59.2926 56.8904 59.1817 56.7795 59.0707 56.6686C58.9598 56.5576 58.8489 56.5576 58.8489 56.4467C58.738 56.3358 58.738 56.3358 58.6271 56.2249C58.5162 56.114 58.5161 56.114 58.4052 56.114C57.8506 55.8921 57.7397 55.7812 57.7397 55.7812Z" fill="#7A212F"/>
<path fill-rule="evenodd" clip-rule="evenodd" d="M68.0537 62.3252C68.0537 62.3252 68.1645 62.2143 68.1645 62.1034L68.2755 61.9924L68.3864 61.8815C68.4973 61.7706 68.6082 61.5488 68.7191 61.4378C69.0519 60.9942 69.2738 60.5505 69.4956 60.1068L69.6065 59.9959C71.714 56.6683 75.3743 51.2333 83.2495 51.3442C103.88 51.5661 109.87 62.658 110.979 71.3096C111.09 72.0861 111.09 72.8625 110.868 73.6389C110.868 73.7498 110.868 73.8608 110.979 74.0826C111.978 81.736 100.664 90.3877 89.6829 91.6078C77.3709 92.9388 59.8457 87.6147 56.4072 78.7412C55.7417 76.9665 55.6307 75.5245 55.8526 74.3044C54.6325 68.4257 60.733 66.5401 65.0588 64.3217L65.1698 64.2108H65.2807L65.5025 64.0999H65.6134L65.7244 63.989L65.8353 63.8781C66.0571 63.7671 66.168 63.6562 66.2789 63.5453C66.5008 63.4344 66.6117 63.3235 66.7226 63.2125C66.8335 63.1016 66.9445 63.1016 66.9445 62.9907C67.0554 62.8798 67.0554 62.8798 67.1663 62.7689C67.2772 62.658 67.2772 62.6579 67.3881 62.6579C67.9427 62.4361 67.9427 62.3252 68.0537 62.3252Z" fill="#7A212F"/>
<path fill-rule="evenodd" clip-rule="evenodd" d="M53.746 56.3365C52.0822 54.6727 48.8656 45.1337 38.5501 45.2446C17.9192 45.4664 11.9296 56.5583 10.8204 65.21C9.82209 72.8634 21.1358 81.5151 32.1168 82.7352C44.4288 84.0662 61.954 78.7421 65.3925 69.8686C68.831 60.9951 57.5172 60.1078 53.746 56.3365Z" fill="#D32128"/>
<path fill-rule="evenodd" clip-rule="evenodd" d="M53.746 53.6732C52.0822 52.0094 48.8656 42.4704 38.5501 42.5813C17.9192 42.8032 11.9296 53.895 10.8204 62.5467C9.82209 70.2001 21.1358 78.8518 32.1168 80.0719C44.4288 81.403 61.954 76.0789 65.3925 67.2053C68.831 58.2209 57.5172 57.3335 53.746 53.6732Z" fill="#EC1D25"/>
<path fill-rule="evenodd" clip-rule="evenodd" d="M52.1938 54.3389C50.7518 52.8969 47.757 44.1343 38.3289 44.2452C19.5836 44.4671 14.0376 54.5607 12.9285 62.5469C12.0411 69.5348 22.3566 77.5209 32.3393 78.6301C43.653 79.8502 59.5144 74.9698 62.7311 66.9836C65.9477 58.5538 55.7432 57.7774 52.1938 54.3389Z" fill="#F17761"/>
<path fill-rule="evenodd" clip-rule="evenodd" d="M42.7654 55.2263C41.4344 53.4516 39.4378 51.566 36.3321 51.4551C25.9057 51.0114 23.3546 57.001 23.2437 61.6596C23.1327 65.7636 29.3442 70.8659 35.0011 71.7532C41.3235 72.8624 50.9734 71.0877 52.1935 66.3182C52.859 63.7671 50.6407 61.6596 48.9769 60.5504C51.0843 58.7757 53.7464 56.8901 56.6303 55.4481C55.5211 54.8935 54.4119 54.228 53.7464 53.4516C53.3027 53.0079 52.859 52.1206 52.0826 51.0114C48.9769 52.6752 46.2039 54.2281 42.7654 55.2263Z" fill="#F7BA9A"/>
<path fill-rule="evenodd" clip-rule="evenodd" d="M41.7671 54.4507C44.651 47.0191 37.4413 43.5806 26.0166 50.1248C18.0304 54.6725 17.5868 58.9983 19.4724 64.877C20.6925 68.5374 27.4586 64.877 25.9057 62.215C21.4689 54.2288 36.9976 46.9082 36.7758 55.6708C36.8867 57.1127 40.8798 56.78 41.7671 54.4507Z" fill="#EC1D25"/>
<path fill-rule="evenodd" clip-rule="evenodd" d="M50.3082 62.1033C61.1783 63.6562 62.5093 69.5349 48.9772 73.7498C39.5491 76.6337 33.7813 75.0809 27.0152 71.3096C22.8003 68.9803 30.5646 66.3183 33.3376 68.4257C41.6565 74.6372 58.0725 68.3148 46.6479 64.6545C44.5404 63.989 46.7588 61.6597 50.3082 62.1033Z" fill="#EC1D25"/>
<path fill-rule="evenodd" clip-rule="evenodd" d="M75.0415 65.6527C76.7053 63.9889 79.9219 54.4499 90.2374 54.5608C110.868 54.7826 116.858 65.8745 117.967 74.5262C118.965 82.1796 107.652 90.8313 96.6707 92.0514C84.3587 93.3824 66.8335 88.0583 63.395 79.1848C59.9565 70.3112 71.2703 69.4239 75.0415 65.6527Z" fill="#D32128"/>
<path fill-rule="evenodd" clip-rule="evenodd" d="M75.0415 62.9904C76.7053 61.3267 79.9219 51.7876 90.2374 51.8985C110.868 52.1204 116.858 63.2123 117.967 71.864C118.965 79.5174 107.652 88.169 96.6707 89.3891C84.3587 90.7202 66.8335 85.3961 63.395 76.5225C59.9565 67.649 71.2703 66.6508 75.0415 62.9904Z" fill="#EC1D25"/>
<path fill-rule="evenodd" clip-rule="evenodd" d="M76.595 63.7666C78.1479 62.3247 81.0318 53.5621 90.4599 53.673C109.205 53.8948 114.751 63.9885 115.86 71.9746C116.748 78.9625 106.432 86.9487 96.4495 88.0579C85.1358 89.278 69.2744 84.3976 66.0577 76.4114C62.8411 67.9816 73.1565 67.0942 76.595 63.7666Z" fill="#F17761"/>
<path fill-rule="evenodd" clip-rule="evenodd" d="M86.0221 64.6541C87.3531 62.8794 89.3497 60.9937 92.4554 60.8828C102.882 60.4391 105.433 66.4287 105.544 71.0873C105.655 75.1913 99.4433 80.2936 93.7864 81.181C87.464 82.2902 77.8141 80.5155 76.594 75.746C75.9285 73.1948 78.1468 71.0873 79.8106 69.9782C77.7032 68.2035 75.0411 66.3178 72.1572 64.8759C73.2664 64.3213 74.3756 63.6558 75.0411 62.8793C75.4848 62.4357 75.9285 61.5483 76.7049 60.4391C79.9216 61.992 82.5836 63.5449 86.0221 64.6541Z" fill="#F7BA9A"/>
<path fill-rule="evenodd" clip-rule="evenodd" d="M87.022 63.7668C84.1381 56.3353 91.3479 52.8968 102.773 59.441C110.759 63.9887 111.202 68.3145 109.317 74.1932C108.208 77.8535 101.331 74.1932 102.883 71.5312C107.32 63.545 91.7915 56.2243 92.0134 64.9869C92.0134 66.4289 87.9094 66.207 87.022 63.7668Z" fill="#EC1D25"/>
<path fill-rule="evenodd" clip-rule="evenodd" d="M78.5908 71.4204C67.7207 72.9733 66.3897 78.852 79.9218 83.0669C89.3499 85.9508 95.1177 84.398 101.884 80.6267C106.099 78.2974 98.4453 75.6354 95.5614 77.7428C87.2424 83.9543 70.8264 77.6319 82.2511 73.9716C84.2476 73.3061 82.1402 70.9768 78.5908 71.4204Z" fill="#EC1D25"/>
<path fill-rule="evenodd" clip-rule="evenodd" d="M76.8172 59.4409C81.254 59.4409 84.8034 57.5552 84.8034 55.3369C84.8034 53.0076 81.254 51.2329 76.8172 51.2329C72.3805 51.2329 68.8311 53.1185 68.8311 55.3369C68.8311 57.5552 72.3805 59.4409 76.8172 59.4409Z" fill="#EB1D25"/>
<path fill-rule="evenodd" clip-rule="evenodd" d="M4.27688 44.9098C11.0429 44.1334 16.478 44.1334 9.82283 44.4661C8.04812 44.5771 2.724 51.6759 4.60962 52.2305C6.828 52.896 10.3774 52.3414 11.5975 51.2322C18.2526 45.5753 10.7102 53.3396 9.04638 56.4454C8.15903 58.2201 6.49523 58.7747 6.60615 59.1075C6.93891 59.9948 16.9216 55.7799 18.2526 54.1161C21.0256 50.6776 18.6963 52.1195 14.3705 56.1126C12.9285 57.4437 10.2665 59.4402 10.5992 60.1057C10.8211 60.5494 18.5854 59.8839 20.9147 58.5529C26.7934 55.2253 23.1331 57.5546 16.8107 60.6603C13.0395 62.435 10.8211 63.9879 11.4866 64.3206C12.5958 64.9861 20.8038 64.0988 19.0291 61.8804C18.5854 61.3258 20.3601 73.0833 21.3584 71.8631C22.6894 70.3103 24.1314 67.87 25.9061 64.4316C27.5699 64.7643 24.2423 71.3085 25.2406 70.643C33.6704 64.8752 27.0153 73.7487 29.2336 72.6396C38.2181 67.981 50.9737 61.6586 59.4036 57.1109C61.4001 56.1126 64.9495 54.1161 65.3932 52.4523C65.726 51.1213 66.5024 49.9012 66.7242 48.3483C66.8352 47.461 67.1679 43.5788 67.2788 43.6897C59.5145 35.038 52.9703 36.5909 41.5456 38.9202C31.7848 40.9167 25.1296 40.3621 15.5906 39.4748C9.82281 39.142 3.38952 39.4748 4.27688 44.9098Z" fill="#489645"/>
<path fill-rule="evenodd" clip-rule="evenodd" d="M4.27634 44.9104C5.94012 39.1426 10.8206 41.361 8.1585 44.134C7.04931 45.3541 2.16887 49.4581 3.61082 51.3437C4.49817 52.4529 5.27461 52.5638 6.49472 51.4546C13.1499 45.7978 9.15676 52.8966 7.49298 56.1133C4.16541 62.4356 8.93492 57.2224 10.7096 54.8931C13.4826 51.4546 17.1429 51.6765 12.8171 55.7805C10.4878 57.9989 7.93666 62.2138 13.7044 58.8862C19.5832 55.5587 21.5797 57.2224 15.1464 60.3282C6.60562 64.4322 12.2625 66.096 17.3648 61.5483C17.9194 61.1046 20.8033 77.4097 22.0234 69.9781C22.3561 67.8707 19.5832 63.8776 22.578 64.3212C24.2418 64.654 24.5745 74.5258 25.6837 69.2017C27.5693 60.3282 27.5693 74.3039 29.2331 72.5292C35.2227 66.4287 49.3094 61.2155 57.7393 56.7788C59.7358 55.7805 63.2852 53.7839 63.7289 52.1202C64.0616 50.7891 64.8381 49.569 65.0599 48.0162C65.1708 47.1288 65.5036 43.1357 65.6145 43.3576C57.8502 34.7059 51.306 36.2588 39.8813 38.5881C30.1204 40.5846 23.4653 40.03 13.9263 39.1427C8.15848 38.8099 3.38898 39.4754 4.27634 44.9104Z" fill="#8AC640"/>
<path fill-rule="evenodd" clip-rule="evenodd" d="M9.04681 40.6956C16.5893 39.6973 21.026 41.4721 26.0174 41.9157C27.903 42.0266 30.0105 41.6939 31.7852 41.6939C33.1162 41.8048 34.78 41.3611 32.3398 41.9157C25.4628 43.4686 19.1405 42.1375 12.5962 43.2467C9.93418 43.6904 7.16118 47.1289 8.27037 45.2433C8.93588 44.1341 10.2669 41.2502 9.04681 40.6956Z" fill="#CED629"/>
<path fill-rule="evenodd" clip-rule="evenodd" d="M10.4883 49.1253C13.594 47.5725 16.8107 47.3506 19.0291 46.907C23.3549 45.9087 27.9026 44.9104 32.1175 43.6903C37.1088 42.2483 28.0135 45.2432 26.9043 45.5759C22.5785 47.1288 20.2492 47.6834 16.0342 49.4581C15.2578 49.7908 11.3756 51.8983 10.7101 52.0092C10.2665 51.2328 11.3756 49.6799 10.4883 49.1253Z" fill="#CED629"/>
<path fill-rule="evenodd" clip-rule="evenodd" d="M14.9246 52.453C18.1412 51.011 21.247 50.5673 23.4654 50.0127C24.4636 49.7909 25.351 49.2363 26.3493 49.0145C27.2366 48.6817 28.2349 48.349 26.682 49.1254C24.1309 50.4564 21.5797 51.8983 19.1395 53.1185L14.37 55.5587C13.9263 55.6696 16.0338 53.1185 14.9246 52.453Z" fill="#CED629"/>
<path fill-rule="evenodd" clip-rule="evenodd" d="M21.5811 64.2104C23.023 63.2122 24.5759 62.5467 26.0178 61.4375L36.0005 54.0059L39.2172 51.6766L37.2206 53.3404L24.6868 64.0995C22.2466 66.4288 24.354 63.7668 21.5811 64.2104Z" fill="#CED629"/>
<path fill-rule="evenodd" clip-rule="evenodd" d="M27.0153 65.8733C28.1245 65.2078 30.3429 64.3205 31.2302 63.5441C33.2267 61.7694 35.1124 60.6601 37.4417 59.2182C40.8802 57.1107 33.4486 62.7676 32.4503 63.8768C31.563 64.8751 30.6756 66.4279 30.0101 67.648C29.1227 69.2009 28.9009 69.2009 28.4572 67.5371C28.2354 66.8716 26.5716 65.8733 27.0153 65.8733Z" fill="#CED629"/>
<path fill-rule="evenodd" clip-rule="evenodd" d="M17.6975 61.548C20.0268 59.5515 23.5762 59.1078 25.4618 56.8894C26.6819 55.4475 29.1222 55.0038 30.675 54.3383C32.2279 53.6728 29.4549 55.4475 29.2331 55.6693C26.3492 57.5549 23.2435 60.5498 20.8032 62.99C20.0268 63.7664 19.805 64.5428 19.1395 62.7681C19.0285 62.3245 17.5866 61.548 17.6975 61.548Z" fill="#CED629"/>
<path fill-rule="evenodd" clip-rule="evenodd" d="M126.398 43.1373C120.187 43.1373 115.195 43.8029 121.296 43.3592C122.96 43.2483 128.617 49.127 126.953 49.7925C124.956 50.5689 121.629 50.458 120.409 49.6816C113.642 45.2448 121.407 51.4563 123.292 54.1183C124.402 55.5603 125.844 55.893 125.733 56.2258C125.511 57.0022 115.972 54.3402 114.53 53.0092C111.646 50.1253 113.864 51.2344 118.301 54.4511C119.743 55.4494 122.405 57.0022 122.183 57.6677C122.072 58.1114 114.863 58.3333 112.644 57.335C106.987 54.8948 110.426 56.6695 116.637 58.7769C120.298 59.997 122.405 61.1062 121.961 61.439C121.074 62.1045 113.421 62.2154 114.752 60.108C115.084 59.5534 114.752 70.3125 113.753 69.3142C112.422 67.9832 110.869 65.9866 108.762 63.1028C107.32 63.5464 110.98 69.0924 109.982 68.5378C101.552 64.212 108.651 71.5326 106.544 70.7562C97.781 67.5395 85.469 63.2137 77.261 60.108C75.3754 59.3315 71.826 58.0005 71.2714 56.5585C70.8277 55.4494 69.9404 54.3402 69.6076 53.0092C69.3858 52.2327 68.7203 48.6833 68.6094 48.9051C74.8208 40.3644 80.9214 41.0299 91.6805 41.8063C100.776 42.4718 106.876 41.3627 115.528 39.588C120.63 38.4788 126.62 38.146 126.398 43.1373Z" fill="#489645"/>
<path fill-rule="evenodd" clip-rule="evenodd" d="M126.399 43.1374C124.292 38.1461 120.077 40.5863 122.739 42.9156C123.959 43.9139 128.728 47.0196 127.73 48.9052C127.065 50.0144 126.399 50.1253 125.068 49.3489C118.302 44.9121 122.85 51.0127 124.735 53.6747C128.506 58.9988 123.515 54.7839 121.629 53.0092C118.746 50.1253 115.418 50.7908 119.855 54.0075C122.295 55.7822 125.068 59.2207 119.411 56.8914C113.754 54.4512 112.09 56.2259 118.191 58.3333C126.51 61.1063 121.408 63.2138 116.305 59.6644C115.751 59.3316 114.863 74.3057 112.978 67.6505C112.423 65.8758 114.531 61.8827 111.869 62.6592C110.427 63.1028 111.092 71.9764 109.539 67.3178C106.877 59.5534 108.43 72.0873 106.655 70.7563C100.444 65.8758 87.0228 62.7701 78.8148 59.6644C76.9291 58.8879 73.3797 57.5569 72.8251 56.115C72.3815 55.0058 71.4941 53.8966 71.1614 52.5655C70.9395 51.7891 70.274 48.2397 70.1631 48.4615C76.3745 39.9208 82.4751 40.5863 93.2342 41.3627C102.33 42.0283 108.43 40.9191 117.082 39.1444C122.073 38.0352 126.621 38.1461 126.399 43.1374Z" fill="#8AC640"/>
<path fill-rule="evenodd" clip-rule="evenodd" d="M121.517 39.8098C114.418 39.6989 110.647 41.8064 106.099 42.6937C104.435 43.0265 102.439 42.9155 100.886 43.1374C99.6658 43.3592 98.113 43.1374 100.442 43.3592C106.987 44.0248 112.532 42.1391 118.633 42.4719C121.184 42.5828 123.957 45.3558 122.848 43.8029C122.072 42.9156 120.408 40.4753 121.517 39.8098Z" fill="#CED629"/>
<path fill-rule="evenodd" clip-rule="evenodd" d="M121.074 47.5745C118.079 46.4653 115.084 46.6871 112.977 46.4653C108.873 46.0216 104.658 45.578 100.665 44.9124C96.0064 44.136 104.658 45.7998 105.656 46.1326C109.76 47.0199 111.979 47.3527 115.972 48.4619C116.748 48.6837 120.519 50.1257 121.074 50.2366C121.518 49.3492 120.409 48.1291 121.074 47.5745Z" fill="#CED629"/>
<path fill-rule="evenodd" clip-rule="evenodd" d="M117.303 50.9016C114.198 49.9033 111.314 49.9033 109.206 49.5706C108.319 49.4596 107.432 49.1269 106.433 48.905C105.546 48.7941 104.659 48.5723 106.101 49.1269C108.541 50.0142 111.092 51.1234 113.421 51.8999L118.08 53.5636C118.634 53.7855 116.527 51.678 117.303 50.9016Z" fill="#CED629"/>
<path fill-rule="evenodd" clip-rule="evenodd" d="M112.533 62.2146C111.091 61.4382 109.649 60.9945 108.207 60.2181L98.2245 54.6721L95.0078 52.8974L97.0043 54.2284L109.649 62.5474C112.2 64.2111 109.982 62.1037 112.533 62.2146Z" fill="#CED629"/>
<path fill-rule="evenodd" clip-rule="evenodd" d="M107.763 64.3234C106.654 63.8797 104.547 63.3251 103.659 62.6596C101.663 61.3286 99.7773 60.4413 97.448 59.443C94.0095 57.8901 101.441 62.2159 102.55 63.1033C103.438 63.8797 104.547 65.2108 105.212 66.209C106.211 67.5401 106.322 67.5401 106.654 65.9872C106.765 65.3217 108.207 64.2125 107.763 64.3234Z" fill="#CED629"/>
<path fill-rule="evenodd" clip-rule="evenodd" d="M115.861 59.4427C113.532 57.8898 110.204 57.8898 108.208 56.1151C106.877 55.0059 104.658 54.895 103.216 54.4513C101.663 54.0076 104.436 55.3387 104.658 55.4496C107.431 56.8915 110.759 59.2208 113.088 61.1064C113.864 61.661 114.197 62.4375 114.53 60.7737C114.752 60.2191 115.972 59.4427 115.861 59.4427Z" fill="#CED629"/>
<path fill-rule="evenodd" clip-rule="evenodd" d="M90.5721 78.0757C88.2428 73.1953 85.4698 69.535 88.3537 74.1936C89.1301 75.4137 82.6968 82.5125 81.0331 81.5142C79.1474 80.2941 78.0382 77.6321 78.8147 76.301C82.8078 69.0913 76.5963 77.8539 73.3797 80.5159C71.6049 82.0688 71.7159 83.2889 71.1613 83.3998C69.8302 83.6217 70.2739 74.8591 71.7159 73.1953C74.8216 69.6459 74.0452 71.8643 71.0503 76.7447C70.0521 78.2976 68.832 81.0706 67.7228 81.2924C67.0573 81.4033 64.0625 75.8573 64.6171 73.639C65.9481 68.093 64.8389 71.6424 64.0625 77.4102C63.6188 80.8487 62.8423 82.9562 62.0659 82.7343C60.7349 82.2906 57.7401 76.4119 61.4004 76.5229C62.2878 76.5229 46.4263 81.0705 47.4246 79.8504C48.7556 78.1866 51.1959 76.0792 54.6343 73.1953C53.4142 72.197 46.6482 77.6321 47.0918 76.6338C50.3085 68.093 42.2114 76.9665 42.5442 74.97C44.0971 66.6511 45.7608 55.0046 47.3137 47.1293C47.6464 45.3546 48.4229 41.9162 50.3085 40.807C51.8614 39.9196 53.0815 38.8104 54.8562 37.9231C55.9654 37.3685 60.8458 35.261 60.513 35.261C75.3762 36.2593 76.7072 41.3616 79.4802 50.2351C81.8095 57.6666 85.8026 61.8816 91.5704 67.9821C95.2307 71.5315 98.0037 76.0792 90.5721 78.0757Z" fill="#489645"/>
<path fill-rule="evenodd" clip-rule="evenodd" d="M90.5728 78.0763C97.0061 74.1941 91.9038 71.9757 89.5745 75.0815C88.5762 76.4125 85.8032 81.6257 82.5866 81.6257C80.701 81.6257 80.2573 81.182 81.0337 79.74C85.0268 72.5303 77.8171 78.7418 74.6004 81.4038C68.1671 86.7279 72.493 80.9601 74.4895 78.6308C77.5952 75.0814 75.3769 72.7521 72.3821 77.6326C70.7183 80.2946 66.6143 84.0659 67.9453 78.52C69.2763 72.974 66.0597 72.4194 65.3941 78.2981C64.3959 86.0624 59.4045 82.9567 62.7321 77.4108C63.0648 76.8562 40.7702 82.8458 49.7546 78.409C52.1948 77.1889 58.8499 77.078 56.6315 75.3033C55.4114 74.305 42.6558 78.9636 48.8672 75.5251C59.2936 69.8683 41.4356 76.7452 42.7667 74.7487C47.5362 67.7608 47.2034 55.7816 48.7563 47.9063C49.0891 46.1316 49.8655 42.6931 51.7511 41.5839C53.304 40.6966 54.5241 39.5874 56.2988 38.7C57.408 38.1454 62.2884 36.038 61.9557 36.038C76.8188 37.0362 78.1498 42.1385 80.9228 50.9011C83.2521 58.3327 87.2452 62.5476 93.013 68.6481C96.4515 72.5303 98.0043 76.0797 90.5728 78.0763Z" fill="#8AC640"/>
<path fill-rule="evenodd" clip-rule="evenodd" d="M93.6774 72.8628C91.2372 67.3168 86.8005 65.2094 83.6947 61.9927C82.5855 60.7726 82.0309 59.2197 81.0327 58.1105C80.2562 57.2232 80.0344 55.8922 80.4781 57.8887C81.92 63.3238 86.8005 66.7622 88.5752 71.7536C89.3516 73.7501 86.3568 77.2995 88.1315 75.6358C89.3516 74.5266 92.2355 72.3082 93.6774 72.8628Z" fill="#CED629"/>
<path fill-rule="evenodd" clip-rule="evenodd" d="M82.1423 75.9678C82.586 73.1948 81.255 70.8655 80.8113 69.0908C79.924 65.6523 79.0366 62.2138 78.3711 58.6644C77.7056 54.6713 78.482 62.2138 78.482 63.1011C78.7039 66.7615 79.0366 68.5362 78.8148 72.3074C78.8148 72.973 78.0383 76.6333 78.1492 77.0769C79.5912 77.0769 80.9222 75.635 82.1423 75.9678Z" fill="#CED629"/>
<path fill-rule="evenodd" clip-rule="evenodd" d="M75.7092 74.5266C75.931 71.6427 74.9327 69.3133 74.6 67.5386C74.4891 66.7622 74.6 65.8749 74.4891 65.0984C74.3781 64.322 74.3782 63.5456 74.1563 64.9875C73.7126 67.3168 73.158 69.757 72.7143 72.0863L72.0488 76.4122C72.0488 76.8558 74.2672 74.1938 75.7092 74.5266Z" fill="#CED629"/>
<path fill-rule="evenodd" clip-rule="evenodd" d="M57.4073 75.858C58.0728 74.416 58.0728 73.085 58.7383 71.5322L63.175 61.2167L64.5061 57.8891L63.286 59.9966L55.7435 73.6396C54.3015 76.4126 56.6308 73.7505 57.4073 75.858Z" fill="#CED629"/>
<path fill-rule="evenodd" clip-rule="evenodd" d="M52.5272 73.0853C52.7491 71.9761 52.86 70.0905 53.4146 69.0922C54.6347 66.8738 55.1893 65.0991 55.8548 62.7698C56.8531 59.4422 53.3036 67.2066 52.3054 68.4267C51.5289 69.5359 49.8651 70.8669 48.756 71.9761C47.2031 73.418 47.2031 73.529 49.6433 72.9744C50.6416 72.7525 52.86 73.3071 52.5272 73.0853Z" fill="#CED629"/>
<path fill-rule="evenodd" clip-rule="evenodd" d="M62.62 77.1896C63.9511 74.7494 62.8419 72.0873 64.6166 69.758C65.8367 68.2052 65.1712 66.4305 65.2821 64.9885C65.393 63.6575 64.5057 66.3196 64.3947 66.6523C63.3965 69.5362 61.0672 73.0856 59.2925 75.8586C58.7379 76.7459 57.7396 77.3006 60.2908 76.8569C61.0672 76.635 62.7309 77.1896 62.62 77.1896Z" fill="#CED629"/>
<path fill-rule="evenodd" clip-rule="evenodd" d="M13.1491 41.9155C13.0382 43.5793 11.8181 45.4649 11.8181 47.1287C11.8181 48.127 14.1474 47.2396 15.2566 47.2396C16.1439 47.2396 14.8129 51.7873 15.7003 51.6764C17.2531 51.5654 18.2514 51.8982 18.4732 53.4511C19.0278 58.997 20.4698 57.7769 23.7973 58.4424C24.6847 58.5533 24.4628 62.1027 26.0157 61.5481C29.2324 60.328 28.5669 65.3194 29.1215 64.8757C36.8858 59.6625 33.2254 69.978 37.6622 67.5378C40.2133 66.2067 43.43 65.7631 45.7593 63.8775C48.3104 61.8809 38.5496 50.0126 37.1076 48.0161C34.3346 44.1339 25.683 35.1494 20.9135 35.1494C18.4732 35.1494 15.1457 38.6988 11.4854 39.2534C13.4819 40.3626 13.1491 41.9155 13.1491 41.9155Z" fill="#489645"/>
<path fill-rule="evenodd" clip-rule="evenodd" d="M44.6498 68.9801C46.4245 69.3129 48.3101 68.4255 49.863 69.091C50.7503 69.4238 51.8595 68.8692 52.8578 68.8692C54.5216 68.8692 52.0814 72.0858 54.1889 71.4203C55.5199 70.9766 57.6273 69.4238 58.6256 68.7582C59.7348 67.8709 58.2928 67.9818 59.513 68.7582C60.0676 69.091 58.4038 71.4203 58.4038 71.9749C58.4038 72.7513 60.4003 71.0875 60.6221 70.9766C61.2877 70.533 62.3969 69.8675 63.0624 69.6456C64.2825 69.5347 63.9497 69.3128 63.9497 70.533C63.9497 70.8657 63.2842 72.6404 63.617 72.8623C63.8388 73.0841 65.5026 71.5312 65.7244 71.3094C66.3899 70.533 67.3882 69.4238 68.2755 70.3111C68.8301 70.8657 69.3848 72.5295 69.6066 73.3059C71.6031 72.1967 73.3778 70.533 74.9307 69.6456C75.818 69.2019 75.4853 70.3111 75.4853 70.9766C75.4853 71.5312 76.0399 72.3077 75.7071 72.4186C76.7054 71.7531 76.4836 72.1968 77.1491 71.3094C77.5927 70.6439 79.4784 68.0928 80.3657 68.5364C81.364 69.091 81.1422 71.6421 81.8077 72.5295C82.4732 73.6387 84.3588 70.0893 84.6916 69.6456C85.5789 68.5364 86.91 66.6508 88.5737 66.6508C89.6829 66.6508 89.572 67.2054 90.3484 67.4272C94.5633 69.2019 86.91 62.6577 87.3536 62.4359C85.5789 58.221 87.5754 56.4462 83.1387 54.7825C74.3761 51.344 57.2946 53.2296 48.7538 57.2227C44.6498 59.2192 44.5389 64.5433 44.6498 68.9801Z" fill="#489645"/>
<path fill-rule="evenodd" clip-rule="evenodd" d="M119.631 38.7002C119.077 40.0313 118.079 41.6951 119.52 43.2479C120.075 43.9134 120.741 44.9117 121.295 45.6882C121.961 46.7973 122.072 47.241 121.184 47.6847C120.741 47.4628 120.851 47.3519 120.297 47.3519C119.631 47.3519 115.416 46.3537 117.413 49.1267C117.746 49.6812 117.968 49.7921 117.968 50.4577C116.969 51.7887 118.079 50.7904 117.413 50.7904C116.858 50.7904 116.193 50.4577 115.527 50.4577C114.862 50.4577 114.196 50.1249 113.531 50.2358C112.976 51.0123 111.867 52.0105 112.754 53.2306C112.976 53.4525 114.307 54.0071 114.085 54.2289C113.753 54.6726 109.76 54.4507 111.091 55.5599C111.978 56.3364 113.198 56.891 112.976 58.222L112.644 58.1111C105.101 55.8927 112.422 62.1042 108.65 59.9967C107.43 59.3312 105.212 58.4438 105.323 60.3294C105.656 64.4334 106.321 63.657 102.106 61.5496C99.9987 60.5513 101.663 64.6553 100.221 65.6536C98.2241 66.9846 88.0195 64.988 89.9051 62.1042C93.8982 56.0036 101.33 50.7904 107.208 46.5755C110.314 44.3571 113.309 40.9186 116.193 39.2548C116.969 39.1439 117.524 38.8112 118.189 38.5893C118.522 38.4784 119.077 38.4784 119.631 38.7002Z" fill="#489645"/>
<path fill-rule="evenodd" clip-rule="evenodd" d="M66.2803 0.0996094C103.327 0.0996094 119.078 24.169 120.298 40.2523C119.078 56.3355 95.341 69.0912 66.2803 69.0912C37.2195 69.0912 13.4828 56.3355 12.2627 40.2523C13.4828 24.169 29.2333 0.0996094 66.2803 0.0996094Z" fill="#E15A27"/>
<path fill-rule="evenodd" clip-rule="evenodd" d="M68.8314 0.764931C95.4519 0.432175 116.083 21.0631 117.192 34.3734C116.083 47.6836 94.8973 58.2209 68.8314 58.2209C42.8763 58.2209 21.5799 47.6836 20.4707 34.3734C21.5799 21.0631 42.0999 0.986769 68.8314 0.764931Z" fill="#F4A41D"/>
<path fill-rule="evenodd" clip-rule="evenodd" d="M73.4909 3.31613C86.8012 3.20522 97.1166 10.304 97.6712 14.8517C97.1166 19.3994 86.4684 23.0597 73.4909 23.0597C60.5134 23.0597 49.8651 19.3994 49.3105 14.8517C49.8651 10.304 60.1806 3.42705 73.4909 3.31613Z" fill="#F5C017"/>
<path fill-rule="evenodd" clip-rule="evenodd" d="M43.3206 38.3665C44.9843 38.3665 46.4263 37.59 46.4263 36.5918C46.4263 35.5935 45.0953 34.817 43.3206 34.817C41.6568 34.817 40.2148 35.5935 40.2148 36.5918C40.2148 37.59 41.5459 38.3665 43.3206 38.3665Z" fill="#F28221"/>
<path fill-rule="evenodd" clip-rule="evenodd" d="M43.9856 37.4786C45.6494 37.4786 47.0913 36.7022 47.0913 35.7039C47.0913 34.7056 45.7603 33.9292 43.9856 33.9292C42.3218 33.9292 40.8799 34.7056 40.8799 35.7039C40.8799 36.7022 42.3218 37.4786 43.9856 37.4786Z" fill="#F9DBB3"/>
<path d="M63.9109 28.9272C64.2824 28.0202 63.2968 26.7579 61.7095 26.1078C60.1222 25.4577 58.5343 25.666 58.1628 26.573C57.7914 27.4801 58.777 28.7424 60.3643 29.3924C61.9516 30.0425 63.5395 29.8342 63.9109 28.9272Z" fill="#F28221"/>
<path d="M64.9233 28.3473C65.2952 27.4405 64.3103 26.1777 62.7233 25.5267C61.1364 24.8758 59.5484 25.0832 59.1764 25.9901C58.8045 26.8969 59.7894 28.1597 61.3763 28.8106C62.9633 29.4615 64.5513 29.2541 64.9233 28.3473Z" fill="#F9DBB3"/>
<path d="M82.2089 36.6852C81.8476 35.774 80.2622 35.5479 78.6677 36.1802C77.0732 36.8124 76.0734 38.0636 76.4347 38.9747C76.796 39.8859 78.3815 40.1119 79.976 39.4797C81.5705 38.8475 82.5702 37.5963 82.2089 36.6852Z" fill="#F28221"/>
<path d="M82.5463 35.7201C82.1859 34.8087 80.6008 34.5811 79.0058 35.2118C77.4108 35.8425 76.4099 37.0926 76.7703 38.0041C77.1307 38.9155 78.7159 39.1431 80.3109 38.5124C81.9059 37.8817 82.9067 36.6315 82.5463 35.7201Z" fill="#F9DBB3"/>
<path d="M95.8736 23.735C96.0269 22.767 94.7777 21.7647 93.0836 21.4964C91.3894 21.2282 89.8918 21.7955 89.7385 22.7636C89.5852 23.7317 90.8343 24.7339 92.5285 25.0022C94.2226 25.2704 95.7203 24.7031 95.8736 23.735Z" fill="#F28221"/>
<path d="M96.7056 22.8737C96.8589 21.9056 95.6098 20.9034 93.9156 20.6351C92.2215 20.3668 90.7238 20.9342 90.5705 21.9022C90.4172 22.8703 91.6664 23.8726 93.3605 24.1408C95.0547 24.4091 96.5523 23.8418 96.7056 22.8737Z" fill="#F9DBB3"/>
<path d="M47.5586 13.514C47.1215 12.6367 45.5226 12.5455 43.9873 13.3103C42.452 14.0752 41.5617 15.4064 41.9987 16.2837C42.4357 17.161 44.0346 17.2522 45.57 16.4874C47.1053 15.7226 47.9956 14.3913 47.5586 13.514Z" fill="#F28221"/>
<path d="M47.7365 12.4073C47.2994 11.53 45.7005 11.4391 44.1653 12.2041C42.6302 12.9691 41.7401 14.3003 42.1772 15.1776C42.6144 16.0548 44.2132 16.1458 45.7484 15.3808C47.2835 14.6158 48.1736 13.2845 47.7365 12.4073Z" fill="#F9DBB3"/>
<path d="M78.3108 23.1334C79.0559 22.3206 78.4884 20.5879 77.0433 19.2633C75.5982 17.9387 73.8227 17.5239 73.0776 18.3368C72.3325 19.1497 72.9 20.8824 74.3452 22.207C75.7903 23.5316 77.5658 23.9463 78.3108 23.1334Z" fill="#F28221"/>
<path d="M79.5622 22.966C80.3076 22.1534 79.7408 20.4205 78.2963 19.0953C76.8518 17.7702 75.0765 17.3546 74.3311 18.1672C73.5857 18.9797 74.1525 20.7127 75.597 22.0378C77.0415 23.363 78.8168 23.7785 79.5622 22.966Z" fill="#F9DBB3"/>
<path fill-rule="evenodd" clip-rule="evenodd" d="M103.549 13.2988C105.102 13.9643 105.989 15.0736 105.656 15.85C105.213 16.6264 103.66 16.7373 102.107 16.0718C100.554 15.4063 99.6666 14.2971 100.11 13.5207C100.443 12.7442 101.996 12.6333 103.549 13.2988Z" fill="#F28221"/>
<path fill-rule="evenodd" clip-rule="evenodd" d="M104.547 12.7451C106.1 13.4106 106.987 14.5199 106.654 15.2963C106.21 16.0727 104.658 16.1836 103.105 15.5181C101.552 14.8526 100.665 13.7434 100.997 12.967C101.441 12.3015 102.994 12.1905 104.547 12.7451Z" fill="#F9DBB3"/>
<path fill-rule="evenodd" clip-rule="evenodd" d="M28.2353 20.6195C29.7882 21.285 30.6755 22.3942 30.3428 23.1706C29.8991 23.947 28.3462 24.058 26.7934 23.3925C25.2405 22.727 24.3532 21.6178 24.7968 20.8413C25.1296 20.1758 26.6824 20.0649 28.2353 20.6195Z" fill="#F28221"/>
<path fill-rule="evenodd" clip-rule="evenodd" d="M29.2332 20.1761C30.7861 20.8416 31.6734 21.9507 31.3407 22.7272C30.897 23.5036 29.3441 23.6145 27.7913 22.949C26.2384 22.2835 25.351 21.1743 25.6838 20.3979C26.1275 19.7324 27.6804 19.6215 29.2332 20.1761Z" fill="#F9DBB3"/>
<path d="M62.0045 3.16921C61.2479 2.54613 59.7507 3.11435 58.6603 4.43836C57.5699 5.76236 57.2993 7.34078 58.0559 7.96385C58.8125 8.58693 60.3097 8.01873 61.4001 6.69473C62.4905 5.37073 62.7611 3.79229 62.0045 3.16921Z" fill="#F28221"/>
<path d="M61.7478 2.11798C60.9915 1.49451 59.4939 2.06202 58.4029 3.38551C57.3118 4.70899 57.0404 6.28728 57.7966 6.91075C58.5529 7.53422 60.0505 6.96676 61.1416 5.64327C62.2326 4.31979 62.504 2.74145 61.7478 2.11798Z" fill="#F9DBB3"/>
<path d="M86.2618 5.1601C86.4161 4.19221 85.168 3.18871 83.4742 2.91873C81.7804 2.64875 80.2822 3.21452 80.128 4.18241C79.9737 5.1503 81.2218 6.15377 82.9156 6.42375C84.6094 6.69373 86.1075 6.12799 86.2618 5.1601Z" fill="#F28221"/>
<path d="M87.0572 4.35076C87.2105 3.38268 85.9613 2.38041 84.2672 2.11214C82.573 1.84388 81.0754 2.4112 80.9221 3.37929C80.7688 4.34738 82.0179 5.34964 83.712 5.61791C85.4062 5.88617 86.9039 5.31885 87.0572 4.35076Z" fill="#F9DBB3"/>
<path fill-rule="evenodd" clip-rule="evenodd" d="M58.8488 16.738C60.4016 16.0725 61.8436 16.1834 62.0654 17.0708C62.2873 17.8472 61.289 19.0674 59.847 19.7329C58.2942 20.3984 56.8522 20.2874 56.6304 19.4001C56.2976 18.6237 57.2959 17.4036 58.8488 16.738Z" fill="#F28221"/>
<path fill-rule="evenodd" clip-rule="evenodd" d="M59.1814 15.7386C60.7342 15.0731 62.1762 15.184 62.398 16.0713C62.6198 16.8478 61.6216 18.0679 60.0687 18.7334C58.5158 19.3989 57.0739 19.288 56.8521 18.4006C56.6302 17.6242 57.6285 16.4041 59.1814 15.7386Z" fill="#F9DBB3"/>
<path fill-rule="evenodd" clip-rule="evenodd" d="M85.0265 12.0791C86.6903 11.8572 88.0213 12.4118 88.0213 13.1883C88.0213 14.0756 86.8012 14.963 85.1374 15.1848C83.4736 15.4067 82.1426 14.8521 82.1426 14.0756C82.1426 13.1883 83.4736 12.3009 85.0265 12.0791Z" fill="#F28221"/>
<path fill-rule="evenodd" clip-rule="evenodd" d="M85.6905 11.1912C87.3543 10.9694 88.6853 11.524 88.6853 12.3004C88.6853 13.1878 87.4653 14.0751 85.8015 14.2969C84.1377 14.5188 82.8066 13.9642 82.8066 13.1878C82.8066 12.3004 84.0268 11.4131 85.6905 11.1912Z" fill="#F9DBB3"/>
<path fill-rule="evenodd" clip-rule="evenodd" d="M105.214 23.2819C106.324 24.502 106.767 25.833 106.102 26.3876C105.436 26.9422 103.994 26.3876 102.774 25.1675C101.665 23.9474 101.221 22.6164 101.887 22.0618C102.552 21.5072 104.105 22.0618 105.214 23.2819Z" fill="#F28221"/>
<path fill-rule="evenodd" clip-rule="evenodd" d="M106.323 23.1704C107.432 24.3905 107.876 25.7215 107.21 26.2761C106.545 26.8307 105.103 26.2761 103.883 25.056C102.773 23.8359 102.33 22.5049 102.995 21.9503C103.661 21.5066 105.103 22.0612 106.323 23.1704Z" fill="#F9DBB3"/>
<path fill-rule="evenodd" clip-rule="evenodd" d="M44.0972 2.76116C45.65 2.20657 47.2029 2.42842 47.5357 3.09394C47.8684 3.87037 46.7592 4.86861 45.2064 5.42321C43.6535 5.9778 42.1006 5.75598 41.7679 5.09047C41.4351 4.31403 42.4334 3.20484 44.0972 2.76116Z" fill="#F28221"/>
<path fill-rule="evenodd" clip-rule="evenodd" d="M44.4305 1.87427C45.9834 1.31967 47.5363 1.5415 47.869 2.20701C48.2018 2.98345 47.0926 3.98172 45.5397 4.53632C43.9868 5.09091 42.434 4.86909 42.1012 4.20358C41.7685 3.42714 42.8777 2.31795 44.4305 1.87427Z" fill="#F9DBB3"/>
<path fill-rule="evenodd" clip-rule="evenodd" d="M32.2291 9.30567C34.2256 9.19475 35.7785 9.74935 35.8894 10.5258C35.8894 11.3022 34.3365 12.1896 32.34 12.3005C30.3435 12.4114 28.7906 11.9677 28.6797 11.0804C28.6797 10.193 30.2325 9.41659 32.2291 9.30567Z" fill="#F28221"/>
<path fill-rule="evenodd" clip-rule="evenodd" d="M32.8941 8.41877C34.8907 8.30785 36.5545 8.86245 36.5545 9.63888C36.5545 10.4153 35.0016 11.1918 33.0051 11.4136C31.0085 11.5245 29.4556 10.9699 29.3447 10.1935C29.3447 9.41704 31.0085 8.6406 32.8941 8.41877Z" fill="#F9DBB3"/>
<path fill-rule="evenodd" clip-rule="evenodd" d="M66.2801 0.0996094C102.107 0.0996094 118.079 22.7271 120.187 38.6994C116.083 53.2298 93.5662 64.3217 66.391 64.3217C38.994 64.3217 16.2556 53.008 12.4844 38.2557C14.8137 22.3943 30.6751 0.0996094 66.2801 0.0996094Z" fill="#F28221"/>
<path fill-rule="evenodd" clip-rule="evenodd" d="M68.8304 0.76545C95.451 0.432693 116.082 21.0636 117.191 34.3739C116.082 47.6842 94.8964 58.2215 68.8304 58.2215C42.8754 58.2215 21.5789 47.6842 20.4697 34.3739C21.5789 21.0636 42.0989 0.987288 68.8304 0.76545Z" fill="#F4A41D"/>
<path fill-rule="evenodd" clip-rule="evenodd" d="M73.489 3.31571C86.7992 3.20479 97.1147 10.3036 97.6693 14.8513C97.1147 19.399 86.4665 23.0593 73.489 23.0593C60.5114 23.0593 49.8632 19.399 49.3086 14.8513C49.8632 10.3036 60.1787 3.42663 73.489 3.31571Z" fill="#F5C017"/>
<path d="M43.3196 38.367C45.0348 38.367 46.4253 37.5724 46.4253 36.5923C46.4253 35.6121 45.0348 34.8176 43.3196 34.8176C41.6043 34.8176 40.2139 35.6121 40.2139 36.5923C40.2139 37.5724 41.6043 38.367 43.3196 38.367Z" fill="#F28221"/>
<path d="M43.9846 37.4801C45.6999 37.4801 47.0903 36.6855 47.0903 35.7054C47.0903 34.7252 45.6999 33.9307 43.9846 33.9307C42.2694 33.9307 40.8789 34.7252 40.8789 35.7054C40.8789 36.6855 42.2694 37.4801 43.9846 37.4801Z" fill="#F9DBB3"/>
<path d="M63.9126 28.9594C64.2843 28.0524 63.299 26.7899 61.7119 26.1395C60.1247 25.4891 58.5368 25.6971 58.1652 26.604C57.7935 27.5109 58.7788 28.7734 60.3659 29.4238C61.953 30.0742 63.541 29.8663 63.9126 28.9594Z" fill="#F28221"/>
<path d="M64.9233 28.3469C65.2952 27.44 64.3103 26.1772 62.7233 25.5263C61.1364 24.8753 59.5484 25.0828 59.1764 25.9896C58.8045 26.8964 59.7894 28.1592 61.3763 28.8102C62.9633 29.4611 64.5513 29.2537 64.9233 28.3469Z" fill="#F9DBB3"/>
<path d="M82.2237 36.7259C81.8623 35.8148 80.2769 35.589 78.6826 36.2214C77.0883 36.8538 76.0888 38.105 76.4502 39.0161C76.8115 39.9271 78.397 40.153 79.9913 39.5206C81.5856 38.8881 82.5851 37.6369 82.2237 36.7259Z" fill="#F28221"/>
<path d="M82.5454 35.7197C82.185 34.8082 80.5998 34.5806 79.0048 35.2113C77.4098 35.842 76.4089 37.0922 76.7693 38.0036C77.1297 38.9151 78.7149 39.1426 80.3099 38.5119C81.9049 37.8812 82.9058 36.6311 82.5454 35.7197Z" fill="#F9DBB3"/>
<path d="M95.8539 23.7293C96.0071 22.7612 94.7578 21.759 93.0637 21.491C91.3695 21.2229 89.872 21.7903 89.7188 22.7584C89.5656 23.7265 90.8148 24.7286 92.5089 24.9967C94.2031 25.2648 95.7007 24.6974 95.8539 23.7293Z" fill="#F28221"/>
<path d="M96.7046 22.8733C96.8579 21.9052 95.6088 20.9029 93.9147 20.6346C92.2205 20.3664 90.7228 20.9337 90.5696 21.9018C90.4163 22.8699 91.6654 23.8721 93.3595 24.1404C95.0537 24.4086 96.5513 23.8413 96.7046 22.8733Z" fill="#F9DBB3"/>
<path d="M47.5566 13.5145C47.1196 12.6372 45.5207 12.546 43.9853 13.3108C42.45 14.0756 41.5597 15.4068 41.9967 16.2842C42.4338 17.1615 44.0327 17.2527 45.568 16.4879C47.1033 15.723 47.9937 14.3918 47.5566 13.5145Z" fill="#F28221"/>
<path d="M47.7365 12.4068C47.2994 11.5296 45.7005 11.4386 44.1653 12.2036C42.6302 12.9686 41.7401 14.2999 42.1772 15.1771C42.6144 16.0544 44.2132 16.1454 45.7484 15.3804C47.2835 14.6154 48.1736 13.284 47.7365 12.4068Z" fill="#F9DBB3"/>
<path d="M78.302 23.1339C79.0473 22.3212 78.4803 20.5884 77.0356 19.2634C75.5908 17.9385 73.8155 17.5232 73.0702 18.3358C72.3249 19.1485 72.8919 20.8814 74.3366 22.2063C75.7814 23.5313 77.5567 23.9465 78.302 23.1339Z" fill="#F28221"/>
<path d="M79.5681 22.9533C80.3133 22.1406 79.7461 20.4078 78.3011 19.083C76.8562 17.7582 75.0808 17.3432 74.3356 18.156C73.5904 18.9687 74.1577 20.7015 75.6026 22.0263C77.0475 23.3511 78.823 23.7661 79.5681 22.9533Z" fill="#F9DBB3"/>
<path fill-rule="evenodd" clip-rule="evenodd" d="M103.548 13.2993C105.101 13.9649 105.988 15.0741 105.655 15.8505C105.212 16.6269 103.659 16.7378 102.106 16.0723C100.553 15.4068 99.6657 14.2976 100.109 13.5212C100.442 12.7448 101.995 12.6338 103.548 13.2993Z" fill="#F28221"/>
<path fill-rule="evenodd" clip-rule="evenodd" d="M104.546 12.7447C106.099 13.4102 106.986 14.5194 106.653 15.2958C106.209 16.0723 104.657 16.1832 103.104 15.5177C101.551 14.8521 100.664 13.743 100.996 12.9665C101.44 12.301 102.993 12.1901 104.546 12.7447Z" fill="#F9DBB3"/>
<path fill-rule="evenodd" clip-rule="evenodd" d="M28.2343 20.62C29.7872 21.2855 30.6746 22.3947 30.3418 23.1711C29.8981 23.9476 28.3452 24.0585 26.7924 23.393C25.2395 22.7275 24.3522 21.6183 24.7959 20.8419C25.1286 20.1764 26.6814 20.0654 28.2343 20.62Z" fill="#F28221"/>
<path fill-rule="evenodd" clip-rule="evenodd" d="M29.2332 20.1766C30.7861 20.8421 31.6734 21.9513 31.3407 22.7277C30.897 23.5041 29.3441 23.6151 27.7913 22.9495C26.2384 22.284 25.351 21.1748 25.6838 20.3984C26.1275 19.7329 27.6804 19.622 29.2332 20.1766Z" fill="#F9DBB3"/>
<path d="M62.0035 3.16971C61.247 2.54664 59.7497 3.11486 58.6593 4.43886C57.5689 5.76286 57.2983 7.34127 58.0549 7.96435C58.8115 8.58742 60.3087 8.01923 61.3991 6.69523C62.4895 5.37123 62.7601 3.79279 62.0035 3.16971Z" fill="#F28221"/>
<path d="M61.7732 2.11377C61.0169 1.4903 59.5193 2.05781 58.4282 3.38129C57.3372 4.70478 57.0658 6.28307 57.822 6.90654C58.5783 7.53001 60.0759 6.96254 61.167 5.63906C62.258 4.31557 62.5294 2.73724 61.7732 2.11377Z" fill="#F9DBB3"/>
<path d="M86.2788 5.1097C86.433 4.14172 85.1848 3.13828 83.4908 2.86847C81.7968 2.59867 80.2986 3.16466 80.1444 4.13264C79.9902 5.10063 81.2385 6.10404 82.9325 6.37385C84.6265 6.64365 86.1247 6.07769 86.2788 5.1097Z" fill="#F28221"/>
<path d="M87.0835 4.38342C87.2368 3.41533 85.9877 2.41306 84.2935 2.1448C82.5994 1.87653 81.1018 2.44386 80.9485 3.41194C80.7952 4.38003 82.0443 5.38229 83.7384 5.65056C85.4326 5.91882 86.9302 5.3515 87.0835 4.38342Z" fill="#F9DBB3"/>
<path fill-rule="evenodd" clip-rule="evenodd" d="M58.8478 16.7376C60.4007 16.0721 61.8426 16.183 62.0645 17.0703C62.2863 17.8468 61.288 19.0669 59.8461 19.7324C58.2932 20.3979 56.8513 20.287 56.6294 19.3996C56.2967 18.6232 57.2949 17.4031 58.8478 16.7376Z" fill="#F28221"/>
<path fill-rule="evenodd" clip-rule="evenodd" d="M59.1804 15.7382C60.7333 15.0727 62.1752 15.1836 62.397 16.0709C62.6189 16.8473 61.6206 18.0674 60.0677 18.733C58.5149 19.3985 57.0729 19.2876 56.8511 18.4002C56.6292 17.6238 57.6275 16.4037 59.1804 15.7382Z" fill="#F9DBB3"/>
<path fill-rule="evenodd" clip-rule="evenodd" d="M85.0245 12.0786C86.6883 11.8568 88.0194 12.4114 88.0194 13.1878C88.0194 14.0752 86.7992 14.9626 85.1355 15.1844C83.4717 15.4062 82.1406 14.8516 82.1406 14.0752C82.1406 13.1879 83.4717 12.3005 85.0245 12.0786Z" fill="#F28221"/>
<path fill-rule="evenodd" clip-rule="evenodd" d="M85.6896 11.1908C87.3533 10.969 88.6844 11.5236 88.6844 12.3C88.6844 13.1873 87.4643 14.0747 85.8005 14.2965C84.1367 14.5184 82.8057 13.9638 82.8057 13.1873C82.8057 12.3 84.0258 11.4126 85.6896 11.1908Z" fill="#F9DBB3"/>
<path fill-rule="evenodd" clip-rule="evenodd" d="M105.212 23.2814C106.321 24.5015 106.764 25.8326 106.099 26.3872C105.433 26.9418 103.991 26.3872 102.771 25.1671C101.662 23.947 101.218 22.6159 101.884 22.0613C102.549 21.5067 104.102 22.0613 105.212 23.2814Z" fill="#F28221"/>
<path fill-rule="evenodd" clip-rule="evenodd" d="M106.321 23.1699C107.43 24.39 107.874 25.7211 107.208 26.2757C106.543 26.8303 105.101 26.2757 103.881 25.0555C102.772 23.8354 102.328 22.5044 102.993 21.9498C103.659 21.5062 105.101 22.0607 106.321 23.1699Z" fill="#F9DBB3"/>
<path fill-rule="evenodd" clip-rule="evenodd" d="M44.0952 2.76073C45.6481 2.20614 47.2009 2.428 47.5337 3.09351C47.8665 3.86994 46.7573 4.86819 45.2044 5.42278C43.6515 5.97738 42.0987 5.75555 41.7659 5.09004C41.4331 4.31361 42.4314 3.31533 44.0952 2.76073Z" fill="#F28221"/>
<path fill-rule="evenodd" clip-rule="evenodd" d="M44.4276 1.87384C45.9805 1.31925 47.5333 1.54107 47.8661 2.20659C48.1988 2.98302 47.0896 3.9813 45.5368 4.53589C43.9839 5.09049 42.431 4.86866 42.0983 4.20315C41.7655 3.42672 42.8747 2.31752 44.4276 1.87384Z" fill="#F9DBB3"/>
<path fill-rule="evenodd" clip-rule="evenodd" d="M32.2271 9.30619C34.2237 9.19527 35.7765 9.74987 35.8875 10.5263C35.8875 11.3027 34.3346 12.1901 32.338 12.301C30.3415 12.4119 28.7887 11.9682 28.6777 11.0809C28.6777 10.1935 30.2306 9.41711 32.2271 9.30619Z" fill="#F28221"/>
<path fill-rule="evenodd" clip-rule="evenodd" d="M32.8922 8.41928C34.8887 8.30837 36.5525 8.86297 36.5525 9.6394C36.5525 10.4158 34.9997 11.1923 33.0031 11.4141C31.0066 11.525 29.4537 10.9704 29.3428 10.194C29.3428 9.41756 31.0066 8.64112 32.8922 8.41928Z" fill="#F9DBB3"/>
<path fill-rule="evenodd" clip-rule="evenodd" d="M29.0114 87.8364C29.455 87.8364 29.8987 87.1709 29.8987 86.3944C29.8987 85.618 29.566 84.9525 29.0114 84.9525C28.5677 84.9525 28.124 85.618 28.124 86.3944C28.124 87.1709 28.5677 87.8364 29.0114 87.8364Z" fill="#9F1E2F"/>
<path fill-rule="evenodd" clip-rule="evenodd" d="M29.0114 86.9485C29.455 86.9485 29.8987 86.5049 29.8987 85.8394C29.8987 85.2848 29.566 84.7302 29.0114 84.7302C28.5677 84.7302 28.124 85.1738 28.124 85.8394C28.124 86.5049 28.5677 86.9485 29.0114 86.9485Z" fill="#7A212F"/>
<path d="M31.4507 90.3878C31.8182 90.3878 32.1162 89.8415 32.1162 89.1677C32.1162 88.4938 31.8182 87.9476 31.4507 87.9476C31.0831 87.9476 30.7852 88.4938 30.7852 89.1677C30.7852 89.8415 31.0831 90.3878 31.4507 90.3878Z" fill="#9F1E2F"/>
<path d="M31.4517 89.6109C31.8192 89.6109 32.1171 89.2136 32.1171 88.7235C32.1171 88.2334 31.8192 87.8362 31.4517 87.8362C31.0841 87.8362 30.7861 88.2334 30.7861 88.7235C30.7861 89.2136 31.0841 89.6109 31.4517 89.6109Z" fill="#7A212F"/>
<path d="M54.0778 94.7124C54.5679 94.7124 54.9651 94.0668 54.9651 93.2704C54.9651 92.4741 54.5679 91.8285 54.0778 91.8285C53.5877 91.8285 53.1904 92.4741 53.1904 93.2704C53.1904 94.0668 53.5877 94.7124 54.0778 94.7124Z" fill="#9F1E2F"/>
<path d="M54.0788 93.936C54.5688 93.936 54.9661 93.4394 54.9661 92.8268C54.9661 92.2143 54.5688 91.7177 54.0788 91.7177C53.5887 91.7177 53.1914 92.2143 53.1914 92.8268C53.1914 93.4394 53.5887 93.936 54.0788 93.936Z" fill="#7A212F"/>
<path d="M77.8159 97.9295C78.1835 97.9295 78.4814 97.3833 78.4814 96.7094C78.4814 96.0356 78.1835 95.4893 77.8159 95.4893C77.4484 95.4893 77.1504 96.0356 77.1504 96.7094C77.1504 97.3833 77.4484 97.9295 77.8159 97.9295Z" fill="#9F1E2F"/>
<path d="M77.8159 97.264C78.1835 97.264 78.4814 96.8667 78.4814 96.3767C78.4814 95.8866 78.1835 95.4893 77.8159 95.4893C77.4484 95.4893 77.1504 95.8866 77.1504 96.3767C77.1504 96.8667 77.4484 97.264 77.8159 97.264Z" fill="#7A212F"/>
<path d="M51.3052 94.935C51.6727 94.935 51.9707 94.3888 51.9707 93.7149C51.9707 93.0411 51.6727 92.4948 51.3052 92.4948C50.9376 92.4948 50.6396 93.0411 50.6396 93.7149C50.6396 94.3888 50.9376 94.935 51.3052 94.935Z" fill="#9F1E2F"/>
<path d="M51.3052 94.2695C51.6727 94.2695 51.9707 93.8723 51.9707 93.3822C51.9707 92.8921 51.6727 92.4948 51.3052 92.4948C50.9376 92.4948 50.6396 92.8921 50.6396 93.3822C50.6396 93.8723 50.9376 94.2695 51.3052 94.2695Z" fill="#7A212F"/>
<path d="M74.2651 94.4895C74.6326 94.4895 74.9306 93.9433 74.9306 93.2694C74.9306 92.5956 74.6326 92.0493 74.2651 92.0493C73.8975 92.0493 73.5996 92.5956 73.5996 93.2694C73.5996 93.9433 73.8975 94.4895 74.2651 94.4895Z" fill="#9F1E2F"/>
<path fill-rule="evenodd" clip-rule="evenodd" d="M74.2651 93.7145C74.5979 93.7145 74.9306 93.3818 74.9306 92.8272C74.9306 92.3835 74.5979 91.9398 74.2651 91.9398C73.9323 91.9398 73.5996 92.2726 73.5996 92.8272C73.5996 93.3818 73.8214 93.7145 74.2651 93.7145Z" fill="#7A212F"/>
<path fill-rule="evenodd" clip-rule="evenodd" d="M47.8666 93.2722C48.5321 93.2722 48.9757 92.3849 48.9757 91.2757C48.9757 90.1665 48.4212 89.2791 47.8666 89.2791C47.201 89.2791 46.7574 90.1665 46.7574 91.2757C46.6464 92.3849 47.201 93.2722 47.8666 93.2722Z" fill="#9F1E2F"/>
<path d="M47.865 92.163C48.4776 92.163 48.9742 91.5174 48.9742 90.7211C48.9742 89.9247 48.4776 89.2791 47.865 89.2791C47.2525 89.2791 46.7559 89.9247 46.7559 90.7211C46.7559 91.5174 47.2525 92.163 47.865 92.163Z" fill="#7A212F"/>
<path d="M42.8755 93.6038C43.243 93.6038 43.541 93.0575 43.541 92.3837C43.541 91.7098 43.243 91.1636 42.8755 91.1636C42.5079 91.1636 42.21 91.7098 42.21 92.3837C42.21 93.0575 42.5079 93.6038 42.8755 93.6038Z" fill="#9F1E2F"/>
<path d="M42.8755 92.9383C43.243 92.9383 43.541 92.541 43.541 92.0509C43.541 91.5608 43.243 91.1636 42.8755 91.1636C42.5079 91.1636 42.21 91.5608 42.21 92.0509C42.21 92.541 42.5079 92.9383 42.8755 92.9383Z" fill="#7A212F"/>
<path fill-rule="evenodd" clip-rule="evenodd" d="M70.0514 93.7154C70.4951 93.7154 70.9387 93.0499 70.9387 92.2734C70.9387 91.497 70.606 90.8315 70.0514 90.8315C69.6077 90.8315 69.1641 91.497 69.1641 92.2734C69.275 93.0499 69.6077 93.7154 70.0514 93.7154Z" fill="#9F1E2F"/>
<path d="M70.0514 92.9394C70.5415 92.9394 70.9387 92.4428 70.9387 91.8303C70.9387 91.2177 70.5415 90.7211 70.0514 90.7211C69.5613 90.7211 69.1641 91.2177 69.1641 91.8303C69.1641 92.4428 69.5613 92.9394 70.0514 92.9394Z" fill="#7A212F"/>
<path fill-rule="evenodd" clip-rule="evenodd" d="M64.0612 98.0399C64.5049 98.0399 64.9485 97.3744 64.9485 96.5979C64.9485 95.8215 64.6158 95.156 64.0612 95.156C63.6175 95.156 63.1738 95.8215 63.1738 96.5979C63.1738 97.3744 63.5066 98.0399 64.0612 98.0399Z" fill="#9F1E2F"/>
<path d="M64.0612 97.2643C64.5513 97.2643 64.9485 96.7677 64.9485 96.1551C64.9485 95.5425 64.5513 95.0459 64.0612 95.0459C63.5711 95.0459 63.1738 95.5425 63.1738 96.1551C63.1738 96.7677 63.5711 97.2643 64.0612 97.2643Z" fill="#7A212F"/>
<path fill-rule="evenodd" clip-rule="evenodd" d="M48.9766 99.1504C52.6369 101.258 56.1863 103.698 59.9575 105.473C63.2851 107.026 66.169 106.915 68.1655 105.695C71.9368 103.476 74.1552 101.702 77.8155 99.705C68.4983 102.256 59.8466 102.256 48.9766 99.1504Z" fill="#F8ED8D"/>
</svg>
