<svg width="24" height="24" viewBox="0 0 24 24" fill="none" xmlns="http://www.w3.org/2000/svg">
<g clip-path="url(#clip0_2601_7389)">
<path d="M5.5 21C6.32843 21 7 20.1046 7 19C7 17.8954 6.32843 17 5.5 17C4.67157 17 4 17.8954 4 19C4 20.1046 4.67157 21 5.5 21Z" stroke="#0B0B0B" stroke-width="1.5" stroke-linecap="round" stroke-linejoin="round"/>
<path d="M18 8C19.1046 8 20 6.88071 20 5.5C20 4.11929 19.1046 3 18 3C16.8954 3 16 4.11929 16 5.5C16 6.88071 16.8954 8 18 8Z" stroke="#0B0B0B" stroke-width="1.5" stroke-linecap="round" stroke-linejoin="round"/>
<path d="M12 19H16.5C17.4283 19 18.3185 18.6313 18.9749 17.9749C19.6313 17.3185 20 16.4283 20 15.5C20 14.5717 19.6313 13.6815 18.9749 13.0251C18.3185 12.3687 17.4283 12 16.5 12H8.5C7.57174 12 6.6815 11.6313 6.02513 10.9749C5.36875 10.3185 5 9.42826 5 8.5C5 7.57174 5.36875 6.6815 6.02513 6.02513C6.6815 5.36875 7.57174 5 8.5 5H12" stroke="#0B0B0B" stroke-width="1.75" stroke-linecap="round" stroke-linejoin="round"/>
</g>
<defs>
<clipPath id="clip0_2601_7389">
<rect width="24" height="24" fill="white"/>
</clipPath>
</defs>
</svg>
