<svg width="35" height="35" viewBox="0 0 35 35" fill="none" xmlns="http://www.w3.org/2000/svg">
<path d="M35 21.897C35 20.3757 34.0328 19.0792 32.6878 18.6002V16.8713C32.9041 16.7906 33.1124 16.6843 33.3081 16.5515C34.0865 16.0228 34.533 15.1883 34.533 14.2613C34.533 13.6816 34.3557 13.1329 34.0261 12.6714C34.1928 12.2723 34.243 11.8291 34.1621 11.3925C33.5767 8.22839 31.5665 5.33203 28.5019 3.23641C25.4494 1.14942 21.5423 0 17.5 0C13.4577 0 9.55055 1.14942 6.49815 3.23641C3.43346 5.33176 1.42326 8.22839 0.837936 11.3925C0.736465 11.9401 0.840874 12.4976 1.12339 12.9659C0.910568 13.3604 0.799751 13.7998 0.799751 14.2613C0.799751 15.1883 1.24622 16.0233 2.02488 16.5518C2.11781 16.6149 2.2142 16.6713 2.3122 16.7229V18.6002C0.967178 19.0792 0 20.3757 0 21.897V22.0374C0 23.0451 0.424843 23.9541 1.10229 24.5926C0.904694 24.9769 0.799751 25.4044 0.799751 25.8446C0.799751 26.5363 1.04862 27.1762 1.49803 27.6763V30.1694C1.49803 32.8329 3.64201 35 6.27758 35H28.7224C31.358 35 33.502 32.8329 33.502 30.1694V27.9896C34.1597 27.4598 34.533 26.6909 34.533 25.8443C34.533 25.3134 34.385 24.8109 34.1087 24.3764C34.6622 23.7568 35 22.9363 35 22.0374V21.897ZM33.6328 21.897V22.0374C33.6328 22.7507 33.2809 23.3822 32.7436 23.7651C32.3935 24.0145 31.9703 24.1505 31.542 24.1505H20.9417L25.301 19.7839H31.5417C32.6947 19.7839 33.6328 20.732 33.6328 21.897ZM10.361 19.7839L10.4694 19.8937L11.1706 20.6021L9.70276 22.0859L7.425 19.7839H10.361ZM16.8153 24.3529L12.6214 20.1145C12.6214 20.1142 12.6211 20.1139 12.6208 20.1137L12.2945 19.7839H23.3559L18.7873 24.3502C18.7871 24.3505 18.7868 24.3508 18.7865 24.3513C18.786 24.3519 18.7852 24.3524 18.7847 24.3529L17.7999 25.3483L16.8153 24.3529ZM2.18163 11.6462C2.69939 8.84803 4.50451 6.26771 7.26425 4.3807C10.0929 2.44674 13.728 1.38179 17.5 1.38179C21.272 1.38179 24.9071 2.44674 27.7357 4.3807C30.4955 6.26771 32.3003 8.84803 32.8184 11.6462C32.9142 12.1651 32.5041 12.6609 31.9828 12.6609H3.01716C2.49512 12.6609 2.08576 12.1651 2.18163 11.6462ZM2.21741 13.8924C2.47135 13.9917 2.74506 14.0427 3.01716 14.0427H31.9828C32.3602 14.0427 32.7396 13.9439 33.0686 13.7569C33.1329 13.9167 33.1658 14.0886 33.1658 14.261C33.1658 14.7201 32.9399 15.1368 32.5457 15.4042C32.1428 15.6779 31.6296 15.7435 31.1687 15.5961C30.9409 15.5233 30.7259 15.4293 30.491 15.3786C30.2367 15.3235 29.9767 15.2993 29.7168 15.2993C28.4957 15.2993 27.8404 15.7667 27.3141 16.1421C26.8521 16.4719 26.4874 16.7323 25.7002 16.7323C24.913 16.7323 24.5482 16.4719 24.0863 16.1424C23.56 15.7664 22.9049 15.2993 21.6835 15.2993C20.4624 15.2993 19.8074 15.7667 19.2811 16.1424C18.8191 16.4719 18.4544 16.7323 17.6672 16.7323C16.88 16.7323 16.5149 16.4719 16.053 16.1421C15.5267 15.7664 14.8716 15.2993 13.6505 15.2993C12.4294 15.2993 11.7741 15.7667 11.2478 16.1421C10.7858 16.4719 10.4208 16.7323 9.63387 16.7323C8.8464 16.7323 8.48164 16.4719 8.01941 16.1421C7.4931 15.7664 6.83807 15.2993 5.61668 15.2993C5.13363 15.2993 4.6981 15.3821 4.28501 15.5524C3.79715 15.7537 3.22624 15.7027 2.78725 15.4045C2.39311 15.1371 2.16721 14.7204 2.16721 14.2613C2.16694 14.1342 2.18403 14.0106 2.21741 13.8924ZM3.81531 17.0524C4.17393 17.0349 4.51038 16.9434 4.84417 16.8149C5.17715 16.6864 5.54031 16.6611 5.89306 16.6929C6.49654 16.7472 6.82659 16.9828 7.23087 17.271C7.75719 17.6467 8.41221 18.1141 9.6336 18.1141C10.8547 18.1141 11.5097 17.6467 12.0361 17.271C12.498 16.9415 12.863 16.681 13.6502 16.681C14.4374 16.681 14.8022 16.9415 15.2642 17.271C15.7905 17.6467 16.4458 18.1141 17.6669 18.1141C18.888 18.1141 19.543 17.6467 20.0694 17.271C20.5313 16.9415 20.8963 16.681 21.6833 16.681C22.4705 16.681 22.8355 16.9415 23.2975 17.271C23.8238 17.6467 24.4788 18.1141 25.6999 18.1141C26.921 18.1141 27.5761 17.6467 28.1024 17.271C28.5646 16.9415 28.9294 16.681 29.7166 16.681C29.9959 16.681 30.2701 16.728 30.5305 16.8314C30.7844 16.9323 31.0488 17.0049 31.3203 17.037V18.4023H25.0198C25.0195 18.4023 25.0195 18.4023 25.0193 18.4023H25.019H10.6462C10.6456 18.4023 10.6448 18.4023 10.6443 18.4023C10.6435 18.4023 10.6427 18.4023 10.6422 18.4023H3.67939V17.0562C3.72478 17.0559 3.76991 17.0546 3.81531 17.0524ZM1.36719 21.897C1.36719 20.732 2.30526 19.7839 3.45802 19.7839H5.49171L9.21944 23.5517C9.34761 23.6812 9.52145 23.7538 9.70276 23.7538C9.88407 23.7538 10.0579 23.6812 10.1861 23.5517L12.1375 21.5794L14.6815 24.1505H3.45802C3.09673 24.1505 2.73758 24.0539 2.42409 23.8728C1.79337 23.5088 1.36719 22.8227 1.36719 22.0374V21.897ZM2.27989 25.3232C2.65614 25.4611 3.05775 25.5323 3.45802 25.5323H16.0487L17.3166 26.8137C17.5788 27.079 18.018 27.0795 18.2811 26.8159L19.5625 25.5323H31.5417C31.9273 25.5323 32.3124 25.4662 32.6766 25.3388C32.753 25.3121 32.8309 25.2851 32.9028 25.2479C32.926 25.2357 32.9596 25.2087 32.9871 25.2106C33.0251 25.2133 33.0349 25.2622 33.0486 25.2929C33.1225 25.4578 33.162 25.6384 33.1652 25.8195C33.1767 26.4712 32.7124 27.0167 32.1059 27.1942C31.7585 27.2963 31.3823 27.2736 31.0474 27.1354C30.6351 26.9651 30.1996 26.8823 29.7166 26.8823C28.4954 26.8823 27.8404 27.3497 27.3141 27.7254C26.8519 28.0552 26.4871 28.3156 25.6999 28.3156C24.913 28.3156 24.548 28.0552 24.086 27.7254C23.5597 27.3497 22.9047 26.8823 21.6835 26.8823C20.4624 26.8823 19.8074 27.3497 19.2808 27.7254C18.8189 28.0552 18.4541 28.3156 17.6669 28.3156C16.8797 28.3156 16.5149 28.0552 16.0527 27.7254C15.5264 27.3497 14.8714 26.8823 13.6502 26.8823C12.4291 26.8823 11.7741 27.3497 11.2475 27.7254C10.7856 28.0552 10.4208 28.3156 9.6336 28.3156C8.84613 28.3156 8.48137 28.0549 8.01941 27.7254C7.49283 27.3497 6.83781 26.8823 5.61642 26.8823C5.13336 26.8823 4.69784 26.9651 4.28501 27.1357C3.83881 27.3197 3.31863 27.2954 2.89753 27.0558C2.52502 26.8439 2.24758 26.4807 2.18243 26.0491C2.16293 25.9215 2.16187 25.7909 2.17869 25.6627C2.18349 25.6254 2.24625 25.3107 2.27989 25.3232ZM32.1348 30.1694C32.1348 32.071 30.6039 33.6182 28.7224 33.6182H6.27758C4.3961 33.6182 2.86522 32.071 2.86522 30.1694V28.5307C3.42651 28.6915 4.0324 28.6802 4.60972 28.4862C4.62147 28.4821 4.63322 28.4781 4.6447 28.4743C4.6973 28.4557 4.74991 28.4365 4.80171 28.4149C5.04738 28.3134 5.31387 28.2643 5.61642 28.2643C6.40388 28.2643 6.76865 28.5245 7.23061 28.8543C7.75719 29.23 8.41221 29.6974 9.6336 29.6974C10.8547 29.6974 11.5097 29.23 12.0361 28.8543C12.498 28.5245 12.863 28.2643 13.65 28.2643C14.4372 28.2643 14.8022 28.5245 15.2642 28.8543C15.7905 29.23 16.4455 29.6974 17.6669 29.6974C18.888 29.6974 19.543 29.23 20.0694 28.8543C20.5313 28.5245 20.8963 28.2643 21.6833 28.2643C22.4705 28.2643 22.8355 28.5245 23.2972 28.8543C23.8235 29.23 24.4788 29.6974 25.6999 29.6974C26.921 29.6974 27.5761 29.23 28.1024 28.8543C28.5643 28.5245 28.9294 28.2643 29.7166 28.2643C29.9203 28.2643 30.1246 28.2873 30.3214 28.3426C30.5086 28.3952 30.6853 28.4783 30.8725 28.5318C31.279 28.6476 31.7177 28.6721 32.1345 28.6036V30.1694H32.1348Z" fill="#717171"/>
</svg>
