<?xml version="1.0" encoding="UTF-8" standalone="no"?> <svg xmlns="http://www.w3.org/2000/svg" viewBox="0 0 64 64"><title>1</title><g id="Layer_32" data-name="Layer 32"><path d="M60,47.07H56.65a23,23,0,0,0-8.78-17.31,59.86,59.86,0,0,0,3.71-5.71l4.49-4.28a3.34,3.34,0,1,0,1.61-6.25,3.34,3.34,0,1,0-6.41,1.1l-4.64,4.42s0,0,0,.06a79.63,79.63,0,0,0-9.31,5.78,26.25,26.25,0,0,0-5.3-.54c-13.51,0-24.16,9.9-24.68,22.71H4a1,1,0,0,0-1,1.26l1.37,5.13a4.19,4.19,0,0,0,4,3.11h47.1a4.2,4.2,0,0,0,4-3.11l1.37-5.13a1,1,0,0,0-1-1.26ZM38.08,26.78a80,80,0,0,1,9.08-5.71l2.39,2.51a65.26,65.26,0,0,1-3.86,5.8A79.93,79.93,0,0,1,39.46,37a4.43,4.43,0,0,1-3.21,1.24,4.5,4.5,0,0,1-3-7.75A60.29,60.29,0,0,1,38.08,26.78ZM53.21,15.55a.94.94,0,0,0,.09-.13,1,1,0,0,0,.11-.16,1,1,0,0,0,.06-.18.65.65,0,0,0,0-.37,1,1,0,0,0,0-.19,1,1,0,0,0-.09-.18.94.94,0,0,0-.07-.14,1.34,1.34,0,1,1,2.13,0,.94.94,0,0,0,0,.1,1,1,0,0,0,.07,1.09.93.93,0,0,0,.06.1l.14.15.09.06a1,1,0,0,0,.18.12l.17.07.19,0,.1,0,.1,0,.17,0,.19-.08.1,0a1.35,1.35,0,0,1,1.68,2.09,1.35,1.35,0,0,1-1.91,0,1,1,0,0,0-1.41,0L50.83,22l-2.1-2.2ZM32,26.36a25,25,0,0,1,3,.19c-1.4,1-2.56,2-3.13,2.51a6.5,6.5,0,0,0,4.33,11.2h.17a6.44,6.44,0,0,0,4.47-1.79,76.35,76.35,0,0,0,5.86-7.08,21,21,0,0,1,8,15.69H9.29C9.81,35.38,19.59,26.36,32,26.36ZM57.64,52.95a2.19,2.19,0,0,1-2.12,1.63H8.42a2.19,2.19,0,0,1-2.11-1.62l-1-3.87h53.4Z"/><path d="M18.16,33.88a12.92,12.92,0,0,0-3.93,4.57,14.1,14.1,0,0,0-1.56,5.93s0,.06,0,.09a1,1,0,0,0,2-.09,12.34,12.34,0,0,1,.92-5.29,11.67,11.67,0,0,1,3.19-4.42A12.83,12.83,0,0,1,29.42,31.9,13.33,13.33,0,0,0,18.16,33.88Z"/><path d="M6.88,30.68a1,1,0,0,0,2,0,3.21,3.21,0,0,1,.81-2.19,5.36,5.36,0,0,0,0-6.73,3.38,3.38,0,0,1,0-4.4,5.36,5.36,0,0,0,0-6.73,3.23,3.23,0,0,1-.81-2.2,1,1,0,0,0-2,0,5.19,5.19,0,0,0,1.19,3.37,3.38,3.38,0,0,1,0,4.4,5.36,5.36,0,0,0,0,6.73,3.38,3.38,0,0,1,0,4.39A5.18,5.18,0,0,0,6.88,30.68Z"/><path d="M15.63,24.3a1,1,0,0,0,2,0c0-.55.22-.79.7-1.27a3.45,3.45,0,0,0,0-5.39c-.49-.48-.7-.72-.7-1.27s.22-.79.7-1.28a3.45,3.45,0,0,0,0-5.39c-.49-.49-.7-.72-.7-1.28a1,1,0,0,0-2,0,3.54,3.54,0,0,0,1.3,2.7c.49.49.7.72.7,1.28s-.22.79-.7,1.28a3.45,3.45,0,0,0,0,5.39c.49.48.7.72.7,1.27s-.22.79-.7,1.27A3.53,3.53,0,0,0,15.63,24.3Z"/><path d="M25.76,18.46a2.86,2.86,0,0,0-1.39,2.34,1,1,0,0,0,2,0c0-.24.1-.36.61-.75a2.86,2.86,0,0,0,1.39-2.34A2.86,2.86,0,0,0,27,15.37c-.51-.4-.61-.52-.61-.75s.1-.36.61-.76a2.87,2.87,0,0,0,1.39-2.34A2.87,2.87,0,0,0,27,9.18c-.52-.4-.61-.52-.61-.76a1,1,0,1,0-2,0,2.87,2.87,0,0,0,1.39,2.34c.52.4.61.52.61.76s-.1.36-.61.76a2.87,2.87,0,0,0-1.39,2.34A2.86,2.86,0,0,0,25.76,17c.51.4.61.52.61.75S26.28,18.07,25.76,18.46Z"/><path d="M34.51,18.46a2.86,2.86,0,0,0-1.39,2.34,1,1,0,0,0,2,0c0-.24.1-.36.61-.75a2.86,2.86,0,0,0,1.39-2.34,2.86,2.86,0,0,0-1.39-2.34c-.51-.4-.61-.52-.61-.75s.1-.36.61-.76a2.87,2.87,0,0,0,1.39-2.34,2.87,2.87,0,0,0-1.39-2.34c-.52-.4-.61-.52-.61-.76a1,1,0,1,0-2,0,2.87,2.87,0,0,0,1.39,2.34c.52.4.61.52.61.76s-.1.36-.61.76a2.87,2.87,0,0,0-1.39,2.34A2.86,2.86,0,0,0,34.51,17c.51.4.61.52.61.75S35,18.07,34.51,18.46Z"/><path d="M41.88,16.36a1,1,0,0,0,2,.15,4.4,4.4,0,0,1,.46-.25c.58-.29,1.56-.77,1.56-1.89s-1-1.6-1.56-1.89l-.19-.1.19-.1c.58-.29,1.56-.77,1.56-1.89s-1-1.6-1.56-1.89a4.37,4.37,0,0,1-.46-.25,1,1,0,0,0-2,.15c0,1.12,1,1.6,1.56,1.89l.19.1-.19.1c-.58.29-1.56.77-1.56,1.89s1,1.6,1.56,1.89l.19.1-.19.1C42.85,14.76,41.88,15.25,41.88,16.36Z"/></g></svg>