<svg width="23" height="35" viewBox="0 0 23 35" fill="none" xmlns="http://www.w3.org/2000/svg">
<path d="M23 17.9001C23 16.6347 22.7115 15.4176 22.1423 14.2826C21.0283 12.0609 20.8607 9.59366 21.6703 7.33535C21.8362 6.87272 22.0972 6.41473 21.7646 5.97136C21.5972 5.74821 21.3254 5.615 21.0373 5.615H16.5838L16.9416 3.95637C16.9967 3.70089 17.1517 3.47958 17.378 3.33312L21.0716 0.943309C21.3173 0.784334 21.3814 0.465566 21.2146 0.231342C21.0478 -0.00288145 20.7134 -0.0639149 20.4677 0.0950592L16.774 2.48487C16.3145 2.78217 16 3.23142 15.8881 3.74989L15.4858 5.615H9.98286L12.6856 3.04326C12.8469 2.89043 12.9366 2.67835 12.9319 2.46129C12.9272 2.24497 12.8285 2.0374 12.6616 1.89203C9.67404 -0.713207 5.08748 -0.616702 2.21973 2.11176C2.21952 2.11197 2.21938 2.11217 2.21916 2.11231C2.21909 2.11238 2.21909 2.11238 2.21902 2.11245C2.21895 2.11251 2.21887 2.11258 2.2188 2.11265C-0.648658 4.84173 -0.749613 9.20593 1.99051 12.0501C2.14337 12.2076 2.36063 12.3007 2.58641 12.3051C2.59222 12.3052 2.59796 12.3052 2.60376 12.3052C2.82424 12.3052 3.03906 12.2211 3.19608 12.0723L6.7095 8.72949C7.08808 10.6033 6.83139 12.5673 5.95413 14.3699C5.74663 14.7963 5.57605 15.242 5.44699 15.6946C5.36912 15.9677 5.53834 16.2494 5.82492 16.3236C6.11158 16.3977 6.40699 16.2365 6.48486 15.9634C6.598 15.5664 6.74771 15.1755 6.92976 14.8013C8.05145 12.4965 8.25781 9.95016 7.52352 7.58988C7.45131 7.35784 7.28146 6.87832 7.19577 6.64006C7.40457 6.59202 15.04 6.6905 15.2646 6.64006L14.4292 10.5129C13.8692 10.766 13.3723 11.006 12.6977 11.158C11.8534 11.3481 10.9737 11.345 10.0085 11.1486C9.7641 11.0989 9.50726 11.149 9.30356 11.2863C9.1 11.4234 8.9647 11.6373 8.93244 11.873C8.77412 13.0268 8.42845 14.1573 7.90511 15.2333C7.49713 16.0729 7.29027 16.9702 7.29027 17.9004C7.29027 21.4294 10.3315 24.3004 14.0696 24.3004C17.8077 24.3004 20.8489 21.4294 20.8489 17.9004C20.8489 16.9431 20.6309 16.0234 20.2012 15.1667C20.0696 14.9046 19.947 14.6353 19.8368 14.3664C19.7287 14.1026 19.4167 13.9722 19.1403 14.0754C18.8636 14.1784 18.7269 14.4757 18.835 14.7393C18.9549 15.0317 19.0881 15.3244 19.231 15.6091C19.591 16.3266 19.7735 17.0974 19.7735 17.9004C19.7735 20.864 17.2147 23.2752 14.0697 23.2752C10.9246 23.2752 8.36586 20.8641 8.36586 17.9004C8.36586 17.1201 8.53916 16.3678 8.88096 15.6644C9.4228 14.5504 9.78962 13.3816 9.97253 12.1876C11.0133 12.3764 12.0123 12.3657 12.9447 12.1558C13.4092 12.0515 13.7999 11.9123 14.1597 11.7628L12.6495 18.7639C12.5897 19.0413 12.777 19.3122 13.0679 19.3693C13.1044 19.3764 13.1408 19.3799 13.1768 19.3799C13.4266 19.3799 13.6506 19.2129 13.7029 18.9704L15.3723 11.231C15.8106 11.0537 16.2842 10.9042 16.8993 10.8254C17.2431 10.7815 17.596 10.7647 17.9501 10.775C17.9744 11.298 18.0347 11.8242 18.1296 12.3412C18.1807 12.6201 18.4592 12.8069 18.7519 12.7578C19.0445 12.7091 19.2402 12.4434 19.189 12.1646C19.0933 11.6428 19.0361 11.1111 19.0189 10.5843C19.0044 10.1379 18.6396 9.78271 18.1704 9.75797C17.6951 9.73302 17.2193 9.75024 16.7563 9.8093C16.3287 9.86411 15.9601 9.9477 15.6276 10.0476L16.3627 6.64013H20.7829L20.6526 7.00381C19.7514 9.51746 19.9359 12.2595 21.1721 14.7247C21.6714 15.7205 21.9246 16.7889 21.9246 17.9C21.9246 21.9944 18.401 25.3255 14.0699 25.3255C12.0232 25.3255 10.0855 24.5854 8.61366 23.2416C7.14673 21.9021 6.29693 20.1057 6.22078 18.1832C6.2096 17.9003 5.96194 17.6813 5.66309 17.6903C5.36633 17.701 5.1348 17.939 5.14606 18.2219C5.23275 20.4118 6.20006 22.4574 7.86969 23.9819C9.14948 25.1504 10.739 25.9167 12.4564 26.2127V31.7986C12.4564 31.8896 12.4034 31.9716 12.3182 32.0124L9.18884 33.5118C8.84568 33.6758 8.66779 34.039 8.7562 34.3951C8.84461 34.7512 9.17443 35 9.55824 35H18.5811C18.9653 35 19.2954 34.7512 19.3838 34.3949C19.4722 34.039 19.2943 33.6758 18.9516 33.512L15.8217 32.0127C15.7361 31.9716 15.6829 31.8895 15.6829 31.7986V26.2123C19.8397 25.4916 23 22.0388 23 17.9001ZM2.61617 3.21447L5.9813 6.41561L6.01594 6.51342L1.20151 5.99863C1.41009 4.99749 1.88224 4.03681 2.61617 3.21447ZM2.61538 11.1764C1.54395 9.97599 1.03538 8.48959 1.08034 7.01727L6.39007 7.58502L2.61538 11.1764ZM6.66218 5.615L3.37749 2.4904C4.24234 1.79204 5.25261 1.34286 6.30539 1.14466L6.8334 5.61507H6.66218V5.615ZM8.46043 5.615H7.91572L7.37416 1.02963C8.92147 0.986777 10.4837 1.47019 11.7456 2.48903L8.46043 5.615ZM17.5225 33.9748H10.6173L12.8011 32.9285C13.2518 32.7125 13.5318 32.2795 13.5318 31.7986V26.335C13.7103 26.3451 13.8896 26.3507 14.0697 26.3507C14.2503 26.3507 14.4294 26.345 14.6073 26.335V31.7986C14.6073 32.279 14.8871 32.7118 15.3381 32.9285L17.5225 33.9748Z" fill="#717171"/>
</svg>
