<?xml version="1.0" encoding="iso-8859-1"?>
<!-- Generator: Adobe Illustrator 19.0.0, SVG Export Plug-In . SVG Version: 6.00 Build 0)  -->
<svg version="1.1" id="Layer_1" xmlns="http://www.w3.org/2000/svg" xmlns:xlink="http://www.w3.org/1999/xlink" x="0px" y="0px"
	 viewBox="0 0 512 512" style="enable-background:new 0 0 512 512;" xml:space="preserve">
<g>
	<g>
		<path d="M256,0c-24.39,0-47.86,7.392-67.873,21.375l9.07,12.979c17.339-12.116,37.674-18.52,58.803-18.52
			c56.755,0,102.928,46.173,102.928,102.928v95.01h15.835v-95.01C374.763,53.278,321.486,0,256,0z"/>
	</g>
</g>
<g>
	<g>
		<path d="M358.928,234.887v85.496c-3.219-1.482-5.758-3.887-8.792-6.775c-5.96-5.676-13.377-12.741-27.629-12.741
			c-14.232,0-21.654,7.051-27.616,12.716c-5.132,4.875-8.839,8.398-16.827,8.398c-7.918,0-11.605-3.512-16.709-8.372
			c-5.96-5.676-13.377-12.741-27.629-12.741c-14.271,0-21.686,7.078-27.643,12.766c-5.077,4.847-8.744,8.347-16.59,8.347
			c-7.918,0-11.605-3.512-16.709-8.372c-4.742-4.516-10.418-9.898-19.711-11.915V118.763c0-27.429,10.724-53.261,30.195-72.731
			l-11.196-11.198c-22.464,22.461-34.834,52.269-34.834,83.929v256h89.732V512h58.062V374.763h89.732V234.887H358.928z
			 M269.196,496.165h-26.392v-73.897h26.392V496.165z M269.196,406.433h-26.392v-31.67h26.392V406.433z M358.928,358.928H153.072
			v-40.63c3.219,1.482,5.758,3.887,8.792,6.775c5.96,5.676,13.378,12.741,27.629,12.741c14.191,0,21.584-7.058,27.524-12.729
			c5.099-4.867,8.783-8.384,16.708-8.384c7.918,0,11.605,3.512,16.709,8.372c5.96,5.676,13.377,12.741,27.629,12.741
			c14.313,0,21.754-7.071,27.735-12.754c5.108-4.853,8.799-8.36,16.709-8.36c7.918,0,11.605,3.512,16.709,8.372
			c4.742,4.516,10.418,9.898,19.711,11.915V358.928z"/>
	</g>
</g>
<g>
	<g>
		<path d="M240.165,60.701l-1.718-7.729c-0.544,0.12-13.469,3.058-26.427,11.698c-17.846,11.896-27.279,28.776-27.279,48.814h15.835
			c0-35.25,39.637-44.675,41.325-45.059L240.165,60.701z"/>
	</g>
</g>
<g>
	<g>
		<rect x="184.742" y="129.32" width="15.835" height="21.113"/>
	</g>
</g>
<g>
	<g>
		<rect x="287.67" y="258.639" width="21.113" height="15.835"/>
	</g>
</g>
<g>
	<g>
		<rect x="308.784" y="237.526" width="21.113" height="15.835"/>
	</g>
</g>
<g>
</g>
<g>
</g>
<g>
</g>
<g>
</g>
<g>
</g>
<g>
</g>
<g>
</g>
<g>
</g>
<g>
</g>
<g>
</g>
<g>
</g>
<g>
</g>
<g>
</g>
<g>
</g>
<g>
</g>
</svg>
