<svg width="35" height="35" viewBox="0 0 35 35" fill="none" xmlns="http://www.w3.org/2000/svg">
<path d="M34.7967 0.197219C34.6099 0.012922 34.3338 -0.0486013 34.0868 0.0398556L5.69352 10.1637C4.70709 9.56045 3.45591 9.41922 2.30836 9.89439C0.403522 10.6835 -0.50436 12.8751 0.284645 14.7801C2.14532 19.2718 4.83178 23.2925 8.26965 26.7304C11.7075 30.1682 15.7281 32.8547 20.22 34.7154C20.6865 34.9085 21.17 35 21.646 35C23.114 34.9999 24.5099 34.1301 25.1056 32.6916C25.5065 31.7237 25.4686 30.6821 25.0852 29.7877L34.9632 0.904942C35.0481 0.656661 34.9834 0.381583 34.7967 0.197219ZM9.99265 10.0822L13.0018 9.00941C13.3551 9.38579 13.5273 9.90396 13.4583 10.428C13.3975 10.8894 13.1607 11.2996 12.7915 11.583C12.4223 11.8663 11.9651 11.9888 11.5033 11.9281C11.042 11.8674 10.6318 11.6306 10.3485 11.2614C10.0874 10.9211 9.96318 10.5061 9.99265 10.0822ZM23.8425 32.1683C23.342 33.3767 21.9514 33.9527 20.7432 33.452C11.9905 29.8266 5.17344 23.0095 1.54786 14.2568C1.30539 13.6714 1.30539 13.0267 1.54786 12.4413C1.79033 11.856 2.24622 11.4001 2.83158 11.1576C3.41694 10.9151 4.06171 10.9151 4.64707 11.1576C5.23244 11.4001 5.68832 11.856 5.9308 12.4413C7.48262 16.1879 9.72345 19.5414 12.591 22.409C15.4585 25.2765 18.8121 27.5173 22.5587 29.0692C23.7671 29.5696 24.3431 30.96 23.8425 32.1683ZM29.9157 11.4385C29.8539 11.437 29.7919 11.4334 29.7301 11.4254C29.2688 11.3646 28.8586 11.1278 28.5753 10.7586C28.292 10.3894 28.1694 9.93185 28.2301 9.47049C28.3556 8.51797 29.2323 7.84518 30.1851 7.97042C30.4791 8.00911 30.7551 8.12313 30.9904 8.29656L29.9157 11.4385ZM31.4448 6.96738C31.1118 6.78602 30.7458 6.66523 30.3636 6.61492C28.6634 6.3905 27.0984 7.59205 26.8746 9.29207C26.7662 10.1155 26.985 10.9319 27.4906 11.5909C27.9777 12.2256 28.6749 12.6403 29.4615 12.7668L28.1028 16.7397L26.5402 15.5407C26.2407 15.311 25.8115 15.3674 25.5818 15.6669C25.3519 15.9665 25.4085 16.3956 25.7079 16.6254L27.636 18.1048L24.1022 28.4376C23.8058 28.1799 23.4645 27.9643 23.0822 27.8059C15.8374 24.805 10.1951 19.1627 7.19428 11.9181C7.08997 11.6661 6.96036 11.4322 6.81086 11.2167L8.64145 10.564C8.70537 11.1156 8.91708 11.6416 9.26387 12.0936C9.76945 12.7526 10.5015 13.1752 11.325 13.2835C11.4629 13.3017 11.6005 13.3107 11.7373 13.3107C12.4174 13.3107 13.0752 13.0885 13.6238 12.6677C14.2829 12.1619 14.7054 11.43 14.8139 10.6064C14.9112 9.86711 14.7386 9.13485 14.3512 8.52823L22.8488 5.49841L23.1708 6.27593C23.28 6.53918 23.5345 6.69811 23.8027 6.69811C23.8899 6.69811 23.9784 6.6813 24.064 6.64589C24.4128 6.50144 24.5784 6.10147 24.434 5.75271L24.1383 5.03869L33.2109 1.8038L31.4448 6.96738Z" fill="#717171"/>
<path d="M7.3816 18.3389C7.37955 18.3357 7.37387 18.327 7.37169 18.3239C7.16237 18.0099 6.73874 17.9256 6.42463 18.1347C6.11107 18.3435 6.02603 18.7672 6.23357 19.0813C6.36448 19.2825 6.5835 19.3922 6.80724 19.3922C6.93384 19.3922 7.06188 19.357 7.17618 19.2836C7.49378 19.0794 7.58572 18.6564 7.3816 18.3389Z" fill="#7D7D7D"/>
<path d="M6.34213 16.6408C5.67597 15.4728 5.07714 14.2504 4.56232 13.0077C4.41788 12.6588 4.01777 12.4934 3.66921 12.6378C3.32037 12.7822 3.1548 13.1821 3.29931 13.5309C3.83594 14.8264 4.4602 16.1006 5.15459 17.3181C5.28071 17.5391 5.5115 17.6632 5.74898 17.6632C5.86382 17.6632 5.98024 17.6342 6.08701 17.5733C6.41493 17.3862 6.52923 16.9687 6.34213 16.6408Z" fill="#7D7D7D"/>
<path d="M21.3908 8.74898C21.2553 8.73107 21.1177 8.72205 20.9818 8.72205C19.4289 8.72205 18.1047 9.88449 17.9018 11.426C17.678 13.126 18.8789 14.6911 20.5789 14.9149C20.7144 14.9328 20.852 14.9418 20.9879 14.9418C22.5407 14.9418 23.8648 13.7794 24.0678 12.2378C24.2915 10.5379 23.0907 8.97279 21.3908 8.74898ZM22.7124 12.0593C22.5986 12.9232 21.8573 13.5746 20.9879 13.5746C20.9114 13.5746 20.8338 13.5695 20.7573 13.5594C19.8048 13.434 19.132 12.557 19.2573 11.6044C19.3711 10.7406 20.1124 10.0893 20.9818 10.0893C21.0582 10.0893 21.1358 10.0944 21.2123 10.1045C22.1648 10.23 22.8377 11.1069 22.7124 12.0593Z" fill="#7D7D7D"/>
<path d="M21.2134 17.2519C21.0778 17.234 20.9403 17.2249 20.8044 17.2249C19.2514 17.2249 17.9273 18.3874 17.7244 19.929C17.6159 20.7525 17.8347 21.5688 18.3403 22.2279C18.8459 22.8869 19.5779 23.3095 20.4015 23.4179C20.5369 23.4358 20.6744 23.4447 20.8102 23.4447C22.3632 23.4447 23.6874 22.2823 23.8903 20.7407C24.1142 19.0408 22.9133 17.4758 21.2134 17.2519ZM22.535 20.5623C22.4212 21.4262 21.6798 22.0776 20.8104 22.0776C20.734 22.0776 20.6564 22.0724 20.58 22.0624C20.1186 22.0015 19.7084 21.7647 19.4251 21.3955C19.1417 21.0263 19.0192 20.5689 19.0799 20.1074C19.1937 19.2436 19.935 18.5922 20.8044 18.5922C20.8808 18.5922 20.9584 18.5973 21.0349 18.6074C21.9873 18.7328 22.6603 19.6098 22.535 20.5623Z" fill="#7D7D7D"/>
<path d="M16.7041 14.4201L14.603 14.1435C14.2289 14.0938 13.8853 14.3577 13.836 14.7319C13.7867 15.1063 14.0502 15.4496 14.4245 15.4989L16.5256 15.7756C16.5558 15.7796 16.5859 15.7815 16.6157 15.7815C16.9534 15.7815 17.2472 15.5311 17.2925 15.1871C17.3419 14.8129 17.0784 14.4694 16.7041 14.4201Z" fill="#7D7D7D"/>
<path d="M15.6387 19.465L15.4532 18.0552C15.4039 17.6808 15.0606 17.4172 14.6862 17.4666C14.3119 17.5159 14.0484 17.8592 14.0977 18.2336L14.2833 19.6434C14.3286 19.9875 14.6223 20.2379 14.9602 20.2379C14.9899 20.2379 15.02 20.236 15.0502 20.2319C15.4245 20.1826 15.688 19.8393 15.6387 19.465Z" fill="#7D7D7D"/>
</svg>
