<svg width="35" height="35" viewBox="0 0 35 35" fill="none" xmlns="http://www.w3.org/2000/svg">
<path d="M16.4365 28.2224C16.1535 28.2224 15.9238 28.5016 15.9238 28.8457V29.8803C15.9238 30.2247 16.1535 30.5036 16.4365 30.5036C16.7198 30.5036 16.9492 30.2247 16.9492 29.8803V28.8457C16.9492 28.5016 16.7198 28.2224 16.4365 28.2224Z" fill="#717171"/>
<path d="M9.95508 28.2224C9.67203 28.2224 9.44238 28.5016 9.44238 28.8457V29.8803C9.44238 30.2247 9.67203 30.5036 9.95508 30.5036C10.2384 30.5036 10.4678 30.2247 10.4678 29.8803V28.8457C10.468 28.5016 10.2384 28.2224 9.95508 28.2224Z" fill="#717171"/>
<path d="M14.2562 29.0793C14.1694 29.0099 13.7856 28.8304 13.5461 29.2579C13.431 29.463 13.2639 29.4877 13.1958 29.4877C13.1279 29.4877 12.9576 29.4653 12.8457 29.2579C12.69 28.9703 12.3723 28.8901 12.1357 29.0793C11.8988 29.2683 11.8331 29.6546 11.9885 29.9422C12.2566 30.4382 12.7079 30.7343 13.1958 30.7343C13.6839 30.7343 14.1352 30.4382 14.403 29.9422C14.5587 29.6546 14.4927 29.2683 14.2562 29.0793Z" fill="#717171"/>
<path d="M10.8383 22.5605C11.0882 22.7215 11.3988 22.6059 11.5315 22.3017C11.6642 21.9976 11.5689 21.6203 11.3187 21.459C10.94 21.2152 10.7141 20.9107 10.7141 20.6449C10.7141 20.3787 10.94 20.0745 11.3187 19.8304C11.8044 19.5171 12.4888 19.3376 13.1959 19.3376C13.9033 19.3376 14.5874 19.5171 15.0734 19.8304C15.4518 20.0745 15.678 20.3787 15.678 20.6449C15.678 20.9107 15.4518 21.2152 15.0734 21.459C14.5874 21.7723 13.9033 21.9521 13.1959 21.9521C12.9129 21.9521 12.6832 22.231 12.6832 22.5754C12.6832 22.9195 12.9129 23.1987 13.1959 23.1987C15.1954 23.1987 16.7033 22.1005 16.7033 20.6449C16.7033 19.1889 15.1954 18.091 13.1959 18.091C11.1964 18.091 9.68848 19.1889 9.68848 20.6449C9.68848 21.4022 10.0968 22.0823 10.8383 22.5605Z" fill="#717171"/>
<path d="M32.9744 13.1561C30.5885 11.1849 27.8026 10.1429 24.9176 10.1429C24.1806 10.1429 23.4502 10.2114 22.7314 10.3455L25.7021 7.56116C26.4615 6.84959 26.6185 5.55012 26.0599 4.60319C25.501 3.65594 24.4382 3.42026 23.6401 4.06626L21.8895 5.48422L23.098 3.39104C23.6489 2.4373 23.4809 1.13978 22.7156 0.437615C21.9506 -0.264872 20.8779 -0.105481 20.2742 0.799895L11.5883 13.8258L9.3412 15.6453C7.87093 16.1627 6.57237 17.5664 6.17529 18.2092L1.20507 22.2338C0.58957 22.7321 0.177543 23.4937 0.0448291 24.378C-0.0878845 25.2626 0.0763387 26.1517 0.507324 26.8821C0.93831 27.6129 1.62564 28.2225 2.69536 28.2527C2.674 29.2941 3.06173 30.2949 3.77043 30.9467C4.82119 31.9135 5.84792 31.5762 6.07089 31.5064C6.47196 32.2183 7.06691 32.8653 7.83595 33.4123C9.27577 34.4361 11.1794 35 13.196 35C15.2126 35 17.1163 34.4361 18.5564 33.4123C19.5174 32.7289 20.2064 31.8891 20.585 30.9614C20.8649 31.0821 22.0021 31.5528 23.0072 30.5345C23.113 30.4273 23.262 30.4358 23.3731 30.5345C23.8241 30.9347 24.3581 31.1464 24.9176 31.1464C25.477 31.1464 26.0111 30.9347 26.4618 30.5345C26.5732 30.4358 26.7165 30.4361 26.8279 30.5345C27.2786 30.9347 27.8127 31.1464 28.3724 31.1464C29.4063 31.1464 30.3465 30.4046 30.7682 29.2564C30.8171 29.123 30.9204 29.0367 31.0376 29.0315C31.7856 28.9974 32.4873 28.576 32.9632 27.8748C33.435 27.1795 33.643 26.2689 33.5335 25.3765C33.5165 25.2366 33.5648 25.0993 33.6628 25.0094C34.3189 24.4062 34.6989 23.4875 34.7047 22.489C34.7082 21.8865 34.5661 21.2999 34.2991 20.7912C35.6086 18.2426 35.0361 14.8594 32.9744 13.1561ZM25.0938 11.3914C25.5464 12.6321 25.7312 13.9998 25.6273 15.371C25.5907 15.8534 25.2383 16.2091 24.8415 16.1653C24.8343 16.1643 24.1338 16.0478 24.1886 15.2015C24.2748 13.8738 24.0308 12.5863 23.4975 11.4813C23.9669 11.4206 25.0351 11.3904 25.0938 11.3914ZM22.3816 11.6842C22.9691 12.6561 23.247 13.8563 23.1664 15.1038C23.0719 16.5594 23.7958 17.4154 24.909 17.4154C25.8012 17.4154 26.5651 16.586 26.6485 15.4852C26.7526 14.1127 26.6055 12.7422 26.2239 11.4674C26.9769 11.5566 27.7187 11.7235 28.4429 11.965C28.7732 13.0249 28.7972 14.2056 28.5059 15.3223C28.1428 16.7139 28.9308 17.7492 29.6168 18.0004C30.8547 18.4546 31.5834 17.5437 31.8264 16.6529C31.8828 16.4468 31.9335 16.2367 31.9776 16.0283C32.0478 15.6949 31.8825 15.3551 31.6083 15.2697C31.3338 15.1843 31.0544 15.3852 30.9842 15.7186C30.946 15.8995 30.902 16.0816 30.8534 16.2604C30.7279 16.7201 30.3177 16.9701 29.9396 16.8175C29.9329 16.8149 29.2723 16.5081 29.4835 15.6992C29.7639 14.6243 29.8071 13.4992 29.6205 12.4312C30.5927 12.8782 31.5244 13.4651 32.3981 14.1867C34.0422 15.5453 34.4708 18.2763 33.3533 20.2754C32.6801 21.4797 30.4472 23.1132 28.3379 21.431C26.2233 19.7449 23.5357 19.7472 21.4905 21.4369C21.3097 21.5862 21.1201 21.7138 20.9233 21.8199V20.6448C20.9233 19.9284 20.7546 19.2366 20.4317 18.5935C21.3538 18.3497 21.9551 17.2522 21.7773 16.1192C21.5685 14.7879 21.1255 13.5375 20.4843 12.4513C20.4841 12.4513 21.8299 11.8141 22.3816 11.6842ZM19.4309 12.8266C20.1049 13.8433 20.5661 15.0532 20.7701 16.353C20.8446 16.8285 20.5869 17.2895 20.1957 17.3804C20.1885 17.382 19.4889 17.5057 19.3489 16.674C19.1593 15.5466 18.7254 14.5049 18.107 13.6683C18.5366 13.3567 18.9788 13.0759 19.4309 12.8266ZM17.2383 14.364C17.6586 14.8899 17.9831 15.531 18.1868 16.2348C17.6544 15.902 17.0696 15.6264 16.4453 15.4141C16.6594 15.0152 16.9264 14.6607 17.2383 14.364ZM21.0707 1.58484C21.3247 1.20405 21.776 1.13685 22.0977 1.43226C22.4198 1.72767 22.4905 2.27336 22.2588 2.6746L19.5361 7.38976L14.4578 11.5021L21.0707 1.58484ZM24.2086 5.10376C24.5443 4.83205 24.9915 4.93106 25.2265 5.3297C25.4615 5.72801 25.3956 6.27468 25.0759 6.57398L20.2632 11.0846C19.0675 11.5839 17.9243 12.2773 16.8608 13.1557C16.2444 13.6651 15.7448 14.3377 15.3945 15.1233C14.0246 14.8331 12.4222 14.9132 12.0438 14.9545L24.2086 5.10376ZM8.35345 17.5554C9.63894 16.6415 11.3586 16.1384 13.196 16.1384C15.0335 16.1384 16.7531 16.6415 18.0386 17.5554C19.2376 18.4078 19.8977 19.5051 19.8977 20.6445C19.8977 21.7842 19.2373 22.8815 18.0386 23.7339C16.7531 24.6477 15.0335 25.1509 13.196 25.1509C11.3586 25.1509 9.63894 24.6477 8.35345 23.7339C7.15476 22.8815 6.49439 21.7842 6.49439 20.6445C6.49439 19.5051 7.15476 18.4078 8.35345 17.5554ZM1.34046 26.1556C0.627221 24.824 1.39173 23.5804 1.77358 23.2713L5.48529 20.2653C5.47488 20.3909 5.469 24.9493 5.469 24.9493L3.7269 26.5822C3.36347 26.9227 2.05423 27.4872 1.34046 26.1556ZM3.74319 28.0008C3.95815 27.8914 5.469 26.5234 5.469 26.5234V29.247C5.469 29.6216 5.51546 29.9894 5.60572 30.3472C4.07911 30.4494 3.603 29.2184 3.74319 28.0008ZM18.0386 32.3361C16.7531 33.25 15.0335 33.7534 13.196 33.7534C11.3586 33.7534 9.63894 33.25 8.35345 32.3361C7.15476 31.4837 6.49439 30.3864 6.49439 29.247V23.5398C6.85355 24.0034 7.30269 24.4306 7.83595 24.8097C9.27577 25.8336 11.1794 26.3975 13.196 26.3975C15.2126 26.3975 17.1163 25.8336 18.5564 24.8097C19.0894 24.4309 19.5385 24.0037 19.8977 23.5398V29.247C19.8977 30.3864 19.2376 31.4837 18.0386 32.3361ZM33.0443 24.0151C32.6652 24.4046 32.4473 24.9707 32.5194 25.5603C32.5859 26.1037 32.4593 26.6581 32.1722 27.0814C31.8825 27.5083 31.455 27.7651 30.9994 27.7856C30.4886 27.8089 30.0413 28.1777 29.8317 28.7484C29.5751 29.448 29.0021 29.8998 28.3724 29.8998C28.0317 29.8998 27.7067 29.7713 27.4327 29.5278C26.9617 29.1097 26.3286 29.1097 25.8572 29.5278C25.583 29.7713 25.258 29.8998 24.9176 29.8998C24.5768 29.8998 24.2519 29.7713 23.9779 29.5278C23.5066 29.1097 22.8849 29.1289 22.4024 29.5278C21.7445 30.0719 21.0729 29.8563 20.8921 29.7723C20.9124 29.5989 20.9231 23.1554 20.9231 23.1554C21.3268 22.9925 21.71 22.7623 22.0668 22.4679C23.7677 21.0623 26.0087 21.0645 27.7753 22.4734C28.6504 23.1714 29.5059 23.4022 30.255 23.4022C32.2198 23.4022 33.1106 22.3316 33.5811 21.8186C33.6465 22.03 34.0027 23.0301 33.0443 24.0151Z" fill="#717171"/>
</svg>
