<svg width="24" height="24" viewBox="0 0 24 24" fill="none" xmlns="http://www.w3.org/2000/svg">
<g clip-path="url(#clip0_2601_10782)">
<path fill-rule="evenodd" clip-rule="evenodd" d="M20.5 16.6977C20.1609 15.2561 19.032 14.5803 17.6159 14.3309C17.2903 14.2736 16.9514 14.2382 16.6028 14.2219C16.3453 14.2137 16.1317 14.1606 15.9504 14.0747C14.9332 16.0028 10.2831 15.8666 9.5069 14.0747V14.0612C9.31903 14.1551 9.09564 14.2137 8.82611 14.2219C8.487 14.2382 8.15741 14.2708 7.84155 14.3254C6.46478 14.5612 5.35645 15.1961 4.96973 16.5382C5.56738 17.1119 10.4206 21.4872 10.4587 21.7269H20.6483V19.2744C20.6483 19.0127 20.7668 18.7769 20.9534 18.6189L20.5 16.6977Z" fill="#64B0D9"/>
<path d="M3.38435 14.1566C3.28932 14.1566 3.19447 14.1198 3.12306 14.0464C2.98225 13.9021 2.98518 13.671 3.12965 13.5304C3.47389 13.1949 3.4001 13.0505 3.22194 12.7018C3.01814 12.3029 2.70997 11.7001 3.50062 10.9561C3.64729 10.8181 3.87837 10.8248 4.01661 10.9717C4.15468 11.1185 4.14772 11.3494 4.00087 11.4875C3.60939 11.8559 3.68629 12.0064 3.87214 12.3697C4.0699 12.757 4.36891 13.342 3.63923 14.053C3.56819 14.1222 3.47627 14.1566 3.38435 14.1566Z" fill="#666666"/>
<path d="M5.40522 12.1999C5.31019 12.1999 5.21516 12.1631 5.14374 12.0897C5.00294 11.9454 5.00587 11.7143 5.15034 11.5737C5.49458 11.2382 5.4206 11.0941 5.24207 10.7453C5.03791 10.3465 4.72919 9.74355 5.51984 8.99941C5.6667 8.86134 5.89759 8.8683 6.03584 9.01515C6.17408 9.16182 6.16713 9.39272 6.02027 9.53096C5.62898 9.89919 5.70606 10.0495 5.8921 10.4128C6.09022 10.8001 6.38997 11.3851 5.65992 12.0965C5.58888 12.1655 5.49696 12.1999 5.40522 12.1999Z" fill="#666666"/>
<path d="M22.1735 18.8992C21.9719 18.8992 21.8086 18.7359 21.8086 18.5345V12.5761C21.8086 12.3746 21.9719 12.2113 22.1735 12.2113C22.3751 12.2113 22.5386 12.3746 22.5386 12.5761V18.5343C22.5386 18.7359 22.3751 18.8992 22.1735 18.8992Z" fill="#666666"/>
<path fill-rule="evenodd" clip-rule="evenodd" d="M8.82635 14.2219C8.48724 14.2382 8.15765 14.2708 7.8418 14.3254V16.5382L8.58118 17.2018L9.50714 16.5382V14.0612C9.31927 14.1551 9.09589 14.2137 8.82635 14.2219Z" fill="white"/>
<path fill-rule="evenodd" clip-rule="evenodd" d="M7.77148 21.1238H9.75415C10.1096 21.1238 10.4064 21.3867 10.4595 21.7273H18.9389L18.2892 17.968C18.2281 17.6029 17.9869 17.2936 17.6165 17.2936V14.3313C17.2911 14.274 16.952 14.2387 16.6034 14.2224C16.3461 14.2141 16.1323 14.161 15.9512 14.0751V17.2936H10.8599C10.8707 17.3753 8.3653 20.8799 7.77148 21.1238Z" fill="white"/>
<path fill-rule="evenodd" clip-rule="evenodd" d="M15.1548 13.2166L12.8358 12.4849L10.2825 13.2029L10.2758 13.2152C10.1057 13.5762 9.8645 13.8815 9.50781 14.0613V14.075C10.284 15.8667 14.9341 16.0031 15.9513 14.075C15.5783 13.8978 15.3414 13.579 15.1548 13.2166Z" fill="#FCC368"/>
<path fill-rule="evenodd" clip-rule="evenodd" d="M15.5026 6.23736C13.6562 5.96361 11.7988 5.95812 9.93054 6.23736C9.3913 6.31774 8.85205 6.42266 8.31152 6.55083V10.1031C8.31152 11.3608 9.22778 12.4714 10.2819 13.2031C11.1425 13.8026 12.0956 14.1473 12.7097 14.1146C13.4859 14.071 14.3765 13.7467 15.154 13.2166C16.2598 12.4619 17.1367 11.29 17.1367 9.91375V6.54955C16.5934 6.42266 16.0486 6.31774 15.5026 6.23736Z" fill="#FFDDA6"/>
<path fill-rule="evenodd" clip-rule="evenodd" d="M12.84 0.65625C11.9889 0.658997 11.0928 1.09497 10.6477 1.96307H9.45197C7.72401 1.96307 6.69459 3.86243 8.31214 4.86932V7.51135C8.85285 7.38336 9.3921 7.27972 9.93134 7.19806C11.7996 6.91864 13.657 6.92413 15.5034 7.19806C16.0494 7.27972 16.594 7.38336 17.1375 7.51135V4.86932C18.7552 3.86243 17.7706 1.96307 16.0427 1.96307H14.7571C14.5053 1.09497 13.7059 0.658997 12.8563 0.65625H12.84Z" fill="white"/>
<path fill-rule="evenodd" clip-rule="evenodd" d="M17.1371 4.86932C18.7548 3.86243 17.7703 1.96289 16.0423 1.96289H15.0332C16.5828 1.96289 17.5401 3.34863 16.5515 4.39105C16.2342 4.72485 16.1335 4.55182 16.1335 5.01929L16.1295 7.30151C16.4658 7.36285 16.8022 7.43243 17.1371 7.51135V4.86932Z" fill="#C2C7CC"/>
<path fill-rule="evenodd" clip-rule="evenodd" d="M17.1371 9.27882C17.08 9.26784 16.5679 9.16988 16.1295 8.82106V9.70399C16.1295 11.08 15.2512 12.2534 14.1456 13.0068C13.3679 13.5382 12.4775 13.8612 11.7013 13.9048C11.674 13.9061 11.6467 13.9075 11.6182 13.9075C12.0294 14.056 12.4106 14.1309 12.7102 14.1146C13.4864 14.0711 14.377 13.7468 15.1545 13.2167C16.2603 12.4617 17.1371 11.2899 17.1371 9.91365V9.27882Z" fill="#FCC368"/>
<path fill-rule="evenodd" clip-rule="evenodd" d="M15.9514 14.0748C15.5782 13.8976 15.3412 13.5788 15.1547 13.2164C14.6971 13.5284 14.1989 13.7696 13.71 13.9236C13.9346 14.3583 14.1198 14.5571 14.7694 14.8651C14.847 14.9019 14.9315 14.9332 15.0212 14.9563C15.4297 14.7371 15.7565 14.4427 15.9514 14.0748Z" fill="#EDA93B"/>
<path fill-rule="evenodd" clip-rule="evenodd" d="M20.5001 16.6981C20.161 15.2565 19.0322 14.5807 17.616 14.3313C17.2905 14.274 16.9515 14.2387 16.6029 14.2224C16.3455 14.2141 16.1318 14.161 15.9505 14.0751C15.7559 14.443 15.429 14.7374 15.0205 14.9568C15.1417 14.9894 15.2737 15.0086 15.421 15.0126C15.6006 15.0222 15.7764 15.0344 15.9505 15.0535C16.1153 15.0712 16.2761 15.093 16.4341 15.1216C16.8574 15.1965 17.2564 15.3096 17.616 15.4691C18.4561 15.845 19.0811 16.4788 19.3195 17.4897C19.6626 18.9463 19.7933 20.2326 19.7933 21.7273H20.6484V19.2748C20.6484 19.0131 20.7669 18.7773 20.9535 18.6193L20.5001 16.6981Z" fill="#4A83C9"/>
<path fill-rule="evenodd" clip-rule="evenodd" d="M17.6167 14.3313C17.2911 14.274 16.9522 14.2387 16.6036 14.2224C16.3461 14.2141 16.1324 14.161 15.9512 14.0751V15.0535C16.116 15.0712 16.2767 15.093 16.4348 15.1216C16.8581 15.1965 17.2571 15.3096 17.6167 15.4691V14.3313Z" fill="#C2C7CC"/>
<path fill-rule="evenodd" clip-rule="evenodd" d="M23.6986 19.9423C23.6986 19.1029 23.0123 18.4163 22.1735 18.4163H21.5063C21.2966 18.4163 21.1033 18.4925 20.9535 18.6192C20.7669 18.7772 20.6484 19.013 20.6484 19.2747V22.0339C20.6484 22.5067 21.0352 22.8936 21.5063 22.8936H22.1735C23.0123 22.8936 23.6986 22.2069 23.6986 21.3676V19.9423Z" fill="#FFDDA6"/>
<path fill-rule="evenodd" clip-rule="evenodd" d="M22.9485 7.29465H21.3989C20.8201 7.29465 20.3477 7.76889 20.3477 8.34659V11.524C20.3477 12.1032 20.8201 12.576 21.3989 12.576H22.9485C23.2739 12.576 23.5652 12.4262 23.7587 12.1918C23.9085 12.0092 23.9997 11.7776 23.9997 11.5242V8.34659C23.9997 8.09445 23.9085 7.86154 23.7587 7.68027C23.5654 7.44589 23.2739 7.29465 22.9485 7.29465Z" fill="#E6E6E6"/>
<path fill-rule="evenodd" clip-rule="evenodd" d="M18.2886 17.9678C18.2274 17.6027 17.9865 17.2934 17.616 17.2934H16.6465L17.4402 21.7272H18.9382L18.2886 17.9678Z" fill="#C2C7CC"/>
<path fill-rule="evenodd" clip-rule="evenodd" d="M23.6993 19.9423C23.6993 19.1029 23.013 18.4163 22.1742 18.4163H21.507C21.4185 18.4163 21.3328 18.4298 21.251 18.4557C21.9252 18.6124 22.4316 19.2214 22.4316 19.9423V21.3676C22.4316 22.0885 21.9252 22.6962 21.251 22.8542C21.3328 22.8788 21.4185 22.8938 21.507 22.8938H22.1742C23.013 22.8938 23.6993 22.2069 23.6993 21.3676V19.9423Z" fill="#FCC368"/>
<path fill-rule="evenodd" clip-rule="evenodd" d="M13.5489 17.2933C13.493 16.8696 13.1268 16.5383 12.687 16.5383H11.2246C10.7111 16.5383 10.624 17.0221 10.5137 17.5194C10.4579 17.7673 11.5787 18.0467 11.4901 18.2784H12.687C13.1664 18.2784 13.5571 17.8873 13.5571 17.409C13.5571 17.3696 13.5544 17.3313 13.5489 17.2933Z" fill="#FCC368"/>
<path fill-rule="evenodd" clip-rule="evenodd" d="M2.3313 16.5383H0.868835C0.390747 16.5383 0 16.9307 0 17.409C0 17.8873 0.390747 18.2784 0.868835 18.2784H2.06305L3.1972 17.2019L2.3313 16.5383Z" fill="#FCC368"/>
<path fill-rule="evenodd" clip-rule="evenodd" d="M9.50724 16.5383H2.33115C1.81773 16.5383 1.73881 17.0589 1.84904 17.5575C1.90488 17.8083 1.97703 18.048 2.0629 18.2784C2.56937 19.626 3.5825 20.6207 4.8624 21.1235L6.51969 22.1589L8.73252 21.1235C9.99741 20.6016 10.9955 19.566 11.4899 18.2784C11.5783 18.0467 11.652 17.8056 11.7063 17.5575C11.8168 17.0589 11.7391 16.5383 11.2244 16.5383H9.50724Z" fill="#F78411"/>
<path fill-rule="evenodd" clip-rule="evenodd" d="M8.73285 21.1237H3.11298C2.71948 21.1237 2.39941 21.4452 2.39941 21.8376V22.5831C2.39941 22.9754 2.71948 23.297 3.11298 23.297H10.7153C11.1075 23.297 11.4289 22.9754 11.4289 22.5831V21.8376C11.4289 21.8008 11.4261 21.7627 11.4194 21.7272C11.3663 21.3866 11.0695 21.1237 10.7153 21.1237H8.73285Z" fill="#808080"/>
<path fill-rule="evenodd" clip-rule="evenodd" d="M11.2248 16.5383H9.73633C10.2498 16.5383 10.3287 17.0589 10.2184 17.5575C10.1626 17.8056 10.0905 18.0467 10.0006 18.2784C9.90662 18.525 9.79364 18.7607 9.66419 18.987C9.43146 19.3916 9.14545 19.7608 8.81458 20.0851C8.79279 20.1056 8.771 20.1274 8.74921 20.1479C8.31342 20.5593 7.8042 20.8918 7.24316 21.1235H8.73291C8.9997 21.013 9.2544 20.8808 9.49536 20.7269C10.3955 20.1532 11.0994 19.2948 11.4903 18.2784C11.5787 18.0467 11.6523 17.8056 11.7067 17.5575C11.7272 17.469 11.7408 17.3804 11.7463 17.2933C11.7763 16.8913 11.6483 16.5383 11.2248 16.5383Z" fill="#F74311"/>
<path fill-rule="evenodd" clip-rule="evenodd" d="M11.4194 21.7272C11.3663 21.3866 11.0695 21.1237 10.7153 21.1237H9.22559C9.58099 21.1237 9.87653 21.3866 9.93109 21.7272C9.9364 21.7627 9.93915 21.8008 9.93915 21.8376V22.5831C9.93915 22.9754 9.6178 23.297 9.22559 23.297H10.7153C11.1075 23.297 11.4289 22.9754 11.4289 22.5831V21.8376C11.4289 21.8008 11.4263 21.7627 11.4194 21.7272Z" fill="#666666"/>
<path fill-rule="evenodd" clip-rule="evenodd" d="M23.7585 7.68027C23.5652 7.44589 23.2737 7.29465 22.9483 7.29465H21.5225C22.1 7.29465 22.5739 7.76889 22.5739 8.34659V11.524C22.5739 12.1032 22.1 12.576 21.5225 12.576H22.9483C23.2737 12.576 23.565 12.4262 23.7585 12.1918C23.9083 12.0092 23.9995 11.7776 23.9995 11.5242V8.34659C23.9995 8.09445 23.9083 7.86154 23.7585 7.68027Z" fill="#C2C7CC"/>
<path fill-rule="evenodd" clip-rule="evenodd" d="M17.1373 7.51109C16.594 7.3831 16.0493 7.27946 15.5033 7.1978C15.3112 8.92815 17.0283 9.2592 17.1373 9.27843V7.51109Z" fill="#808080"/>
<path fill-rule="evenodd" clip-rule="evenodd" d="M9.93054 7.1978C9.3913 7.27946 8.85205 7.3831 8.31152 7.51109V9.27568C8.547 9.22935 10.1131 8.85051 9.93054 7.1978Z" fill="#808080"/>
<path fill-rule="evenodd" clip-rule="evenodd" d="M17.1375 7.51155C16.8026 7.43263 16.4662 7.36305 16.1299 7.30171V8.82094C16.5682 9.16975 17.0804 9.2679 17.1375 9.27888V7.51155Z" fill="#666666"/>
<path d="M10.5134 9.50511C10.4213 9.50511 10.3292 9.47032 10.2581 9.40092C10.1138 9.26012 10.1118 9.02849 10.2526 8.88438C10.5132 8.61778 10.9651 8.5872 11.1475 8.58647H11.1548C11.3445 8.58647 11.7955 8.6165 12.0595 8.88219C12.2016 9.02519 12.2009 9.25627 12.0579 9.39836C11.9149 9.54027 11.6838 9.53954 11.5417 9.39671C11.4243 9.29106 10.8928 9.28996 10.7737 9.39543C10.7023 9.46849 10.608 9.50511 10.5134 9.50511Z" fill="#666666"/>
<path d="M13.4695 9.50511C13.3774 9.50511 13.2853 9.47032 13.2141 9.40092C13.07 9.25993 13.0678 9.02849 13.2088 8.88438C13.4695 8.61778 13.9214 8.5872 14.1036 8.58647H14.1109C14.3004 8.58647 14.7514 8.6165 15.0157 8.88219C15.1577 9.02519 15.157 9.25627 15.014 9.39836C14.871 9.54027 14.6399 9.53954 14.4976 9.39671C14.3803 9.29106 13.8489 9.28996 13.7299 9.39543C13.6585 9.46849 13.564 9.50511 13.4695 9.50511Z" fill="#666666"/>
<path d="M12.6708 5.03011C12.4692 5.03011 12.3057 4.86659 12.3057 4.66518V2.98921C12.3057 2.78761 12.4692 2.62428 12.6708 2.62428C12.8724 2.62428 13.0357 2.78761 13.0357 2.98921V4.66518C13.0357 4.86659 12.8724 5.03011 12.6708 5.03011Z" fill="#C2C7CC"/>
<path d="M10.1923 5.78593C9.99066 5.78593 9.82715 5.62242 9.82715 5.42101V3.74632C9.82715 3.54491 9.99066 3.38158 10.1923 3.38158C10.3939 3.38158 10.5572 3.54491 10.5572 3.74632V5.42101C10.5572 5.62242 10.3939 5.78593 10.1923 5.78593Z" fill="#C2C7CC"/>
<path d="M15.1491 5.78593C14.9475 5.78593 14.7842 5.62242 14.7842 5.42101V3.74632C14.7842 3.54491 14.9475 3.38158 15.1491 3.38158C15.3507 3.38158 15.5142 3.54491 15.5142 3.74632V5.42101C15.5142 5.62242 15.3507 5.78593 15.1491 5.78593Z" fill="#C2C7CC"/>
</g>
<defs>
<clipPath id="clip0_2601_10782">
<rect width="24" height="24" fill="white"/>
</clipPath>
</defs>
</svg>
