<svg width="36" height="36" viewBox="0 0 36 36" fill="none" xmlns="http://www.w3.org/2000/svg">
<circle cx="18" cy="18" r="18" fill="#34C759"/>
<path d="M14.11 21.8819C14.8867 22.6586 15.7066 23.3598 16.5696 23.9854C17.4326 24.6111 18.2956 25.1073 19.1586 25.4741C20.0216 25.8409 20.8387 26.0243 21.61 26.0243C22.1332 26.0243 22.6214 25.9299 23.0744 25.7411C23.5275 25.5523 23.9374 25.2557 24.3042 24.8511C24.52 24.6138 24.6899 24.3576 24.8139 24.0825C24.938 23.8128 25 23.5405 25 23.2654C25 23.0604 24.9595 22.8662 24.8786 22.6828C24.7977 22.4941 24.6602 22.3323 24.466 22.1974L21.9822 20.4337C21.7934 20.3042 21.6181 20.2071 21.4563 20.1424C21.2945 20.0777 21.1408 20.0453 20.9951 20.0453C20.8118 20.0453 20.6338 20.0965 20.4612 20.199C20.2886 20.2961 20.1106 20.4364 19.9272 20.6197L19.3528 21.1861C19.2718 21.2724 19.1694 21.3155 19.0453 21.3155C18.9806 21.3155 18.9186 21.3047 18.8592 21.2832C18.8053 21.2616 18.7594 21.2427 18.7217 21.2265C18.4682 21.0917 18.1446 20.8598 17.7508 20.5307C17.3571 20.1963 16.9606 19.8296 16.5615 19.4304C16.1677 19.0313 15.8037 18.6348 15.4693 18.2411C15.1348 17.8474 14.9029 17.5264 14.7735 17.2783C14.7519 17.2352 14.7303 17.1866 14.7087 17.1327C14.6926 17.0734 14.6845 17.014 14.6845 16.9547C14.6845 16.836 14.7249 16.7362 14.8058 16.6553L15.3803 16.0647C15.5583 15.8813 15.6985 15.7033 15.801 15.5307C15.9035 15.3581 15.9547 15.1802 15.9547 14.9968C15.9547 14.8511 15.9196 14.6974 15.8495 14.5356C15.7848 14.3738 15.685 14.1985 15.5502 14.0097L13.8107 11.5583C13.6704 11.3641 13.5032 11.2238 13.3091 11.1375C13.1149 11.0458 12.9099 11 12.6942 11C12.1386 11 11.6181 11.2346 11.1327 11.7039C10.7389 12.0814 10.4504 12.4995 10.267 12.9579C10.089 13.411 10 13.8964 10 14.4142C10 15.1909 10.1807 16.0081 10.5421 16.8657C10.9035 17.7179 11.3943 18.5728 12.0146 19.4304C12.6348 20.288 13.3333 21.1052 14.11 21.8819Z" fill="white"/>
</svg>
