<svg width="24" height="24" viewBox="0 0 24 24" fill="none" xmlns="http://www.w3.org/2000/svg">
<g clip-path="url(#clip0_2601_10754)">
<path d="M10.5938 0C9.43059 0 8.48438 0.946219 8.48438 2.10938V2.85938L9.89062 3.5625H10.5938H11.2969L12.7031 2.85938V2.10938C12.7031 0.946219 11.7569 0 10.5938 0Z" fill="#FF6A4D"/>
<path d="M12.7031 2.85938V2.10938C12.7031 0.946219 11.7569 0 10.5938 0V3.5625H11.2969L12.7031 2.85938Z" fill="#E64D2E"/>
<path d="M0 21.1875C0.325828 22.7921 1.81481 24 3.51562 24C5.21644 24 6.7523 22.7921 7.07812 21.1875L5.55056 20.4844H0.976125L0 21.1875Z" fill="#474F54"/>
<path d="M3.51562 22.5938C2.35247 22.5938 1.40625 21.6475 1.40625 20.4844C1.40625 19.3212 2.35247 18.375 3.51562 18.375C4.67878 18.375 5.67188 19.3212 5.67188 20.4844C5.67188 21.6475 4.67878 22.5938 3.51562 22.5938Z" fill="#F2F9FF"/>
<path d="M7.07812 8.53125H2.8125L1.40625 9.9375V14.1562L2.8125 14.8594H7.07812L9.1875 14.1562V10.3594L8.48438 9.9375L7.07812 8.53125Z" fill="#FF9100"/>
<path d="M1.40625 7.125V9.9375H8.48438L9.1875 9.57352L8.48438 9.23438V7.125H1.40625Z" fill="#FABE2C"/>
<path d="M11.2969 21.1875H0V20.4844C0 17.7661 2.25047 15.5625 4.96875 15.5625L6.14062 14.8594H12.7031V20.0156L11.2969 21.1875Z" fill="#FF6A4D"/>
<path d="M0 14.1562H9.89062V15.5625H0V14.1562Z" fill="#32393F"/>
<path d="M14.8125 17.714V20.3578L14.1094 21.1875H11.2969V15.5625H9.89062C9.11719 15.5625 8.48438 14.9297 8.48438 14.1562V10.6406H12.7031V12.75C13.4766 12.75 14.1094 13.3828 14.1094 14.1562V16.9688L14.8125 17.714Z" fill="#575F64"/>
<path d="M14.8125 17.714V20.3578L14.1094 21.1875H11.2969V15.5625H10.5938V10.6406H12.7031V12.75C13.4766 12.75 14.1094 13.3828 14.1094 14.1562V16.9688L14.8125 17.714Z" fill="#474F54"/>
<path d="M12.7031 9.9375V9.23438C12.7031 8.07122 11.7569 7.125 10.5938 7.125C9.43059 7.125 8.48438 8.07122 8.48438 9.23438V10.6406C8.48438 11.8056 9.42877 12.75 10.5938 12.75H16.2656C17.4306 12.75 18.375 11.8056 18.375 10.6406V9.9375H12.7031Z" fill="#FF6A4D"/>
<path d="M18.375 10.6406V9.9375H12.7031V9.23438C12.7031 8.07122 11.7569 7.125 10.5938 7.125V12.75H16.2656C17.4306 12.75 18.375 11.8056 18.375 10.6406Z" fill="#E64D2E"/>
<path d="M11.2969 3.5625H10.5938H9.89062L8.48438 4.26562V4.96875C8.48438 6.13191 9.43059 7.125 10.5938 7.125C11.7569 7.125 12.7031 6.13191 12.7031 4.96875V4.26562L11.2969 3.5625Z" fill="#FFE1BA"/>
<path d="M12.7031 4.96875V4.26562L11.2969 3.5625H10.5938V7.125C11.7569 7.125 12.7031 6.13191 12.7031 4.96875Z" fill="#FFBFAB"/>
<path d="M10.5938 2.85938H8.48438V4.26562H10.5938H14.1094V2.85938H10.5938Z" fill="#474F54"/>
<path d="M10.5938 2.85938H14.1094V4.26562H10.5938V2.85938Z" fill="#32393F"/>
<path d="M20.3127 14.3135C20.2351 13.7662 20.0813 12.6882 19.7744 10.541L16.9688 9.23438V14.8594C16.9688 15.9686 16.0132 16.9688 14.8125 16.9688H14.1094V21.1875H15.5156H22.5938L24 20.4844V19.0781C24 16.8287 22.4482 14.8676 20.3127 14.3135Z" fill="#E64D2E"/>
<path d="M21.1875 11.3438H19.0781C17.915 11.3438 16.9688 10.3975 16.9688 9.23438C16.9688 8.07122 17.915 7.125 19.0781 7.125H21.1875V11.3438Z" fill="#FF6A4D"/>
<path d="M20.6957 16.9899L20.4912 17.7712L19.3029 17.1874C17.9468 17.6755 16.9688 18.9621 16.9688 20.4841C16.9688 22.4225 18.546 23.9998 20.4844 23.9998C22.4228 23.9998 24 22.4225 24 20.4841C24 18.6181 22.5341 17.1016 20.6957 16.9899Z" fill="#32393F"/>
<path d="M20.4844 18.375C19.3212 18.375 18.375 19.3212 18.375 20.4844C18.375 21.6475 19.3212 22.5938 20.4844 22.5938C21.6475 22.5938 22.5938 21.6475 22.5938 20.4844C22.5938 19.3212 21.6475 18.375 20.4844 18.375Z" fill="#DFE7F4"/>
<path d="M21.1814 20.3848L20.6965 16.9901C20.6251 16.9858 20.5575 16.9688 20.4851 16.9688C20.0688 16.9688 19.6746 17.0542 19.3037 17.1877L19.7889 20.5839L21.1814 20.3848Z" fill="#C7CFE1"/>
</g>
<defs>
<clipPath id="clip0_2601_10754">
<rect width="24" height="24" fill="white"/>
</clipPath>
</defs>
</svg>
