<svg width="199" height="192" viewBox="0 0 199 192" fill="none" xmlns="http://www.w3.org/2000/svg">
<path d="M86.1982 119.351L100.973 134.126L130.523 104.576" stroke="#FF7000" stroke-width="12" stroke-linecap="round" stroke-linejoin="round"/>
<circle cx="108.108" cy="113.297" r="65.9189" stroke="#FF7000" stroke-width="10"/>
<path d="M16.4324 159.135L20.1217 170.49H32.0606L22.4019 177.507L26.0912 188.862L16.4324 181.844L6.77369 188.862L10.463 177.507L0.80426 170.49H12.7431L16.4324 159.135Z" fill="#FF7000"/>
<path d="M32.8653 28.5405L35.3896 36.3094H43.5583L36.9497 41.1109L39.4739 48.8797L32.8653 44.0783L26.2567 48.8797L28.781 41.1109L22.1724 36.3094H30.341L32.8653 28.5405Z" fill="#FF7000"/>
<path d="M179.027 0L183.493 13.745H197.945L186.253 22.2398L190.719 35.9848L179.027 27.4899L167.334 35.9848L171.801 22.2398L160.108 13.745H174.561L179.027 0Z" fill="#FF7000"/>
</svg>
